{
    "asset" : {
        "generator" : "Khronos glTF Blender I/O v1.7.33",
        "version" : "2.0"
    },
    "scene" : 0,
    "scenes" : [
        {
            "name" : "Scene",
            "nodes" : [
                0
            ]
        }
    ],
    "nodes" : [
        {
            "mesh" : 0,
            "name" : "sculpt",
            "rotation" : [
                0.7071068286895752,
                0,
                0,
                0.7071067094802856
            ],
            "translation" : [
                0.16670353710651398,
                0.9425211548805237,
                0.6483569145202637
            ]
        }
    ],
    "materials" : [
        {
            "alphaMode" : "BLEND",
            "doubleSided" : true,
            "name" : "initialShadingGroup",
            "pbrMetallicRoughness" : {
                "baseColorFactor" : [
                    1,
                    1,
                    1,
                    0.09202456474304199
                ],
                "metallicFactor" : 0.25766870379447937,
                "roughnessFactor" : 0
            }
        }
    ],
    "meshes" : [
        {
            "name" : "Mesh_0",
            "primitives" : [
                {
                    "attributes" : {
                        "POSITION" : 0,
                        "NORMAL" : 1,
                        "TEXCOORD_0" : 2
                    },
                    "indices" : 3,
                    "material" : 0
                }
            ]
        }
    ],
    "accessors" : [
        {
            "bufferView" : 0,
            "componentType" : 5126,
            "count" : 5472,
            "max" : [
                0.8376434445381165,
                0.956723153591156,
                1.442521333694458
            ],
            "min" : [
                -0.8903625011444092,
                -1.1483569145202637,
                -1.2402026653289795
            ],
            "type" : "VEC3"
        },
        {
            "bufferView" : 1,
            "componentType" : 5126,
            "count" : 5472,
            "type" : "VEC3"
        },
        {
            "bufferView" : 2,
            "componentType" : 5126,
            "count" : 5472,
            "type" : "VEC2"
        },
        {
            "bufferView" : 3,
            "componentType" : 5123,
            "count" : 5472,
            "type" : "SCALAR"
        }
    ],
    "bufferViews" : [
        {
            "buffer" : 0,
            "byteLength" : 65664,
            "byteOffset" : 0
        },
        {
            "buffer" : 0,
            "byteLength" : 65664,
            "byteOffset" : 65664
        },
        {
            "buffer" : 0,
            "byteLength" : 43776,
            "byteOffset" : 131328
        },
        {
            "buffer" : 0,
            "byteLength" : 10944,
            "byteOffset" : 175104
        }
    ],
    "buffers" : [
        {
            "byteLength" : 186048,
            "uri" : "data:application/octet-stream;base64,"
        }
    ]
}
