M48
INCH
T01C0.0191
T02C0.0315
T03C0.035
T04C0.0354
T05C0.038
T06C0.0394
T07C0.0433
T08C0.047
T09C0.0472
T10C0.0512
T11C0.0728
T12C0.1083
T13C0.125
T14C0.1417
%
T01
X+014425Y+041045
X+013440Y+040690
X+014362Y+042565
X+011035Y+043045
X+010440Y+039065
X+014095Y+035670
X+016440Y+033690
X+018190Y+033440
X+019690Y+033440
X+019815Y+035065
X+018190Y+035065
X+019190Y+037065
X+018440Y+038065
X+022065Y+040565
X+022065Y+041940
X+022065Y+043065
X+022065Y+043940
X+021945Y+031545
X+021945Y+031065
X+022970Y+031065
X+021010Y+029857
X+019585Y+030858
X+016565Y+030565
X+016565Y+029690
X+014613Y+029420
X+014565Y+030065
X+013315Y+030315
X+013195Y+029750
X+011565Y+029570
X+013690Y+032440
X+014565Y+032440
X+016140Y+026315
X+015990Y+022815
X+020190Y+018815
X+019315Y+017565
X+022670Y+019170
X+022670Y+025340
X+020597Y+027170
X+024875Y+028170
X+007445Y+023315
X+006940Y+025190
X+005690Y+025190
X+005690Y+021440
X+006940Y+021440
T02
X+004945Y+042973G85X+004945Y+043658
X+009597Y+041265G85X+008913Y+041265
X+010125Y+042973G85X+010125Y+043658
X+010125Y+036718G85X+010125Y+037403
X+009597Y+035010G85X+008913Y+035010
X+010125Y+030467G85X+010125Y+031153
X+009597Y+028760G85X+008913Y+028760
X+004945Y+030467G85X+004945Y+031153
X+004945Y+036718G85X+004945Y+037403
T03
X+015690Y+006315
X+016690Y+006315
X+016690Y+010315
X+015690Y+010315
X+017190Y+012690
X+017190Y+013690
X+020190Y+013690
X+021190Y+013690
X+021190Y+014690
X+021190Y+015690
X+021190Y+016690
X+021190Y+017690
X+021190Y+019690
X+021190Y+020690
X+020190Y+019690
X+019190Y+019690
X+018190Y+019690
X+016565Y+019690
X+016565Y+018690
X+011565Y+018690
X+011565Y+017690
X+011565Y+019690
X+011565Y+014690
X+020190Y+012690
X+021190Y+012690
X+021190Y+023690
X+021190Y+024690
X+022190Y+024690
X+022190Y+027690
X+021190Y+027690
X+017690Y+028940
X+016690Y+028940
X+015565Y+028940
X+015565Y+029940
X+015565Y+030940
X+015565Y+031940
X+016565Y+032190
X+016565Y+035190
X+016565Y+036315
X+016565Y+037315
X+015565Y+037440
X+015565Y+038440
X+015565Y+039440
X+016565Y+039565
X+017565Y+040815
X+017565Y+041815
X+016565Y+042565
X+016565Y+043815
X+016565Y+044815
X+017565Y+044815
X+015565Y+044815
X+012565Y+044815
X+011565Y+044815
X+011565Y+041815
X+011565Y+040565
X+011565Y+039565
X+012565Y+039440
X+012565Y+038440
X+012565Y+037440
X+011565Y+038315
X+011565Y+035315
X+011565Y+034190
X+011565Y+033190
X+011565Y+031940
X+012565Y+031940
X+012565Y+030940
X+012565Y+029940
X+012565Y+028940
X+011565Y+028940
X+007815Y+033440
X+007815Y+034440
X+004815Y+034440
X+004815Y+033440
X+004815Y+040190
X+007815Y+040190
X+017565Y+037815
X+019565Y+038065
X+019565Y+039065
X+019565Y+043065
X+019565Y+044065
X+024690Y+042065
X+025690Y+042065
X+025690Y+039065
X+024690Y+039065
X+024815Y+037065
X+024815Y+036065
T04
X+011065Y+012440
X+011065Y+011660
X+012565Y+012690
X+012565Y+013690
X+012565Y+014690
X+012565Y+015690
X+012565Y+016690
X+012565Y+017690
X+012565Y+018690
X+012565Y+019690
X+012565Y+021315
X+012565Y+022315
X+012565Y+023315
X+012565Y+024315
X+012565Y+025315
X+012565Y+026315
X+012565Y+027315
X+015565Y+027315
X+015565Y+026315
X+015565Y+025315
X+015565Y+024315
X+015565Y+023315
X+015565Y+022315
X+015565Y+021315
X+015565Y+019690
X+015565Y+018690
X+015565Y+017690
X+015565Y+016690
X+015565Y+015690
X+015565Y+014690
X+015565Y+013690
X+015565Y+012690
X+017190Y+014690
X+017190Y+015690
X+017190Y+016690
X+017190Y+017690
X+020190Y+017690
X+020190Y+016690
X+020190Y+015690
X+020190Y+014690
X+020190Y+020690
X+020190Y+021690
X+020190Y+022690
X+020190Y+023690
X+020190Y+024690
X+020190Y+025690
X+020190Y+026690
X+020190Y+027690
X+017190Y+027690
X+017190Y+026690
X+017190Y+025690
X+017190Y+024690
X+017190Y+023690
X+017190Y+022690
X+017190Y+021690
X+017190Y+020690
X+020565Y+031065
X+020565Y+032065
X+020565Y+033065
X+020565Y+034065
X+020565Y+035065
X+020565Y+036065
X+020565Y+037065
X+020565Y+038065
X+020565Y+039065
X+020565Y+040065
X+020565Y+041065
X+020565Y+042065
X+020565Y+043065
X+020565Y+044065
X+023565Y+044065
X+023565Y+043065
X+023565Y+042065
X+023565Y+041065
X+023565Y+040065
X+023565Y+039065
X+023565Y+038065
X+023565Y+037065
X+023565Y+036065
X+023565Y+035065
X+023565Y+034065
X+023565Y+033065
X+023565Y+032065
X+023565Y+031065
X+015565Y+033190
X+015565Y+034190
X+015565Y+035190
X+015565Y+036190
X+012565Y+036190
X+012565Y+035190
X+012565Y+034190
X+012565Y+033190
X+012565Y+040565
X+012565Y+041565
X+012565Y+042565
X+012565Y+043565
X+015565Y+043565
X+015565Y+042565
X+015565Y+041565
X+015565Y+040565
X+008940Y+012470
X+008940Y+011690
T05
X+025065Y+021690
X+025065Y+020690
X+024065Y+020690
X+024065Y+021690
X+024065Y+022690
X+024065Y+023690
X+024065Y+024690
X+024065Y+025690
X+024065Y+026690
X+025065Y+026690
X+025065Y+025690
X+025065Y+024690
X+025065Y+023690
X+025065Y+022690
X+025065Y+015560
X+025065Y+014560
X+025065Y+013560
X+025065Y+012560
X+025065Y+011560
X+025065Y+010560
X+025065Y+009560
X+024065Y+009560
X+024065Y+010560
X+024065Y+011560
X+024065Y+012560
X+024065Y+013560
X+024065Y+014560
X+024065Y+015560
X+024065Y+008560
X+025065Y+008560
T06
X+006015Y+042315
X+006015Y+043315
X+006015Y+044315
X+006015Y+038060
X+006015Y+037060
X+006015Y+036060
X+006015Y+031810
X+006015Y+030810
X+006015Y+029810
X+005914Y+024310
X+005914Y+023310
X+005899Y+022310
X+007587Y+015810G85X+006996Y+015810
X+007587Y+008310G85X+006996Y+008310
T07
X+024815Y+034065
X+025815Y+034065
X+025815Y+033065
X+024815Y+033065
X+024815Y+032065
X+025815Y+032065
X+016690Y+009315
X+016690Y+008315
X+016690Y+007315
T08
X+018129Y+008876
X+018129Y+007501
X+022129Y+007501
X+022129Y+008876
T09
X+018129Y+010126
X+018129Y+006250
X+022129Y+006250
X+022129Y+010126
T10
X+005520Y+015574G85X+005520Y+016046
X+005520Y+008074G85X+005520Y+008546
T11
X+004614Y+024314
X+004614Y+022306
X+009614Y+021460
X+009614Y+023310
X+009614Y+025160
T12
X+004280Y+014117
X+004280Y+017503
X+004280Y+010003
X+004280Y+006617
T13
X+005190Y+005190
X+006445Y+012060
X+025185Y+005190
X+025185Y+046310
X+005190Y+046440
T14
X+009761Y+008315
T00
M30
