G04 DipTrace 3.0.0.0*
G04 LZX-C1-PCB-V1.1TopMask.gbr*
%MOIN*%
G04 #@! TF.FileFunction,Soldermask,Top*
G04 #@! TF.Part,Single*
%ADD43C,0.125*%
%ADD44C,0.108268*%
%ADD45C,0.141732*%
%ADD58R,0.063118X0.08674*%
%ADD60C,0.067055*%
%ADD62R,0.067055X0.067055*%
%ADD64R,0.082803X0.082803*%
%ADD66C,0.082803*%
%ADD68C,0.078*%
%ADD70C,0.12611*%
%ADD72C,0.074929*%
%ADD74R,0.074929X0.074929*%
%ADD76O,0.169417X0.110362*%
%ADD78R,0.122173X0.169417*%
%ADD80R,0.088X0.088*%
%ADD82C,0.088*%
%ADD84O,0.168X0.098*%
%ADD86O,0.098X0.168*%
%ADD88R,0.078X0.078*%
%ADD90C,0.098*%
%ADD92C,0.098*%
%ADD94R,0.098X0.098*%
%ADD96C,0.070992*%
%ADD98R,0.070992X0.070992*%
%ADD100C,0.078*%
%FSLAX26Y26*%
G04*
G70*
G90*
G75*
G01*
G04 TopMask*
%LPD*%
D100*
X1569000Y631500D3*
X1669000D3*
D98*
X1106500Y1244000D3*
D96*
Y1166000D3*
D100*
X1656500Y4481500D3*
Y4381500D3*
Y3731500D3*
Y3631500D3*
X2481500Y3706500D3*
Y3606500D3*
D98*
X894000Y1169000D3*
D96*
Y1247000D3*
D100*
X1156500Y4056500D3*
Y3956500D3*
Y3319000D3*
Y3419000D3*
X1956500Y3906500D3*
Y3806500D3*
X1569000Y1031500D3*
X1669000D3*
X1956500Y4406500D3*
Y4306500D3*
X2119000Y1269000D3*
Y1369000D3*
Y1569000D3*
Y1469000D3*
X1769000Y2894000D3*
X1669000D3*
X1656500Y1869000D3*
Y1969000D3*
X1156500D3*
Y1869000D3*
X1819000Y1969000D3*
X1919000D3*
X2019000D3*
X2119000D3*
Y1669000D3*
Y1769000D3*
D94*
X1812857Y1012638D3*
D92*
X2212857D3*
D94*
X2212867Y625045D3*
D92*
X1812867D3*
D90*
X1812857Y887625D3*
X2212857D3*
X1812857Y750110D3*
X2212857D3*
D43*
X519000Y519000D3*
Y4644000D3*
X2518500Y519000D3*
Y4631000D3*
D100*
X2506500Y2169000D3*
Y2269000D3*
Y2369000D3*
Y2469000D3*
Y2569000D3*
Y2669000D3*
X2406500D3*
Y2569000D3*
Y2469000D3*
Y2369000D3*
Y2269000D3*
Y2169000D3*
Y2069000D3*
D88*
X2506500D3*
D86*
X494500Y4331500D3*
D84*
X925500Y4126500D3*
D86*
X1012500Y4331500D3*
D82*
X601500Y4231500D3*
Y4331500D3*
D80*
Y4431500D3*
D78*
X551980Y1581000D3*
D76*
X729146D3*
D44*
X427965Y1411709D3*
Y1750291D3*
D86*
X494500Y3706000D3*
D84*
X925500Y3501000D3*
D86*
X1012500Y3706000D3*
D82*
X601500Y3606000D3*
Y3706000D3*
D80*
Y3806000D3*
D78*
X551980Y831000D3*
D76*
X729146D3*
D44*
X427965Y661709D3*
Y1000291D3*
D86*
X494500Y3081000D3*
D84*
X925500Y2876000D3*
D86*
X1012500Y3081000D3*
D82*
X601500Y2981000D3*
Y3081000D3*
D80*
Y3181000D3*
D100*
X2506500Y956000D3*
Y1056000D3*
Y1156000D3*
Y1256000D3*
Y1356000D3*
Y1456000D3*
Y1556000D3*
X2406500D3*
Y1456000D3*
Y1356000D3*
Y1256000D3*
Y1156000D3*
Y1056000D3*
Y956000D3*
Y856000D3*
D88*
X2506500D3*
D74*
X2481500Y3406500D3*
D72*
X2581500D3*
X2481500Y3306500D3*
X2581500D3*
X2481500Y3206500D3*
X2581500D3*
D43*
X644500Y1206000D3*
D100*
X1256500Y3944000D3*
X1556500D3*
X481500Y4019000D3*
X781500D3*
X1556500Y3744000D3*
X1256500D3*
X1156500Y4181500D3*
Y4481500D3*
X481500Y3444000D3*
X781500D3*
X1556500Y3844000D3*
X1256500D3*
X2569000Y3906500D3*
Y4206500D3*
X2019000Y1369000D3*
X1719000D3*
X2019000Y1269000D3*
X1719000D3*
X1156500Y1469000D3*
Y1769000D3*
X1556500Y3094000D3*
X1256500D3*
Y4481500D3*
X1556500D3*
X2219000Y2469000D3*
Y2769000D3*
X1656500Y4256500D3*
Y3956500D3*
X1156500Y3194000D3*
Y2894000D3*
X481500Y3344000D3*
X781500D3*
X1656500Y3219000D3*
Y3519000D3*
X1256500Y2994000D3*
X1556500D3*
X1256500Y3194000D3*
X1556500D3*
X1756500Y3781500D3*
Y4081500D3*
X2119000Y2469000D3*
Y2769000D3*
Y2069000D3*
Y2369000D3*
X1756500Y4181500D3*
Y4481500D3*
X2469000Y3906500D3*
Y4206500D3*
X1156500Y3831500D3*
Y3531500D3*
X1256500Y2894000D3*
X1556500D3*
D70*
X461429Y2431394D3*
Y2230606D3*
X961429Y2516039D3*
Y2331000D3*
Y2145961D3*
D82*
X589923Y2231000D3*
X591350Y2331000D3*
D80*
Y2431000D3*
D88*
X1256500Y4356500D3*
D68*
Y4256500D3*
Y4156500D3*
Y4056500D3*
X1556500D3*
Y4156500D3*
Y4256500D3*
Y4356500D3*
D88*
X1256500Y3619000D3*
D68*
Y3519000D3*
Y3419000D3*
Y3319000D3*
X1556500D3*
Y3419000D3*
Y3519000D3*
Y3619000D3*
D66*
X1669000Y931500D3*
Y831500D3*
D64*
Y731500D3*
D45*
X976085Y831500D3*
D98*
X2056500Y4406500D3*
D96*
Y4306500D3*
Y4206500D3*
Y4106500D3*
Y4006500D3*
Y3906500D3*
Y3806500D3*
Y3706500D3*
Y3606500D3*
Y3506500D3*
Y3406500D3*
Y3306500D3*
Y3206500D3*
Y3106500D3*
X2356500D3*
Y3206500D3*
Y3306500D3*
Y3406500D3*
Y3506500D3*
Y3606500D3*
Y3706500D3*
Y3806500D3*
Y3906500D3*
Y4006500D3*
Y4106500D3*
Y4206500D3*
Y4306500D3*
Y4406500D3*
D62*
X1719000Y1769000D3*
D60*
Y1669000D3*
Y1569000D3*
Y1469000D3*
X2019000D3*
Y1569000D3*
Y1669000D3*
Y1769000D3*
D62*
X1256500Y2731500D3*
D60*
Y2631500D3*
Y2531500D3*
Y2431500D3*
Y2331500D3*
Y2231500D3*
Y2131500D3*
X1556500D3*
Y2231500D3*
Y2331500D3*
Y2431500D3*
Y2531500D3*
Y2631500D3*
Y2731500D3*
D62*
X1256500Y1969000D3*
D60*
Y1869000D3*
Y1769000D3*
Y1669000D3*
Y1569000D3*
Y1469000D3*
Y1369000D3*
Y1269000D3*
X1556500D3*
Y1369000D3*
Y1469000D3*
Y1569000D3*
Y1669000D3*
Y1769000D3*
Y1869000D3*
Y1969000D3*
D62*
X1719000Y2769000D3*
D60*
Y2669000D3*
Y2569000D3*
Y2469000D3*
Y2369000D3*
Y2269000D3*
Y2169000D3*
Y2069000D3*
X2019000D3*
Y2169000D3*
Y2269000D3*
Y2369000D3*
Y2469000D3*
Y2569000D3*
Y2669000D3*
Y2769000D3*
D58*
X1769000Y3431500D3*
X1869000D3*
X1969000D3*
Y3612602D3*
X1869000D3*
X1769000D3*
M02*
