G04 DipTrace 3.0.0.0*
G04 LZX-C1-PCB-V1.1Bottom.gbr*
%MOIN*%
G04 #@! TF.FileFunction,Copper,L2,Bot*
G04 #@! TF.Part,Single*
G04 #@! TA.AperFunction,Conductor*
%ADD14C,0.02*%
G04 #@! TA.AperFunction,CopperBalancing*
%ADD15C,0.01*%
G04 #@! TA.AperFunction,Conductor*
%ADD16C,0.008*%
G04 #@! TA.AperFunction,CopperBalancing*
%ADD17C,0.025*%
G04 #@! TA.AperFunction,ComponentPad*
%ADD19C,0.07*%
%ADD20R,0.062992X0.062992*%
%ADD21C,0.062992*%
%ADD22R,0.09X0.09*%
%ADD23C,0.09*%
%ADD24C,0.09*%
%ADD25R,0.07X0.07*%
%ADD26O,0.09X0.16*%
%ADD27O,0.16X0.09*%
%ADD28C,0.08*%
%ADD29R,0.08X0.08*%
%ADD30R,0.114173X0.161417*%
%ADD31O,0.161417X0.102362*%
%ADD32R,0.066929X0.066929*%
%ADD33C,0.066929*%
%ADD34C,0.11811*%
%ADD35C,0.07*%
%ADD36C,0.074803*%
%ADD37R,0.074803X0.074803*%
%ADD38R,0.059055X0.059055*%
%ADD39C,0.059055*%
G04 #@! TA.AperFunction,ViaPad*
%ADD41C,0.04*%
%FSLAX26Y26*%
G04*
G70*
G90*
G75*
G01*
G04 Bottom*
%LPD*%
X2056500Y4306500D2*
D14*
X1956500D1*
X1265965Y1096000D2*
D15*
X2590500D1*
X2608500Y1114000D1*
Y3093059D1*
X2581500Y3120059D1*
Y3206500D1*
X1265965Y2017000D2*
X2354500D1*
X2406500Y2069000D1*
X1265965Y1156000D2*
X2406500D1*
X2481500Y3706500D2*
Y3788500D1*
X2463500Y3806500D1*
X2356500D1*
X2581500Y3206500D2*
X2529500Y3258500D1*
Y3658500D1*
X2481500Y3706500D1*
X2406500Y2069000D2*
X2506500D1*
X1956500Y4406500D2*
X1731500D1*
X1656500Y4481500D1*
X1919000Y3706500D2*
Y3731500D1*
X1844000Y3806500D1*
X1331500Y3031500D2*
Y3181500D1*
X1381500Y3231500D1*
X1369000Y3244000D1*
X1344000Y4069000D2*
Y3931500D1*
X1256500Y3844000D1*
X1819000Y3506500D2*
Y3531500D1*
X1794000Y3556500D1*
Y3506500D1*
X1706500Y3419000D1*
X1694000D1*
X1644000Y3369000D1*
X1969000Y3344000D2*
X1819000D1*
X1981500Y3506500D2*
Y3631500D1*
X2056500Y3706500D1*
X2006500Y3756500D1*
X1969000D1*
X1919000Y3706500D1*
X1656500Y2969000D2*
Y3056500D1*
X1931500Y1756500D2*
Y1819000D1*
X1981500Y1869000D1*
X2006500D1*
X2019000Y1881500D1*
X1044000Y3906500D2*
Y3969000D1*
X1556500Y2994000D2*
Y3006500D1*
X1456500D1*
Y3244000D2*
X1469000D1*
Y3269000D1*
X1556500Y2994000D2*
X1469000D1*
X1456500Y3006500D1*
X2206500Y4056500D2*
Y4081500D1*
X2194000Y4094000D1*
X2206500Y4194000D2*
Y4219000D1*
Y4306500D2*
X2181500D1*
X2206500D2*
Y4394000D1*
X961429Y2331000D2*
X744500Y2331500D1*
X2056500Y3406500D2*
X1763000D1*
X1745000Y3388500D1*
Y3160000D1*
X1727000Y3142000D1*
X1425575D1*
X1407575Y3124000D1*
Y2882575D1*
X1256500Y2731500D1*
X1442504Y4104500D2*
X1604500D1*
X1702500Y4006500D1*
X2056500D1*
X1319500Y2975000D2*
X1286500Y2942000D1*
X1222500D1*
X1204500Y2924000D1*
Y2692028D1*
X1222500Y2674028D1*
X1281028D1*
X1299028Y2656028D1*
Y2492028D1*
X1281028Y2474028D1*
X1231972D1*
X1213972Y2456028D1*
Y2374028D1*
X1256500Y2331500D1*
X2059681Y2717000D2*
X2387539D1*
X2487500Y2816961D1*
X1614028Y2631500D2*
X1556500D1*
Y2431500D2*
X1513972Y2474028D1*
Y2556028D1*
X1531972Y2574028D1*
X1596516D1*
X1601543Y2569000D1*
X1719000D1*
X1869990Y2719990D1*
Y3132996D1*
X1887990Y3150996D1*
X2107933D1*
X2125933Y3168996D1*
Y3836500D1*
X2107933Y3854500D1*
X1646000D1*
X1556500Y3944000D1*
X2297004Y3106500D2*
X2356500D1*
X2107933Y3150996D2*
X2152429Y3106500D1*
X2194500D1*
X1461311Y2942000D2*
Y2847528D1*
X1479311Y2829528D1*
X1699000D1*
X1717000Y2847528D1*
Y3000764D1*
X1781000Y3064764D1*
Y3288500D1*
X1799000Y3306500D1*
X2056500D1*
X1156500Y2957000D2*
Y2894000D1*
X2569000Y4206500D2*
X2517000Y4154500D1*
Y3868996D1*
X2499000Y3850996D1*
X2330004D1*
X2312004Y3832996D1*
Y3270965D1*
X2330004Y3252965D1*
X2435035D1*
X2481500Y3206500D1*
X2356500Y3506500D2*
X2400996Y3462004D1*
Y3387004D1*
X2481500Y3306500D1*
X1256500Y3744000D2*
X1392252D1*
X1456752Y3679500D1*
X1733500D1*
X1962004Y3450996D1*
X2082996D1*
X2100996Y3432996D1*
Y3250996D1*
X2056500Y3206500D1*
X1835000D1*
X1817000Y3188500D1*
Y2829528D1*
X1799000Y2811528D1*
X1497311D1*
X1479311Y2793528D1*
Y2308689D1*
X1556500Y2231500D1*
X2506500Y1456000D2*
X2572500D1*
X2590500Y1474000D1*
Y3003732D1*
X2572500Y3021732D1*
X2263500D1*
X2245500Y3039732D1*
Y4132996D1*
X2227500Y4150996D1*
X1901374D1*
X1870870Y4181500D1*
X1756500D1*
X1719000Y1769000D2*
X1626504D1*
X1608504Y1751000D1*
Y1629528D1*
X1590504Y1611528D1*
X1299028D1*
X1256500Y1569000D1*
X2194500Y3154500D2*
Y3888500D1*
X2176500Y3906500D1*
X2056500D1*
X1719000Y1569000D2*
X1671004Y1616996D1*
Y1699000D1*
X1689004Y1717000D1*
X2198000D1*
X2216000Y1699000D1*
Y1522000D1*
X2234000Y1504000D1*
X2554500D1*
X2572500Y1522000D1*
Y2985732D1*
X2554500Y3003732D1*
X2245500D1*
X2227500Y3021732D1*
Y3935500D1*
X2056500Y4106500D1*
X729146Y831000D2*
Y895181D1*
X782500Y948535D1*
Y1322783D1*
X631500Y1473783D1*
Y1697433D1*
X656500Y1719000D1*
Y2644000D1*
X722911Y2710411D1*
X1052500D1*
X1070500Y2728411D1*
Y3124000D1*
X1088500Y3142000D1*
X1204500D1*
X1256500Y3194000D1*
X1719000Y1669000D2*
X1919000D1*
X1931500Y1656500D1*
Y1331500D1*
X1944000Y1319000D1*
X2069000D1*
X2119000Y1269000D1*
X1556500Y3744000D2*
Y3844000D1*
X1490500Y3910000D1*
Y3990500D1*
X1556500Y4056500D1*
X601500Y4331500D2*
X720500D1*
X925500Y4126500D1*
X1256500Y3944000D2*
X1304500Y3992000D1*
Y4108500D1*
X1256500Y4156500D1*
X1204500D1*
Y4181500D1*
X1156500D1*
X1436169Y4256500D2*
X1556500D1*
X1103500Y4304500D2*
Y3825764D1*
X1070500Y3792764D1*
Y3410000D1*
X1052500Y3392000D1*
X833500D1*
X781500Y3444000D1*
X1656500Y4256500D2*
Y4181500D1*
X1756500Y4081500D1*
X1556500Y4256500D2*
X1656500D1*
X1556500Y3094000D2*
X1604500Y3046000D1*
Y2942000D1*
X1556500Y2894000D1*
X2506500Y2169000D2*
X2406500D1*
X2354500Y2117000D1*
X1686028D1*
X1668028Y2099000D1*
Y2088972D1*
X1650028Y2070972D1*
X1195972D1*
X1177972Y2088972D1*
Y2552972D1*
X1256500Y2631500D1*
X2506500Y2269000D2*
X2406500D1*
X2354500Y2217000D1*
X1668028D1*
X1650028Y2199000D1*
Y2106972D1*
X1632028Y2088972D1*
X1231972D1*
X1213972Y2106972D1*
Y2256028D1*
X1231972Y2274028D1*
X1299028D1*
X1317028Y2292028D1*
Y2370972D1*
X1256500Y2431500D1*
X1156500Y3194000D2*
X1204500Y3242000D1*
Y3367000D1*
X1256500Y3419000D1*
Y3619000D2*
X1174500D1*
X1156500Y3637000D1*
Y3685000D1*
X1088500Y3617000D1*
Y3362000D1*
X1070500Y3344000D1*
X781500D1*
X1156500Y3685000D2*
Y3831500D1*
X1556500Y3519000D2*
X1604500Y3471000D1*
Y3242000D1*
X1556500Y3194000D1*
X1407576D1*
X1389573Y3175997D1*
Y2912000D1*
X1371573Y2894000D1*
X1256500D1*
X2119000Y1369000D2*
X2185000Y1303000D1*
Y1226004D1*
X2167000Y1208004D1*
X1222500D1*
X1204500Y1226004D1*
Y1563000D1*
X1186500Y1581000D1*
X729146D1*
X1409504Y3567000D2*
X1608500D1*
X1656500Y3519000D1*
X2267000Y2534000D2*
X2232000Y2569000D1*
X2019000D1*
X1256500Y1669000D2*
X1504500Y1917000D1*
X2267000D1*
X1256500Y1869000D2*
X1156500D1*
Y1769000D1*
X2119000Y2469000D2*
X2219000D1*
X2506500Y2369000D2*
X2406500D1*
X2354500Y2317000D1*
X1703516D1*
X1560543Y2174028D1*
X1313972D1*
X1256500Y2231500D1*
X1599028Y2281500D2*
Y2399000D1*
X1617028Y2417000D1*
X2354500D1*
X2406500Y2469000D1*
X2506500D1*
X2406500Y2569000D2*
X2506500D1*
Y2669000D2*
X2406500D1*
X2354500Y2617000D1*
X1990476D1*
X1890476Y2517000D1*
X1665209D1*
X1650709Y2531500D1*
X1556500D1*
Y4481500D2*
X1481500D1*
X1256500Y4256500D1*
X1756500Y4481500D2*
X1690500Y4547500D1*
X1322500D1*
X1256500Y4481500D1*
Y4356500D2*
X1088500D1*
X1070500Y4338500D1*
Y4037000D1*
X1052500Y4019000D1*
X781500D1*
X1256500Y4481500D2*
Y4356500D1*
X1958472Y3085780D2*
Y3029528D1*
X2219000Y2769000D1*
X601500Y3706000D2*
X720500D1*
X925500Y3501000D1*
X601500Y3081000D2*
X720500D1*
X925500Y2876000D1*
X2469000Y3906500D2*
D16*
X2356500D1*
X2263500Y3999500D1*
Y4232996D1*
X2245500Y4250996D1*
X1790012D1*
X1736508Y4304500D1*
X1403169D1*
X1385169Y4286500D1*
Y3810000D1*
X1367169Y3792000D1*
X1222500D1*
X1204500Y3774000D1*
Y3703000D1*
X1222500Y3685000D1*
X1286500D1*
X1304500Y3667000D1*
Y3060000D1*
X1286500Y3042000D1*
X1106500D1*
X1088500Y3024000D1*
Y2643110D1*
X961429Y2516039D1*
X694000D1*
Y2519000D1*
X569000D2*
X591350Y2496650D1*
Y2431000D1*
X694000Y2144000D2*
D15*
X961429D1*
Y2145961D1*
X569000Y2144000D2*
Y2231000D1*
X589923D1*
X2506500Y1556000D2*
X2554500Y1604000D1*
Y2967732D1*
X2536500Y2985732D1*
X2100996D1*
D41*
X1919000Y3706500D3*
X1844000Y3806500D3*
X1331500Y3031500D3*
X1369000Y3244000D3*
X1344000Y4069000D3*
X1819000Y3506500D3*
X1644000Y3369000D3*
X1969000Y3344000D3*
X1819000D3*
X1981500Y3506500D3*
X1919000Y3706500D3*
X1656500Y2969000D3*
Y3056500D3*
X1931500Y1756500D3*
X2019000Y1881500D3*
X1044000Y3906500D3*
X1369000Y3244000D3*
X1456500Y3006500D3*
Y3244000D3*
X2206500Y4056500D3*
Y4194000D3*
Y4306500D3*
Y4394000D3*
Y4306500D3*
X744500Y2331500D3*
X1442504Y4104500D3*
X1319500Y2975000D3*
X2487500Y2816961D3*
X2059681Y2717000D3*
X1614028Y2631500D3*
X2194500Y3106500D3*
X2297004D3*
X1461311Y2942000D3*
X1156500Y2957000D3*
X2194500Y3154500D3*
X1103500Y4304500D3*
X1436169Y4256500D3*
X1409504Y3567000D3*
X2267000Y2534000D3*
Y1917000D3*
X1599028Y2281500D3*
X1958472Y3085780D3*
X2100996Y2985732D3*
X694000Y2519000D3*
X569000D3*
X694000Y2144000D3*
X569000D3*
X641378Y4711631D2*
D17*
X2404444D1*
X652315Y4686762D2*
X2390187D1*
X657979Y4661894D2*
X2381886D1*
X658956Y4637025D2*
X2378517D1*
X655392Y4612156D2*
X2379688D1*
X646896Y4587287D2*
X2385499D1*
X632345Y4562419D2*
X1290382D1*
X1722628D2*
X2396681D1*
X608761Y4537550D2*
X1128712D1*
X1184298D2*
X1228712D1*
X1784298D2*
X2414942D1*
X429024Y4512681D2*
X475294D1*
X562716D2*
X1100978D1*
X1334737D2*
X1474513D1*
X1812032D2*
X2445704D1*
X2591329D2*
X2608497D1*
X429024Y4487812D2*
X532521D1*
X670479D2*
X1092823D1*
X1320187D2*
X1440772D1*
X1820187D2*
X2608497D1*
X429024Y4462944D2*
X532521D1*
X670479D2*
X1095362D1*
X1317647D2*
X1415919D1*
X1817647D2*
X1929591D1*
X1983419D2*
X1995985D1*
X2117013D2*
X2340675D1*
X2372335D2*
X2608497D1*
X429024Y4438075D2*
X532521D1*
X670479D2*
X1110450D1*
X1202560D2*
X1210438D1*
X1302560D2*
X1391017D1*
X1485128D2*
X1510450D1*
X1602560D2*
X1610438D1*
X1702560D2*
X1710438D1*
X1802560D2*
X1901222D1*
X2117013D2*
X2305372D1*
X2407638D2*
X2608497D1*
X429024Y4413206D2*
X437829D1*
X670479D2*
X955860D1*
X1069161D2*
X1192481D1*
X1320479D2*
X1366163D1*
X1460274D2*
X1530177D1*
X1582784D2*
X1601319D1*
X1711690D2*
X1892872D1*
X2117013D2*
X2296388D1*
X2416622D2*
X2608497D1*
X670479Y4388337D2*
X941896D1*
X1083077D2*
X1192481D1*
X1320479D2*
X1341310D1*
X1435372D2*
X1501368D1*
X1720138D2*
X1895265D1*
X2117013D2*
X2298927D1*
X2414083D2*
X2608497D1*
X662325Y4363468D2*
X938478D1*
X1410519D2*
X1492872D1*
X1717794D2*
X1910060D1*
X2117013D2*
X2315138D1*
X2397872D2*
X2608497D1*
X760470Y4338600D2*
X938478D1*
X1385665D2*
X1495167D1*
X1703048D2*
X1901563D1*
X2107296D2*
X2305714D1*
X2407296D2*
X2608497D1*
X785323Y4313731D2*
X938478D1*
X1151583D2*
X1192481D1*
X1772921D2*
X1892921D1*
X2116524D2*
X2296437D1*
X2416524D2*
X2608497D1*
X655050Y4288862D2*
X716114D1*
X810177D2*
X938917D1*
X1149776D2*
X1201710D1*
X1335909D2*
X1352247D1*
X1797774D2*
X1895069D1*
X2114229D2*
X2298731D1*
X2414229D2*
X2608497D1*
X662032Y4263993D2*
X740968D1*
X835030D2*
X946339D1*
X1137521D2*
X1192970D1*
X1320040D2*
X1352149D1*
X1720040D2*
X1731345D1*
X2278146D2*
X2314552D1*
X2398458D2*
X2444679D1*
X2493331D2*
X2544679D1*
X2593331D2*
X2608468D1*
X429024Y4239125D2*
X449317D1*
X670040D2*
X765821D1*
X859933D2*
X967335D1*
X1180489D2*
X1195005D1*
X1317989D2*
X1352149D1*
X1717989D2*
X1732505D1*
X2295870D2*
X2306060D1*
X429024Y4214256D2*
X534767D1*
X668233D2*
X790675D1*
X884786D2*
X1036476D1*
X1303683D2*
X1352149D1*
X1458126D2*
X1509327D1*
X1811056D2*
X1996534D1*
X2116476D2*
X2230519D1*
X429024Y4189387D2*
X547511D1*
X655489D2*
X815577D1*
X997042D2*
X1036476D1*
X1310958D2*
X1352149D1*
X1418185D2*
X1502052D1*
X1610958D2*
X1622485D1*
X1910030D2*
X1998585D1*
X2114425D2*
X2230519D1*
X429024Y4164518D2*
X827442D1*
X1023556D2*
X1036465D1*
X1319991D2*
X1352149D1*
X1418185D2*
X1493019D1*
X2296505D2*
X2313966D1*
X2398995D2*
X2421534D1*
X429024Y4139650D2*
X817726D1*
X1320382D2*
X1352149D1*
X1475460D2*
X1494874D1*
X1618136D2*
X1651319D1*
X1804073D2*
X1865675D1*
X2296505D2*
X2306384D1*
X2406612D2*
X2483009D1*
X2550997D2*
X2608497D1*
X429024Y4114781D2*
X817481D1*
X1178634D2*
X1208790D1*
X1337862D2*
X1352149D1*
X1641280D2*
X1676173D1*
X1810714D2*
X1996583D1*
X2116378D2*
X2211476D1*
X2416378D2*
X2483009D1*
X2550997D2*
X2608497D1*
X429024Y4089912D2*
X826563D1*
X1024435D2*
X1036467D1*
X1338497D2*
X1352149D1*
X1666134D2*
X1693067D1*
X1819942D2*
X1998438D1*
X2120138D2*
X2211476D1*
X2414571D2*
X2483009D1*
X2550997D2*
X2608497D1*
X429024Y4065043D2*
X438220D1*
X524776D2*
X738233D1*
X824776D2*
X851466D1*
X999532D2*
X1036476D1*
X1338497D2*
X1352149D1*
X1469601D2*
X1493116D1*
X1818233D2*
X2013429D1*
X2144991D2*
X2211476D1*
X2296505D2*
X2313429D1*
X2399581D2*
X2483009D1*
X2550997D2*
X2608497D1*
X541720Y4040175D2*
X721241D1*
X1338497D2*
X1352149D1*
X1418185D2*
X1493116D1*
X1804562D2*
X2006788D1*
X2169894D2*
X2211476D1*
X2296505D2*
X2306775D1*
X2406222D2*
X2483009D1*
X2550997D2*
X2608497D1*
X545382Y4015306D2*
X717628D1*
X1338497D2*
X1352149D1*
X1418185D2*
X1468263D1*
X1604659D2*
X1635987D1*
X2194747D2*
X2211458D1*
X2416329D2*
X2483009D1*
X2550997D2*
X2608497D1*
X538448Y3990437D2*
X724513D1*
X1338448D2*
X1352149D1*
X1418185D2*
X1456495D1*
X2114718D2*
X2125538D1*
X2414718D2*
X2483009D1*
X2550997D2*
X2608497D1*
X429024Y3965568D2*
X448561D1*
X514474D2*
X748536D1*
X814474D2*
X1069483D1*
X1325118D2*
X1352149D1*
X1418185D2*
X1456495D1*
X1719845D2*
X1936866D1*
X1976144D2*
X2012892D1*
X2100069D2*
X2150392D1*
X2400069D2*
X2449366D1*
X2588644D2*
X2608497D1*
X429024Y3940699D2*
X1069483D1*
X1320431D2*
X1352149D1*
X1418185D2*
X1456495D1*
X1718429D2*
X1902882D1*
X2105831D2*
X2175245D1*
X2405831D2*
X2415357D1*
X429024Y3915831D2*
X1069483D1*
X1313692D2*
X1352149D1*
X1418185D2*
X1456495D1*
X1705147D2*
X1893214D1*
X2279513D2*
X2296752D1*
X429024Y3890962D2*
X1069483D1*
X1174679D2*
X1214308D1*
X1298702D2*
X1352149D1*
X1418185D2*
X1462892D1*
X1656563D2*
X1894483D1*
X2279513D2*
X2298091D1*
X429024Y3866093D2*
X532521D1*
X670479D2*
X1069483D1*
X1316378D2*
X1352149D1*
X1418185D2*
X1487354D1*
X2143380D2*
X2160461D1*
X2279513D2*
X2298091D1*
X429024Y3841224D2*
X532521D1*
X670479D2*
X1069483D1*
X1320431D2*
X1352149D1*
X1418185D2*
X1492579D1*
X2536300D2*
X2608497D1*
X429024Y3816356D2*
X532521D1*
X670479D2*
X1047022D1*
X1418185D2*
X1499073D1*
X1613937D2*
X1703321D1*
X1809688D2*
X1893312D1*
X2416134D2*
X2608497D1*
X429024Y3791487D2*
X441341D1*
X670479D2*
X959376D1*
X1411886D2*
X1514942D1*
X1598067D2*
X1640431D1*
X1672579D2*
X1693312D1*
X1819698D2*
X1894337D1*
X2415011D2*
X2608497D1*
X670479Y3766618D2*
X943263D1*
X1104513D2*
X1122517D1*
X1416671D2*
X1496827D1*
X1818673D2*
X1907179D1*
X2401095D2*
X2466017D1*
X2496944D2*
X2608497D1*
X670479Y3741749D2*
X938526D1*
X1104513D2*
X1122517D1*
X1441573D2*
X1492530D1*
X1805929D2*
X2007960D1*
X2405050D2*
X2428614D1*
X2534396D2*
X2608497D1*
X756661Y3716881D2*
X938478D1*
X1104513D2*
X1122517D1*
X1466427D2*
X1498780D1*
X1718722D2*
X1996925D1*
X2544601D2*
X2608497D1*
X781515Y3692012D2*
X938478D1*
X1104513D2*
X1116491D1*
X1325118D2*
X1397169D1*
X1768038D2*
X1997853D1*
X2543771D2*
X2608497D1*
X657979Y3667143D2*
X712306D1*
X806417D2*
X938624D1*
X1337521D2*
X1422071D1*
X1792892D2*
X2011378D1*
X2401583D2*
X2431739D1*
X2531271D2*
X2608497D1*
X659737Y3642274D2*
X737159D1*
X831271D2*
X944532D1*
X1337521D2*
X1497071D1*
X1817794D2*
X2008351D1*
X2404659D2*
X2428956D1*
X2534005D2*
X2608497D1*
X429024Y3617406D2*
X444659D1*
X669503D2*
X762062D1*
X856124D2*
X962696D1*
X1337521D2*
X1492530D1*
X1718868D2*
X1748536D1*
X1842647D2*
X1997022D1*
X2544503D2*
X2608497D1*
X429024Y3592537D2*
X533888D1*
X669112D2*
X786915D1*
X881026D2*
X1036476D1*
X1337521D2*
X1368165D1*
X1706563D2*
X1773438D1*
X1867501D2*
X1997706D1*
X2543917D2*
X2608497D1*
X429024Y3567668D2*
X544679D1*
X658321D2*
X811769D1*
X988839D2*
X1036476D1*
X1337521D2*
X1360499D1*
X1696603D2*
X1798292D1*
X1892403D2*
X2010938D1*
X2402071D2*
X2431300D1*
X2531710D2*
X2608497D1*
X429024Y3542799D2*
X578321D1*
X624679D2*
X829981D1*
X1021017D2*
X1036460D1*
X1337521D2*
X1367286D1*
X1715694D2*
X1823146D1*
X1917257D2*
X2008790D1*
X2404220D2*
X2608497D1*
X429024Y3517930D2*
X818556D1*
X1337521D2*
X1492530D1*
X1720479D2*
X1847999D1*
X1942110D2*
X1997120D1*
X2415841D2*
X2608497D1*
X429024Y3493062D2*
X441927D1*
X521065D2*
X741896D1*
X1337521D2*
X1498243D1*
X1714767D2*
X1872901D1*
X1966964D2*
X1997560D1*
X2416964D2*
X2608497D1*
X540548Y3468193D2*
X722462D1*
X1026534D2*
X1036471D1*
X1337521D2*
X1517091D1*
X1693673D2*
X1897755D1*
X2434396D2*
X2608497D1*
X545479Y3443324D2*
X717481D1*
X1005245D2*
X1036476D1*
X1337521D2*
X1497511D1*
X1638497D2*
X1922608D1*
X539962Y3418455D2*
X723048D1*
X1337521D2*
X1492481D1*
X1638497D2*
X1727931D1*
X520382Y3393587D2*
X742628D1*
X1337521D2*
X1497999D1*
X1638497D2*
X1711427D1*
X540304Y3368718D2*
X722706D1*
X1337521D2*
X1517823D1*
X1638497D2*
X1710987D1*
X1779024D2*
X2010011D1*
X545479Y3343849D2*
X717481D1*
X1337521D2*
X1497755D1*
X1638497D2*
X1710987D1*
X1779024D2*
X2009620D1*
X540157Y3318980D2*
X722804D1*
X1337521D2*
X1492481D1*
X1638497D2*
X1710987D1*
X429024Y3294112D2*
X443000D1*
X519942D2*
X743019D1*
X819942D2*
X1097755D1*
X1337521D2*
X1497755D1*
X1638497D2*
X1710987D1*
X429024Y3269243D2*
X1117872D1*
X1337521D2*
X1517872D1*
X1694454D2*
X1711026D1*
X1815011D2*
X2009571D1*
X429024Y3244374D2*
X532521D1*
X670479D2*
X1118702D1*
X1337521D2*
X1518702D1*
X1815011D2*
X2010060D1*
X2279513D2*
X2291587D1*
X429024Y3219505D2*
X532521D1*
X670479D2*
X1098048D1*
X1337521D2*
X1386573D1*
X2279513D2*
X2297517D1*
X429024Y3194636D2*
X532521D1*
X670479D2*
X1092481D1*
X1337521D2*
X1361671D1*
X2279513D2*
X2297230D1*
X429024Y3169768D2*
X444854D1*
X670479D2*
X962892D1*
X1062130D2*
X1071133D1*
X1337521D2*
X1355567D1*
X2279513D2*
X2309132D1*
X2403878D2*
X2431593D1*
X670479Y3144899D2*
X944581D1*
X1337521D2*
X1355567D1*
X2402462D2*
X2608497D1*
X670479Y3120030D2*
X938624D1*
X1337521D2*
X1355567D1*
X2415401D2*
X2608497D1*
X753390Y3095161D2*
X938478D1*
X1104513D2*
X1192530D1*
X1337521D2*
X1355567D1*
X1441573D2*
X1492530D1*
X1620479D2*
X1747022D1*
X2415890D2*
X2608497D1*
X778243Y3070293D2*
X938478D1*
X1337521D2*
X1355567D1*
X1441573D2*
X1497267D1*
X1627267D2*
X1739503D1*
X1903976D2*
X1912110D1*
X2104317D2*
X2162843D1*
X2404317D2*
X2608497D1*
X660177Y3045424D2*
X709034D1*
X803146D2*
X938526D1*
X1333810D2*
X1355567D1*
X1441573D2*
X1516261D1*
X1638497D2*
X1714601D1*
X1903976D2*
X1924464D1*
X1992452D2*
X2193507D1*
X2595772D2*
X2608464D1*
X657442Y3020555D2*
X733888D1*
X827999D2*
X943165D1*
X1331319D2*
X1355567D1*
X1441573D2*
X1498536D1*
X1638497D2*
X1689991D1*
X1903976D2*
X1925782D1*
X2014474D2*
X2067677D1*
X2134298D2*
X2193507D1*
X429024Y2995686D2*
X441244D1*
X668868D2*
X758790D1*
X852853D2*
X959181D1*
X1184786D2*
X1192508D1*
X1441573D2*
X1492530D1*
X1638497D2*
X1683009D1*
X1758956D2*
X1783009D1*
X1903976D2*
X1945265D1*
X2039376D2*
X2053077D1*
X429024Y2970818D2*
X533302D1*
X669698D2*
X783644D1*
X877706D2*
X1036476D1*
X1638497D2*
X1683009D1*
X1750997D2*
X1783009D1*
X1903976D2*
X1970118D1*
X429024Y2945949D2*
X542481D1*
X660519D2*
X808497D1*
X977804D2*
X1036476D1*
X1903976D2*
X1995021D1*
X2127560D2*
X2520509D1*
X429024Y2921080D2*
X570167D1*
X632833D2*
X832521D1*
X1018478D2*
X1036455D1*
X1903976D2*
X2019874D1*
X2113985D2*
X2520509D1*
X429024Y2896211D2*
X819435D1*
X1903976D2*
X2044728D1*
X2138839D2*
X2520509D1*
X429024Y2871343D2*
X816651D1*
X1903976D2*
X2069630D1*
X2163692D2*
X2520509D1*
X429024Y2846474D2*
X822901D1*
X1028097D2*
X1036474D1*
X1298019D2*
X1324415D1*
X1418526D2*
X1427302D1*
X1903976D2*
X2094483D1*
X2188595D2*
X2449073D1*
X429024Y2821605D2*
X841603D1*
X1009396D2*
X1036476D1*
X1121505D2*
X1170509D1*
X1238497D2*
X1299562D1*
X1393673D2*
X1440187D1*
X1903976D2*
X1997218D1*
X2040792D2*
X2084620D1*
X2253341D2*
X2438722D1*
X429024Y2796736D2*
X1036476D1*
X1121505D2*
X1170509D1*
X1238497D2*
X1274708D1*
X1368771D2*
X1445460D1*
X1903976D2*
X1967823D1*
X2276388D2*
X2420216D1*
X429024Y2771867D2*
X1036476D1*
X1121505D2*
X1170509D1*
X1343917D2*
X1445313D1*
X1597872D2*
X1660450D1*
X1777511D2*
X1835987D1*
X1903976D2*
X1960548D1*
X2282931D2*
X2395362D1*
X2501339D2*
X2520509D1*
X429024Y2746999D2*
X1036476D1*
X1121505D2*
X1170509D1*
X1319063D2*
X1445313D1*
X1612862D2*
X1660450D1*
X1777511D2*
X1835987D1*
X1903976D2*
X1964991D1*
X2464571D2*
X2520509D1*
X429024Y2722130D2*
X687599D1*
X1121505D2*
X1170509D1*
X1315011D2*
X1445313D1*
X1614229D2*
X1660450D1*
X1777511D2*
X1825099D1*
X1903976D2*
X1985792D1*
X2439962D2*
X2473048D1*
X429024Y2697261D2*
X662696D1*
X1121505D2*
X1170509D1*
X1315011D2*
X1445313D1*
X1603341D2*
X1668116D1*
X1769894D2*
X1800196D1*
X1894308D2*
X1968116D1*
X429024Y2672392D2*
X637843D1*
X731954D2*
X1055519D1*
X1121505D2*
X1177345D1*
X1328438D2*
X1445313D1*
X1638644D2*
X1660597D1*
X1869454D2*
X1960597D1*
X2077413D2*
X2342579D1*
X429024Y2647524D2*
X622706D1*
X707052D2*
X1047267D1*
X1121505D2*
X1200294D1*
X1333028D2*
X1445313D1*
X1844552D2*
X1964747D1*
X429024Y2622655D2*
X622511D1*
X690499D2*
X1022413D1*
X1113644D2*
X1198683D1*
X1333028D2*
X1445313D1*
X1662179D2*
X1685011D1*
X1819698D2*
X1949073D1*
X429024Y2597786D2*
X622511D1*
X690499D2*
X933692D1*
X989181D2*
X997524D1*
X1088790D2*
X1175733D1*
X1333028D2*
X1445313D1*
X1794845D2*
X1924220D1*
X429024Y2572917D2*
X622511D1*
X690499D2*
X895021D1*
X1063937D2*
X1151075D1*
X1333028D2*
X1445313D1*
X1777413D2*
X1899366D1*
X2294942D2*
X2342628D1*
X429024Y2548049D2*
X530177D1*
X607833D2*
X622470D1*
X732833D2*
X879591D1*
X1043282D2*
X1143995D1*
X1333028D2*
X1445313D1*
X2313839D2*
X2346192D1*
X429024Y2523180D2*
X520167D1*
X1049190D2*
X1143995D1*
X1333028D2*
X1445313D1*
X1943722D2*
X1984278D1*
X2053731D2*
X2087403D1*
X2150606D2*
X2187403D1*
X2314718D2*
X2362989D1*
X517257Y2498311D2*
X524899D1*
X1047628D2*
X1143995D1*
X1333028D2*
X1445313D1*
X1604122D2*
X1636866D1*
X1918819D2*
X1968751D1*
X2299288D2*
X2349952D1*
X705831Y2473442D2*
X884718D1*
X1038106D2*
X1143995D1*
X1326974D2*
X1445313D1*
X1596163D2*
X1660646D1*
X1777364D2*
X1960646D1*
X2282833D2*
X2342677D1*
X690499Y2448573D2*
X906300D1*
X1016524D2*
X1143995D1*
X1312374D2*
X1445313D1*
X1612374D2*
X1664308D1*
X1773653D2*
X1964308D1*
X2279513D2*
X2339015D1*
X690499Y2423705D2*
X1143995D1*
X1314474D2*
X1445313D1*
X690499Y2398836D2*
X906788D1*
X1016085D2*
X1143995D1*
X1336202D2*
X1445313D1*
X690499Y2373967D2*
X884962D1*
X1037911D2*
X1143995D1*
X1350899D2*
X1445313D1*
X1633028D2*
X1660694D1*
X1777315D2*
X1960694D1*
X2182784D2*
X2342677D1*
X487325Y2349098D2*
X524854D1*
X690499D2*
X875294D1*
X1047530D2*
X1143995D1*
X1351046D2*
X1445313D1*
X1633028D2*
X1664112D1*
X1773897D2*
X1964112D1*
X2179708D2*
X2339552D1*
X429024Y2324230D2*
X522706D1*
X690499D2*
X873634D1*
X1049239D2*
X1143995D1*
X1351046D2*
X1445313D1*
X1633028D2*
X1663722D1*
X514864Y2299361D2*
X530372D1*
X690499D2*
X879444D1*
X1043429D2*
X1143995D1*
X1351046D2*
X1446729D1*
X690499Y2274492D2*
X894679D1*
X1028146D2*
X1143995D1*
X1345675D2*
X1466456D1*
X1777267D2*
X1960743D1*
X2077267D2*
X2342726D1*
X690499Y2249623D2*
X932521D1*
X990353D2*
X1143995D1*
X1321456D2*
X1491310D1*
X1774093D2*
X1963917D1*
X2074093D2*
X2340089D1*
X690499Y2224755D2*
X925587D1*
X997286D2*
X1143995D1*
X1314620D2*
X1498390D1*
X690499Y2199886D2*
X892530D1*
X1030343D2*
X1143995D1*
X1044405Y2175017D2*
X1143995D1*
X1777218D2*
X1960792D1*
X2077218D2*
X2342774D1*
X493038Y2150148D2*
X520411D1*
X1049386D2*
X1143995D1*
X1774239D2*
X1963722D1*
X2074239D2*
X2340577D1*
X429024Y2125280D2*
X523927D1*
X614083D2*
X622514D1*
X1046944D2*
X1143995D1*
X1314669D2*
X1498341D1*
X429024Y2100411D2*
X550294D1*
X587716D2*
X622511D1*
X712716D2*
X886524D1*
X1036349D2*
X1143995D1*
X429024Y2075542D2*
X622511D1*
X690499D2*
X910353D1*
X1012521D2*
X1146974D1*
X1777120D2*
X1960841D1*
X2182638D2*
X2342872D1*
X429024Y2050673D2*
X622511D1*
X690499D2*
X1169239D1*
X1774435D2*
X1963575D1*
X2180196D2*
X2345313D1*
X429024Y2025804D2*
X622511D1*
X690499D2*
X1130421D1*
X1182589D2*
X1630421D1*
X1757198D2*
X1792921D1*
X1845089D2*
X1892921D1*
X1945089D2*
X1980812D1*
X2165255D2*
X2360206D1*
X429024Y2000936D2*
X622511D1*
X690499D2*
X1101466D1*
X1315011D2*
X1507960D1*
X1711544D2*
X1763966D1*
X2174044D2*
X2520509D1*
X429024Y1976067D2*
X622511D1*
X690499D2*
X1092921D1*
X1315011D2*
X1498438D1*
X1720089D2*
X1755421D1*
X2182589D2*
X2520509D1*
X429024Y1951198D2*
X622511D1*
X690499D2*
X1095118D1*
X1315011D2*
X1500880D1*
X1717843D2*
X1757618D1*
X2180343D2*
X2233009D1*
X2300997D2*
X2520509D1*
X429024Y1926329D2*
X622511D1*
X690499D2*
X1109718D1*
X1315011D2*
X1466798D1*
X2315060D2*
X2520509D1*
X429024Y1901461D2*
X622511D1*
X690499D2*
X1101759D1*
X1304659D2*
X1441896D1*
X2313351D2*
X2520509D1*
X429024Y1876592D2*
X622511D1*
X690499D2*
X1092970D1*
X1314522D2*
X1417042D1*
X1720040D2*
X2241505D1*
X2292501D2*
X2520509D1*
X429024Y1851723D2*
X622511D1*
X690499D2*
X1094972D1*
X1312276D2*
X1392188D1*
X1486251D2*
X1500685D1*
X1718038D2*
X2520509D1*
X455782Y1826854D2*
X622511D1*
X690499D2*
X1109229D1*
X1203780D2*
X1217091D1*
X1295919D2*
X1367286D1*
X1461397D2*
X1517091D1*
X1595919D2*
X1609209D1*
X1703780D2*
X2095655D1*
X2142354D2*
X2520509D1*
X492354Y1801986D2*
X622511D1*
X690499D2*
X1102101D1*
X1304269D2*
X1342433D1*
X1436544D2*
X1508692D1*
X1604269D2*
X1660450D1*
X1777511D2*
X1971192D1*
X2173409D2*
X2520509D1*
X506515Y1777117D2*
X622511D1*
X690499D2*
X1093019D1*
X1411642D2*
X1498585D1*
X1777511D2*
X1961085D1*
X2182442D2*
X2520509D1*
X511056Y1752248D2*
X622511D1*
X690499D2*
X1094825D1*
X1386788D2*
X1500538D1*
X1777511D2*
X1963038D1*
X2180685D2*
X2520509D1*
X507784Y1727379D2*
X615479D1*
X690499D2*
X1108741D1*
X1204269D2*
X1216513D1*
X1361935D2*
X1516505D1*
X2234688D2*
X2520509D1*
X495431Y1702510D2*
X597901D1*
X685860D2*
X1209083D1*
X1337081D2*
X1509083D1*
X2249825D2*
X2520509D1*
X665499Y1677642D2*
X1198634D1*
X1314376D2*
X1498634D1*
X2250021D2*
X2520509D1*
X429024Y1652773D2*
X465870D1*
X790890D2*
X1200392D1*
X1312618D2*
X1500392D1*
X2250021D2*
X2520509D1*
X429024Y1627904D2*
X465870D1*
X823116D2*
X1215919D1*
X1759591D2*
X1897511D1*
X1965499D2*
X1978419D1*
X2059591D2*
X2070778D1*
X2167257D2*
X2182002D1*
X2250021D2*
X2520509D1*
X429024Y1603035D2*
X465870D1*
X1629073D2*
X1640285D1*
X1765987D2*
X1897511D1*
X2172726D2*
X2181990D1*
X2250021D2*
X2364356D1*
X2448604D2*
X2464356D1*
X429024Y1578167D2*
X465870D1*
X1314278D2*
X1498731D1*
X1614278D2*
X1661231D1*
X1776778D2*
X1897511D1*
X2250021D2*
X2346632D1*
X429024Y1553298D2*
X465870D1*
X1312765D2*
X1500196D1*
X1612765D2*
X1662696D1*
X1775265D2*
X1897511D1*
X2250021D2*
X2342579D1*
X429024Y1528429D2*
X465870D1*
X818380D2*
X1138185D1*
X1297628D2*
X1515382D1*
X1597628D2*
X1677882D1*
X1760128D2*
X1897511D1*
X1965499D2*
X1977882D1*
X2060128D2*
X2070277D1*
X2167696D2*
X2181990D1*
X429024Y1503560D2*
X465870D1*
X665499D2*
X691017D1*
X767306D2*
X1103126D1*
X1303097D2*
X1509913D1*
X1603097D2*
X1672413D1*
X1765597D2*
X1897511D1*
X2172384D2*
X2187940D1*
X673653Y1478692D2*
X1093263D1*
X1314181D2*
X1498829D1*
X1614181D2*
X1661329D1*
X1776681D2*
X1897511D1*
X2182247D2*
X2212745D1*
X499239Y1453823D2*
X604640D1*
X698507D2*
X1094386D1*
X1312911D2*
X1500050D1*
X1612911D2*
X1662550D1*
X1775411D2*
X1897511D1*
X2181075D2*
X2342530D1*
X509249Y1428954D2*
X629298D1*
X723360D2*
X1107325D1*
X1298165D2*
X1514796D1*
X1598165D2*
X1677296D1*
X1760665D2*
X1897511D1*
X1965499D2*
X1977296D1*
X2168185D2*
X2348780D1*
X2591134D2*
X2608497D1*
X510714Y1404085D2*
X654151D1*
X748263D2*
X1170509D1*
X1302706D2*
X1510304D1*
X1602706D2*
X1665968D1*
X1771993D2*
X1897511D1*
X2171993D2*
X2365675D1*
X2547335D2*
X2608497D1*
X504269Y1379217D2*
X679005D1*
X773116D2*
X1170509D1*
X1314083D2*
X1498927D1*
X1614083D2*
X1655860D1*
X1782149D2*
X1897511D1*
X2182149D2*
X2347071D1*
X2565938D2*
X2608497D1*
X487130Y1354348D2*
X703907D1*
X797970D2*
X1170509D1*
X1313058D2*
X1499903D1*
X1613058D2*
X1656788D1*
X1781222D2*
X1897511D1*
X2181222D2*
X2342530D1*
X2570479D2*
X2608497D1*
X429024Y1329479D2*
X581202D1*
X707784D2*
X728761D1*
X815792D2*
X1170509D1*
X1298702D2*
X1514308D1*
X1598702D2*
X1669386D1*
X1768624D2*
X1897560D1*
X2205587D2*
X2348536D1*
X2564474D2*
X2608497D1*
X429024Y1304610D2*
X545997D1*
X816524D2*
X884815D1*
X903197D2*
X1170509D1*
X1302267D2*
X1510743D1*
X1602267D2*
X1666358D1*
X1771651D2*
X1911329D1*
X2218966D2*
X2366310D1*
X2546651D2*
X2608497D1*
X429024Y1279741D2*
X525782D1*
X816524D2*
X843653D1*
X944356D2*
X1045997D1*
X1313985D2*
X1499024D1*
X1613985D2*
X1655958D1*
X1782052D2*
X1955958D1*
X2219015D2*
X2347267D1*
X2565743D2*
X2608497D1*
X429024Y1254873D2*
X513331D1*
X816524D2*
X834012D1*
X953976D2*
X1045997D1*
X1313204D2*
X1499806D1*
X1613204D2*
X1656642D1*
X1781368D2*
X1956642D1*
X2219015D2*
X2342530D1*
X2570479D2*
X2608497D1*
X429024Y1230004D2*
X506495D1*
X816524D2*
X836061D1*
X951974D2*
X1045997D1*
X2219015D2*
X2348243D1*
X2564718D2*
X2608497D1*
X429024Y1205135D2*
X504396D1*
X816524D2*
X833524D1*
X954513D2*
X1045997D1*
X1167013D2*
X1178417D1*
X2211104D2*
X2366993D1*
X2545968D2*
X2608497D1*
X429024Y1180266D2*
X506788D1*
X816524D2*
X833524D1*
X954513D2*
X1047804D1*
X1165206D2*
X1205079D1*
X2184444D2*
X2347511D1*
X2565499D2*
X2608497D1*
X429024Y1155398D2*
X514015D1*
X816524D2*
X833524D1*
X954513D2*
X1046974D1*
X1166036D2*
X2342481D1*
X2570479D2*
X2608497D1*
X429024Y1130529D2*
X526905D1*
X816524D2*
X833524D1*
X954513D2*
X1058106D1*
X1154903D2*
X2347999D1*
X2564962D2*
X2608497D1*
X429024Y1105660D2*
X547804D1*
X816524D2*
X2367726D1*
X2545284D2*
X2608497D1*
X435128Y1080791D2*
X584864D1*
X704122D2*
X748487D1*
X816524D2*
X1529737D1*
X1608272D2*
X1629737D1*
X1708272D2*
X1738868D1*
X1886837D2*
X2188722D1*
X2236983D2*
X2347706D1*
X2565304D2*
X2608497D1*
X488839Y1055923D2*
X748487D1*
X816524D2*
X1510060D1*
X1727950D2*
X1738868D1*
X1886837D2*
X2153468D1*
X2272286D2*
X2342481D1*
X2570479D2*
X2608497D1*
X505001Y1031054D2*
X748487D1*
X816524D2*
X1504981D1*
X1886837D2*
X2141261D1*
X2284444D2*
X2347804D1*
X2565206D2*
X2608497D1*
X510860Y1006185D2*
X748487D1*
X816524D2*
X1510450D1*
X1727560D2*
X1738868D1*
X1886837D2*
X2139161D1*
X2286544D2*
X2367921D1*
X2545089D2*
X2608497D1*
X508810Y981316D2*
X748487D1*
X816524D2*
X1530958D1*
X1607052D2*
X1626466D1*
X1711544D2*
X1738868D1*
X1886837D2*
X2146095D1*
X2279610D2*
X2347950D1*
X2565060D2*
X2608497D1*
X498116Y956447D2*
X743360D1*
X816524D2*
X1607667D1*
X1730343D2*
X1738881D1*
X1886837D2*
X2166163D1*
X2259591D2*
X2342481D1*
X2570479D2*
X2608497D1*
X638058Y931579D2*
X718507D1*
X811544D2*
X948487D1*
X1003683D2*
X1602589D1*
X1735421D2*
X1753956D1*
X1871749D2*
X2153956D1*
X2271749D2*
X2347560D1*
X2565450D2*
X2608497D1*
X429024Y906710D2*
X465870D1*
X638058D2*
X679737D1*
X787716D2*
X902931D1*
X1049239D2*
X1607618D1*
X1730392D2*
X1741484D1*
X1884249D2*
X2141456D1*
X2284249D2*
X2367237D1*
X2570479D2*
X2608497D1*
X429024Y881841D2*
X465870D1*
X819894D2*
X883497D1*
X1068673D2*
X1626271D1*
X1711739D2*
X1739112D1*
X1886642D2*
X2139112D1*
X2286642D2*
X2348194D1*
X2570479D2*
X2608497D1*
X429024Y856972D2*
X465870D1*
X834396D2*
X873585D1*
X1078585D2*
X1607911D1*
X1730099D2*
X1745779D1*
X1879952D2*
X2145753D1*
X2279952D2*
X2342530D1*
X2570479D2*
X2608497D1*
X429024Y832104D2*
X465870D1*
X838839D2*
X870411D1*
X1081759D2*
X1602589D1*
X1735421D2*
X1765284D1*
X1860421D2*
X2165284D1*
X2260421D2*
X2347315D1*
X2570479D2*
X2608497D1*
X429024Y807235D2*
X465870D1*
X835128D2*
X873292D1*
X1078878D2*
X1607374D1*
X1730636D2*
X1767335D1*
X1858370D2*
X2167335D1*
X2258370D2*
X2366505D1*
X2570479D2*
X2608497D1*
X429024Y782366D2*
X465870D1*
X821749D2*
X882862D1*
X1069308D2*
X1602589D1*
X1735421D2*
X1746569D1*
X1879171D2*
X2146534D1*
X2279171D2*
X2608497D1*
X429024Y757497D2*
X465870D1*
X638058D2*
X671974D1*
X786300D2*
X901661D1*
X1050509D2*
X1602589D1*
X1886495D2*
X2139259D1*
X2286495D2*
X2608497D1*
X638058Y732629D2*
X944093D1*
X1008077D2*
X1602589D1*
X1884688D2*
X2141017D1*
X2284688D2*
X2608497D1*
X496651Y707760D2*
X1602589D1*
X1735421D2*
X1752735D1*
X1872970D2*
X2152735D1*
X2272970D2*
X2608497D1*
X508272Y682891D2*
X1532716D1*
X1735421D2*
X1768360D1*
X1857394D2*
X2138868D1*
X2286886D2*
X2608497D1*
X511007Y658022D2*
X1511036D1*
X1726974D2*
X1746925D1*
X1878829D2*
X2138868D1*
X2286886D2*
X2608497D1*
X598409Y633154D2*
X1505030D1*
X1886397D2*
X2138868D1*
X2286886D2*
X2439112D1*
X2597872D2*
X2608480D1*
X626241Y608285D2*
X1509571D1*
X1728438D2*
X1740870D1*
X1884884D2*
X2138868D1*
X2286886D2*
X2411280D1*
X643136Y583416D2*
X1528175D1*
X1609835D2*
X1628175D1*
X1709835D2*
X1752247D1*
X1873507D2*
X2138868D1*
X2286886D2*
X2394386D1*
X653341Y558547D2*
X1784083D1*
X1841622D2*
X2138868D1*
X2286886D2*
X2384181D1*
X658370Y533678D2*
X2379151D1*
X658761Y508810D2*
X2378761D1*
X654610Y483941D2*
X2382911D1*
X645382Y459072D2*
X2392091D1*
X629903Y434203D2*
X2407618D1*
X1618997Y595705D2*
X1613050Y588584D1*
X1605522Y582019D1*
X1597030Y576759D1*
X1587798Y572943D1*
X1578071Y570673D1*
X1568104Y570007D1*
X1558161Y570963D1*
X1548504Y573516D1*
X1539387Y577599D1*
X1531052Y583104D1*
X1523718Y589885D1*
X1517578Y597765D1*
X1512795Y606534D1*
X1509495Y615962D1*
X1507765Y625800D1*
X1507650Y635789D1*
X1509153Y645664D1*
X1512236Y655165D1*
X1516815Y664043D1*
X1522772Y672061D1*
X1529948Y679010D1*
X1538154Y684705D1*
X1547174Y688997D1*
X1556770Y691772D1*
X1566689Y692957D1*
X1576668Y692520D1*
X1586445Y690474D1*
X1595762Y686872D1*
X1604373Y681809D1*
X1605105Y681272D1*
X1605098Y795402D1*
X1616210Y795491D1*
X1611243Y804159D1*
X1607688Y813494D1*
X1605631Y823270D1*
X1605122Y833247D1*
X1606175Y843181D1*
X1608763Y852830D1*
X1612824Y861957D1*
X1618257Y870340D1*
X1624931Y877774D1*
X1629213Y881492D1*
X1623815Y886315D1*
X1617303Y893940D1*
X1612063Y902489D1*
X1608226Y911753D1*
X1605885Y921504D1*
X1605098Y931500D1*
X1605885Y941496D1*
X1608226Y951247D1*
X1612063Y960511D1*
X1617303Y969060D1*
X1623815Y976685D1*
X1631178Y982991D1*
X1625513Y988013D1*
X1619004Y995712D1*
X1613050Y988584D1*
X1605522Y982019D1*
X1597030Y976759D1*
X1587798Y972943D1*
X1578071Y970673D1*
X1568104Y970007D1*
X1558161Y970963D1*
X1548504Y973516D1*
X1539387Y977599D1*
X1531052Y983104D1*
X1523718Y989885D1*
X1517578Y997765D1*
X1512795Y1006534D1*
X1509495Y1015962D1*
X1507765Y1025800D1*
X1507650Y1035789D1*
X1509153Y1045664D1*
X1512236Y1055165D1*
X1516815Y1064043D1*
X1522772Y1072061D1*
X1529948Y1079010D1*
X1538154Y1084705D1*
X1547174Y1088997D1*
X1556770Y1091772D1*
X1566689Y1092957D1*
X1576668Y1092520D1*
X1586445Y1090474D1*
X1595762Y1086872D1*
X1604373Y1081809D1*
X1612051Y1075419D1*
X1618593Y1067870D1*
X1618991Y1067303D1*
X1625513Y1074987D1*
X1632851Y1081255D1*
X1641080Y1086297D1*
X1649995Y1089990D1*
X1659379Y1092243D1*
X1669000Y1093000D1*
X1678621Y1092243D1*
X1688005Y1089990D1*
X1696920Y1086297D1*
X1705149Y1081255D1*
X1712487Y1074987D1*
X1718755Y1067649D1*
X1723797Y1059420D1*
X1727490Y1050505D1*
X1729743Y1041121D1*
X1730500Y1031500D1*
X1729743Y1021879D1*
X1727490Y1012495D1*
X1723797Y1003580D1*
X1718755Y995351D1*
X1712487Y988013D1*
X1706793Y983042D1*
X1714185Y976685D1*
X1720697Y969060D1*
X1725937Y960511D1*
X1729774Y951247D1*
X1732115Y941496D1*
X1732902Y931500D1*
X1732115Y921504D1*
X1729774Y911753D1*
X1725937Y902489D1*
X1720697Y893940D1*
X1714185Y886315D1*
X1708761Y881538D1*
X1715014Y875841D1*
X1721362Y868128D1*
X1726431Y859520D1*
X1730096Y850226D1*
X1732268Y840476D1*
X1732902Y831500D1*
X1732121Y821541D1*
X1729797Y811825D1*
X1725988Y802590D1*
X1721715Y795401D1*
X1732902Y795402D1*
Y667598D1*
X1718790D1*
X1723797Y659420D1*
X1727490Y650505D1*
X1729743Y641121D1*
X1730500Y631500D1*
X1729743Y621879D1*
X1727490Y612495D1*
X1723797Y603580D1*
X1718755Y595351D1*
X1712487Y588013D1*
X1705149Y581745D1*
X1696920Y576703D1*
X1688005Y573010D1*
X1678621Y570757D1*
X1669000Y570000D1*
X1659379Y570757D1*
X1649995Y573010D1*
X1641080Y576703D1*
X1632851Y581745D1*
X1625513Y588013D1*
X1619004Y595712D1*
X1061004Y1301996D2*
X1164496D1*
Y1186004D1*
X1160932D1*
X1163279Y1177817D1*
X1164329Y1170396D1*
X1164281Y1161006D1*
X1163154Y1153597D1*
X1161082Y1146394D1*
X1158097Y1139519D1*
X1154252Y1133086D1*
X1149608Y1127203D1*
X1144245Y1121968D1*
X1138252Y1117468D1*
X1131728Y1113778D1*
X1124783Y1110961D1*
X1117532Y1109063D1*
X1110098Y1108116D1*
X1102603Y1108135D1*
X1095173Y1109121D1*
X1087933Y1111056D1*
X1081002Y1113910D1*
X1074498Y1117633D1*
X1068528Y1122164D1*
X1063191Y1127426D1*
X1058579Y1133334D1*
X1054766Y1139786D1*
X1051818Y1146677D1*
X1049782Y1153890D1*
X1048694Y1161305D1*
X1048572Y1168799D1*
X1049416Y1176246D1*
X1051214Y1183522D1*
X1051996Y1186004D1*
X1048504D1*
Y1301996D1*
X1061004D1*
X1706497Y4445705D2*
X1700550Y4438584D1*
X1693022Y4432019D1*
X1692296Y4431506D1*
X1699987Y4424987D1*
X1706255Y4417649D1*
X1711297Y4409420D1*
X1714990Y4400505D1*
X1717243Y4391121D1*
X1718000Y4381500D1*
X1717243Y4371879D1*
X1714990Y4362495D1*
X1711297Y4353580D1*
X1706255Y4345351D1*
X1699987Y4338013D1*
X1696732Y4335004D1*
X1738901Y4334906D1*
X1745933Y4333507D1*
X1752444Y4330506D1*
X1758075Y4326067D1*
X1802649Y4281493D1*
X1900315Y4281496D1*
X1898010Y4287495D1*
X1895757Y4296879D1*
X1895000Y4306500D1*
X1895757Y4316121D1*
X1898010Y4325505D1*
X1901703Y4334420D1*
X1906745Y4342649D1*
X1913013Y4349987D1*
X1920712Y4356496D1*
X1914747Y4361345D1*
X1907988Y4368700D1*
X1902509Y4377052D1*
X1898454Y4386181D1*
X1895930Y4395846D1*
X1895004Y4405792D1*
X1895701Y4415757D1*
X1898001Y4425477D1*
X1901845Y4434697D1*
X1907131Y4443173D1*
X1913719Y4450681D1*
X1921435Y4457024D1*
X1930077Y4462034D1*
X1939416Y4465579D1*
X1949205Y4467566D1*
X1959187Y4467941D1*
X1969098Y4466696D1*
X1978677Y4463862D1*
X1987671Y4459516D1*
X1995842Y4453770D1*
X1998506Y4451403D1*
X1998504Y4464496D1*
X2114496D1*
Y4348504D1*
X2096479D1*
X2103420Y4340589D1*
X2108175Y4332830D1*
X2111658Y4324422D1*
X2113782Y4315573D1*
X2114496Y4306500D1*
X2113782Y4297427D1*
X2111658Y4288578D1*
X2108793Y4281511D1*
X2247893Y4281402D1*
X2254925Y4280003D1*
X2261436Y4277002D1*
X2267067Y4272563D1*
X2286692Y4252804D1*
X2290676Y4246843D1*
X2293157Y4240116D1*
X2294000Y4232996D1*
Y4012146D1*
X2298683Y4011050D1*
X2300106Y4020039D1*
X2302919Y4028694D1*
X2307050Y4036803D1*
X2312399Y4044165D1*
X2318835Y4050601D1*
X2327144Y4056480D1*
X2318835Y4062399D1*
X2312399Y4068835D1*
X2307050Y4076197D1*
X2302919Y4084306D1*
X2300106Y4092961D1*
X2298683Y4101950D1*
Y4111050D1*
X2300106Y4120039D1*
X2302919Y4128694D1*
X2307050Y4136803D1*
X2312399Y4144165D1*
X2318835Y4150601D1*
X2327144Y4156480D1*
X2318835Y4162399D1*
X2312399Y4168835D1*
X2307050Y4176197D1*
X2302919Y4184306D1*
X2300106Y4192961D1*
X2298683Y4201950D1*
Y4211050D1*
X2300106Y4220039D1*
X2302919Y4228694D1*
X2307050Y4236803D1*
X2312399Y4244165D1*
X2318835Y4250601D1*
X2327144Y4256480D1*
X2318835Y4262399D1*
X2312399Y4268835D1*
X2307050Y4276197D1*
X2302919Y4284306D1*
X2300106Y4292961D1*
X2298683Y4301950D1*
Y4311050D1*
X2300106Y4320039D1*
X2302919Y4328694D1*
X2307050Y4336803D1*
X2312399Y4344165D1*
X2318835Y4350601D1*
X2327144Y4356480D1*
X2318835Y4362399D1*
X2312399Y4368835D1*
X2307050Y4376197D1*
X2302919Y4384306D1*
X2300106Y4392961D1*
X2298683Y4401950D1*
Y4411050D1*
X2300106Y4420039D1*
X2302919Y4428694D1*
X2307050Y4436803D1*
X2312399Y4444165D1*
X2318835Y4450601D1*
X2326197Y4455950D1*
X2334306Y4460081D1*
X2342961Y4462894D1*
X2351950Y4464317D1*
X2361050D1*
X2370039Y4462894D1*
X2378694Y4460081D1*
X2386803Y4455950D1*
X2394165Y4450601D1*
X2400601Y4444165D1*
X2405950Y4436803D1*
X2410081Y4428694D1*
X2412894Y4420039D1*
X2414317Y4411050D1*
Y4401950D1*
X2412894Y4392961D1*
X2410081Y4384306D1*
X2405950Y4376197D1*
X2400601Y4368835D1*
X2394165Y4362399D1*
X2385856Y4356520D1*
X2394165Y4350601D1*
X2400601Y4344165D1*
X2405950Y4336803D1*
X2410081Y4328694D1*
X2412894Y4320039D1*
X2414317Y4311050D1*
Y4301950D1*
X2412894Y4292961D1*
X2410081Y4284306D1*
X2405950Y4276197D1*
X2400601Y4268835D1*
X2394165Y4262399D1*
X2385856Y4256520D1*
X2394165Y4250601D1*
X2400601Y4244165D1*
X2405950Y4236803D1*
X2410081Y4228694D1*
X2410863Y4226575D1*
X2414203Y4234420D1*
X2419245Y4242649D1*
X2425513Y4249987D1*
X2432851Y4256255D1*
X2441080Y4261297D1*
X2449995Y4264990D1*
X2459379Y4267243D1*
X2469000Y4268000D1*
X2478621Y4267243D1*
X2488005Y4264990D1*
X2496920Y4261297D1*
X2505149Y4256255D1*
X2512487Y4249987D1*
X2518996Y4242288D1*
X2525513Y4249987D1*
X2532851Y4256255D1*
X2541080Y4261297D1*
X2549995Y4264990D1*
X2559379Y4267243D1*
X2569000Y4268000D1*
X2578621Y4267243D1*
X2588005Y4264990D1*
X2596920Y4261297D1*
X2605149Y4256255D1*
X2611000Y4251500D1*
Y4529088D1*
X2599398Y4519654D1*
X2590412Y4513650D1*
X2580983Y4508370D1*
X2571169Y4503845D1*
X2561030Y4500105D1*
X2550629Y4497172D1*
X2540030Y4495063D1*
X2529298Y4493793D1*
X2518500Y4493369D1*
X2507702Y4493793D1*
X2496970Y4495063D1*
X2486371Y4497172D1*
X2475970Y4500105D1*
X2465831Y4503845D1*
X2456017Y4508370D1*
X2446588Y4513650D1*
X2437602Y4519654D1*
X2429116Y4526344D1*
X2421180Y4533680D1*
X2413844Y4541616D1*
X2407154Y4550102D1*
X2401150Y4559088D1*
X2395870Y4568517D1*
X2391345Y4578331D1*
X2387605Y4588470D1*
X2384672Y4598871D1*
X2382563Y4609470D1*
X2381293Y4620202D1*
X2380869Y4631000D1*
X2381293Y4641798D1*
X2382563Y4652530D1*
X2384672Y4663129D1*
X2387605Y4673530D1*
X2391345Y4683669D1*
X2395870Y4693483D1*
X2401150Y4702912D1*
X2407154Y4711898D1*
X2413844Y4720384D1*
X2421180Y4728320D1*
X2430210Y4736518D1*
X620912Y4736500D1*
X630346Y4724898D1*
X636350Y4715912D1*
X641630Y4706483D1*
X646155Y4696669D1*
X649895Y4686530D1*
X652828Y4676129D1*
X654937Y4665530D1*
X656207Y4654798D1*
X656631Y4644000D1*
X656207Y4633202D1*
X654937Y4622470D1*
X652828Y4611871D1*
X649895Y4601470D1*
X646155Y4591331D1*
X641630Y4581517D1*
X636350Y4572088D1*
X630346Y4563102D1*
X623656Y4554616D1*
X616320Y4546680D1*
X608384Y4539344D1*
X599898Y4532654D1*
X590912Y4526650D1*
X581483Y4521370D1*
X571669Y4516845D1*
X561530Y4513105D1*
X551129Y4510172D1*
X540530Y4508063D1*
X529798Y4506793D1*
X519000Y4506369D1*
X508202Y4506793D1*
X497470Y4508063D1*
X486871Y4510172D1*
X476470Y4513105D1*
X466331Y4516845D1*
X456517Y4521370D1*
X447088Y4526650D1*
X438102Y4532654D1*
X426485Y4542239D1*
X426628Y4388988D1*
X430426Y4398230D1*
X435475Y4406852D1*
X441677Y4414687D1*
X448910Y4421580D1*
X457033Y4427398D1*
X465889Y4432026D1*
X475303Y4435375D1*
X485092Y4437378D1*
X495064Y4437998D1*
X505026Y4437221D1*
X514782Y4435063D1*
X524142Y4431566D1*
X532923Y4426799D1*
X534999Y4425424D1*
X535000Y4498000D1*
X668000D1*
Y4365000D1*
X658947D1*
X664000Y4363000D1*
X722971Y4362903D1*
X730234Y4361458D1*
X736959Y4358358D1*
X742774Y4353774D1*
X898524Y4198024D1*
X966110Y4197780D1*
X977191Y4196024D1*
X987862Y4192557D1*
X997859Y4187464D1*
X1006936Y4180869D1*
X1014869Y4172936D1*
X1021464Y4163859D1*
X1026557Y4153862D1*
X1030024Y4143191D1*
X1031780Y4132110D1*
Y4120890D1*
X1030024Y4109809D1*
X1026557Y4099138D1*
X1021464Y4089141D1*
X1014869Y4080064D1*
X1006936Y4072131D1*
X997859Y4065536D1*
X987862Y4060443D1*
X977191Y4056976D1*
X966110Y4055220D1*
X923000Y4055000D1*
X884890Y4055220D1*
X873809Y4056976D1*
X863138Y4060443D1*
X853141Y4065536D1*
X844064Y4072131D1*
X836131Y4080064D1*
X829536Y4089141D1*
X824443Y4099138D1*
X820976Y4109809D1*
X819220Y4120890D1*
Y4132110D1*
X820976Y4143191D1*
X824443Y4153862D1*
X829536Y4163859D1*
X835411Y4172023D1*
X707425Y4300027D1*
X660100Y4300000D1*
X655300Y4292412D1*
X648523Y4284477D1*
X645332Y4281528D1*
X652067Y4274688D1*
X658201Y4266246D1*
X662938Y4256948D1*
X666163Y4247024D1*
X667795Y4236718D1*
Y4226282D1*
X666163Y4215976D1*
X662938Y4206052D1*
X658201Y4196754D1*
X652067Y4188312D1*
X644688Y4180933D1*
X636246Y4174799D1*
X626948Y4170062D1*
X617024Y4166837D1*
X606718Y4165205D1*
X596282D1*
X585976Y4166837D1*
X576052Y4170062D1*
X566754Y4174799D1*
X558312Y4180933D1*
X550933Y4188312D1*
X544799Y4196754D1*
X540062Y4206052D1*
X536837Y4215976D1*
X535205Y4226282D1*
Y4236718D1*
X535332Y4237791D1*
X527953Y4233309D1*
X518817Y4229262D1*
X509206Y4226529D1*
X499308Y4225162D1*
X489316Y4225188D1*
X479426Y4226607D1*
X469830Y4229391D1*
X460715Y4233485D1*
X452261Y4238810D1*
X444631Y4245262D1*
X437975Y4252714D1*
X432423Y4261022D1*
X428083Y4270022D1*
X426500Y4274000D1*
X426703Y4046920D1*
X431745Y4055149D1*
X438013Y4062487D1*
X445351Y4068755D1*
X453580Y4073797D1*
X462495Y4077490D1*
X471879Y4079743D1*
X481500Y4080500D1*
X491121Y4079743D1*
X500505Y4077490D1*
X509420Y4073797D1*
X517649Y4068755D1*
X524987Y4062487D1*
X531255Y4055149D1*
X536297Y4046920D1*
X539990Y4038005D1*
X542243Y4028621D1*
X543000Y4019000D1*
X542243Y4009379D1*
X539990Y3999995D1*
X536297Y3991080D1*
X531255Y3982851D1*
X524987Y3975513D1*
X517649Y3969245D1*
X509420Y3964203D1*
X500505Y3960510D1*
X491121Y3958257D1*
X481500Y3957500D1*
X471879Y3958257D1*
X462495Y3960510D1*
X453580Y3964203D1*
X445351Y3969245D1*
X438013Y3975513D1*
X431745Y3982851D1*
X426506Y3991508D1*
X426628Y3763488D1*
X430426Y3772730D1*
X435475Y3781352D1*
X441677Y3789187D1*
X448910Y3796080D1*
X457033Y3801898D1*
X465889Y3806526D1*
X475303Y3809875D1*
X485092Y3811878D1*
X495064Y3812498D1*
X505026Y3811721D1*
X514782Y3809563D1*
X524142Y3806066D1*
X532923Y3801299D1*
X534999Y3799924D1*
X535000Y3872500D1*
X668000D1*
Y3739500D1*
X658947D1*
X664000Y3737500D1*
X722971Y3737403D1*
X730234Y3735958D1*
X736959Y3732858D1*
X742781Y3728267D1*
X898524Y3572524D1*
X966110Y3572280D1*
X977191Y3570524D1*
X987862Y3567057D1*
X997859Y3561964D1*
X1006936Y3555369D1*
X1014869Y3547436D1*
X1021464Y3538359D1*
X1026557Y3528362D1*
X1030024Y3517691D1*
X1031780Y3506610D1*
Y3495390D1*
X1030024Y3484309D1*
X1026557Y3473638D1*
X1021464Y3463641D1*
X1014869Y3454564D1*
X1006936Y3446631D1*
X997859Y3440036D1*
X987862Y3434943D1*
X977191Y3431476D1*
X966110Y3429720D1*
X923000Y3429500D1*
X884890Y3429720D1*
X873809Y3431476D1*
X863138Y3434943D1*
X853141Y3440036D1*
X844064Y3446631D1*
X842889Y3447718D1*
X842810Y3439175D1*
X841101Y3428935D1*
X858500Y3423500D1*
X1039018D1*
X1039000Y3604580D1*
X1029191Y3601476D1*
X1018110Y3599720D1*
X1006890D1*
X995809Y3601476D1*
X985138Y3604943D1*
X975141Y3610036D1*
X966064Y3616631D1*
X958131Y3624564D1*
X951536Y3633641D1*
X946443Y3643638D1*
X942976Y3654309D1*
X941220Y3665390D1*
X941000Y3708500D1*
X941220Y3746610D1*
X942976Y3757691D1*
X946443Y3768362D1*
X951536Y3778359D1*
X958131Y3787436D1*
X966064Y3795369D1*
X975141Y3801964D1*
X985138Y3807057D1*
X995809Y3810524D1*
X1006890Y3812280D1*
X1018110D1*
X1029191Y3810524D1*
X1039862Y3807057D1*
X1041953Y3806093D1*
X1045016Y3811279D1*
X1048226Y3815038D1*
X1072015Y3838827D1*
X1072000Y3994270D1*
X1066801Y3990933D1*
X1059854Y3988370D1*
X1052500Y3987500D1*
X834287D1*
X828265Y3979059D1*
X821441Y3972235D1*
X813634Y3966563D1*
X805035Y3962181D1*
X795857Y3959199D1*
X786325Y3957690D1*
X776675D1*
X767143Y3959199D1*
X757965Y3962181D1*
X749366Y3966563D1*
X741559Y3972235D1*
X734735Y3979059D1*
X729063Y3986866D1*
X724681Y3995465D1*
X721699Y4004643D1*
X720190Y4014175D1*
Y4023825D1*
X721699Y4033357D1*
X724681Y4042535D1*
X729063Y4051134D1*
X734735Y4058941D1*
X741559Y4065765D1*
X749366Y4071437D1*
X757965Y4075819D1*
X767143Y4078801D1*
X776675Y4080310D1*
X786325D1*
X795857Y4078801D1*
X805035Y4075819D1*
X813634Y4071437D1*
X821441Y4065765D1*
X828265Y4058941D1*
X834297Y4050492D1*
X1038971Y4050500D1*
X1039000Y4230115D1*
X1029191Y4226976D1*
X1018110Y4225220D1*
X1006890D1*
X995809Y4226976D1*
X985138Y4230443D1*
X975141Y4235536D1*
X966064Y4242131D1*
X958131Y4250064D1*
X951536Y4259141D1*
X946443Y4269138D1*
X942976Y4279809D1*
X941220Y4290890D1*
X941000Y4334000D1*
X941220Y4372110D1*
X942976Y4383191D1*
X946443Y4393862D1*
X951536Y4403859D1*
X958131Y4412936D1*
X966064Y4420869D1*
X975141Y4427464D1*
X985138Y4432557D1*
X995809Y4436024D1*
X1006890Y4437780D1*
X1018110D1*
X1029191Y4436024D1*
X1039862Y4432557D1*
X1049859Y4427464D1*
X1058936Y4420869D1*
X1066869Y4412936D1*
X1073464Y4403859D1*
X1078557Y4393862D1*
X1080923Y4387096D1*
X1088500Y4388000D1*
X1194994D1*
X1195000Y4418000D1*
X1225030D1*
X1225000Y4428717D1*
X1216559Y4434735D1*
X1209735Y4441559D1*
X1206504Y4445712D1*
X1200550Y4438584D1*
X1193022Y4432019D1*
X1184530Y4426759D1*
X1175298Y4422943D1*
X1165571Y4420673D1*
X1155604Y4420007D1*
X1145661Y4420963D1*
X1136004Y4423516D1*
X1126887Y4427599D1*
X1118552Y4433104D1*
X1111218Y4439885D1*
X1105078Y4447765D1*
X1100295Y4456534D1*
X1096995Y4465962D1*
X1095265Y4475800D1*
X1095150Y4485789D1*
X1096653Y4495664D1*
X1099736Y4505165D1*
X1104315Y4514043D1*
X1110272Y4522061D1*
X1117448Y4529010D1*
X1125654Y4534705D1*
X1134674Y4538997D1*
X1144270Y4541772D1*
X1154189Y4542957D1*
X1164168Y4542520D1*
X1173945Y4540474D1*
X1183262Y4536872D1*
X1191873Y4531809D1*
X1199551Y4525419D1*
X1206093Y4517870D1*
X1206491Y4517303D1*
X1213013Y4524987D1*
X1220351Y4531255D1*
X1228580Y4536297D1*
X1237495Y4539990D1*
X1246879Y4542243D1*
X1256500Y4543000D1*
X1266121Y4542243D1*
X1271565Y4541101D1*
X1302042Y4571453D1*
X1308199Y4575567D1*
X1315146Y4578130D1*
X1322500Y4579000D1*
X1692971Y4578903D1*
X1700234Y4577458D1*
X1706959Y4574358D1*
X1712774Y4569774D1*
X1741396Y4541151D1*
X1751675Y4542810D1*
X1761325D1*
X1770857Y4541301D1*
X1780035Y4538319D1*
X1788634Y4533937D1*
X1796441Y4528265D1*
X1803265Y4521441D1*
X1808937Y4513634D1*
X1813319Y4505035D1*
X1816301Y4495857D1*
X1817810Y4486325D1*
Y4476675D1*
X1816301Y4467143D1*
X1813319Y4457965D1*
X1808937Y4449366D1*
X1803265Y4441559D1*
X1796441Y4434735D1*
X1788634Y4429063D1*
X1780035Y4424681D1*
X1770857Y4421699D1*
X1761325Y4420190D1*
X1751675D1*
X1742143Y4421699D1*
X1732965Y4424681D1*
X1724366Y4429063D1*
X1716559Y4434735D1*
X1709735Y4441559D1*
X1706504Y4445712D1*
X1717949Y3729001D2*
X1716734Y3719086D1*
X1714469Y3710996D1*
X1735971Y3710903D1*
X1743234Y3709458D1*
X1749959Y3706358D1*
X1755774Y3701774D1*
X1975053Y3482495D1*
X2003752Y3482496D1*
X2001342Y3488578D1*
X1999218Y3497427D1*
X1998504Y3506500D1*
X1999218Y3515573D1*
X2001342Y3524422D1*
X2004825Y3532830D1*
X2009580Y3540589D1*
X2015491Y3547509D1*
X2022411Y3553420D1*
X2027144Y3556480D1*
X2018835Y3562399D1*
X2012399Y3568835D1*
X2007050Y3576197D1*
X2002919Y3584306D1*
X2000106Y3592961D1*
X1998683Y3601950D1*
Y3611050D1*
X2000106Y3620039D1*
X2002919Y3628694D1*
X2007050Y3636803D1*
X2012399Y3644165D1*
X2018835Y3650601D1*
X2027144Y3656480D1*
X2020452Y3661068D1*
X2014894Y3666096D1*
X2010031Y3671799D1*
X2005944Y3678081D1*
X2002701Y3684838D1*
X2000357Y3691957D1*
X1998950Y3699318D1*
X1998505Y3706800D1*
X1999028Y3714277D1*
X2000510Y3721623D1*
X2002928Y3728717D1*
X2006241Y3735440D1*
X2010392Y3741680D1*
X2015314Y3747332D1*
X2020924Y3752303D1*
X2027119Y3756503D1*
X2018835Y3762399D1*
X2012399Y3768835D1*
X2008622Y3773845D1*
X2003265Y3766559D1*
X1996441Y3759735D1*
X1988634Y3754063D1*
X1980035Y3749681D1*
X1970857Y3746699D1*
X1961325Y3745190D1*
X1951675D1*
X1942143Y3746699D1*
X1932965Y3749681D1*
X1924366Y3754063D1*
X1916559Y3759735D1*
X1909735Y3766559D1*
X1904063Y3774366D1*
X1899681Y3782965D1*
X1896699Y3792143D1*
X1895190Y3801675D1*
Y3811325D1*
X1896699Y3820857D1*
X1897309Y3823017D1*
X1801927Y3823000D1*
X1806255Y3817649D1*
X1811297Y3809420D1*
X1814990Y3800505D1*
X1817243Y3791121D1*
X1818000Y3781500D1*
X1817243Y3771879D1*
X1814990Y3762495D1*
X1811297Y3753580D1*
X1806255Y3745351D1*
X1799987Y3738013D1*
X1792649Y3731745D1*
X1784420Y3726703D1*
X1775505Y3723010D1*
X1766121Y3720757D1*
X1756500Y3720000D1*
X1746879Y3720757D1*
X1737495Y3723010D1*
X1728580Y3726703D1*
X1720351Y3731745D1*
X1717966Y3733626D1*
X1717949Y3729001D1*
X1610885Y3772732D2*
X1617448Y3779010D1*
X1625654Y3784705D1*
X1634674Y3788997D1*
X1644270Y3791772D1*
X1654189Y3792957D1*
X1664168Y3792520D1*
X1673945Y3790474D1*
X1683262Y3786872D1*
X1691873Y3781809D1*
X1695041Y3779410D1*
X1695190Y3786325D1*
X1696699Y3795857D1*
X1699681Y3805035D1*
X1704063Y3813634D1*
X1709735Y3821441D1*
X1711182Y3823006D1*
X1643529Y3823097D1*
X1636266Y3824542D1*
X1629541Y3827642D1*
X1623726Y3832226D1*
X1617753Y3838199D1*
X1616301Y3829643D1*
X1613319Y3820465D1*
X1608937Y3811866D1*
X1603265Y3804059D1*
X1596441Y3797235D1*
X1592288Y3794004D1*
X1599987Y3787487D1*
X1606255Y3780149D1*
X1610845Y3772727D1*
X1717810Y3626675D2*
X1716301Y3617143D1*
X1713319Y3607965D1*
X1708937Y3599366D1*
X1703265Y3591559D1*
X1696441Y3584735D1*
X1688634Y3579063D1*
X1681320Y3575274D1*
X1688634Y3571437D1*
X1696441Y3565765D1*
X1703265Y3558941D1*
X1708937Y3551134D1*
X1713319Y3542535D1*
X1716301Y3533357D1*
X1717810Y3523825D1*
Y3514175D1*
X1716301Y3504643D1*
X1713319Y3495465D1*
X1708937Y3486866D1*
X1703265Y3479059D1*
X1696441Y3472235D1*
X1688634Y3466563D1*
X1680035Y3462181D1*
X1670857Y3459199D1*
X1661325Y3457690D1*
X1651675D1*
X1642143Y3459199D1*
X1635991Y3461065D1*
X1636000Y3277006D1*
X1646879Y3279743D1*
X1656500Y3280500D1*
X1666121Y3279743D1*
X1675505Y3277490D1*
X1684420Y3273797D1*
X1692649Y3268755D1*
X1699987Y3262487D1*
X1706255Y3255149D1*
X1711297Y3246920D1*
X1713495Y3242057D1*
X1713597Y3390971D1*
X1715042Y3398234D1*
X1718142Y3404959D1*
X1722726Y3410774D1*
X1742542Y3430453D1*
X1748699Y3434567D1*
X1755646Y3437130D1*
X1763000Y3438000D1*
X1930432D1*
X1720451Y3648001D1*
X1716301Y3645857D1*
X1717810Y3636325D1*
Y3626675D1*
X2542949Y3704001D2*
X2541734Y3694086D1*
X2538930Y3684499D1*
X2534611Y3675492D1*
X2528890Y3667303D1*
X2521920Y3660148D1*
X2517296Y3656506D1*
X2524987Y3649987D1*
X2531255Y3642649D1*
X2536297Y3634420D1*
X2539990Y3625505D1*
X2542243Y3616121D1*
X2543000Y3606500D1*
X2542243Y3596879D1*
X2539990Y3587495D1*
X2536297Y3578580D1*
X2531255Y3570351D1*
X2524987Y3563013D1*
X2517649Y3556745D1*
X2509420Y3551703D1*
X2500505Y3548010D1*
X2491121Y3545757D1*
X2481500Y3545000D1*
X2471879Y3545757D1*
X2462495Y3548010D1*
X2453580Y3551703D1*
X2445351Y3556745D1*
X2438013Y3563013D1*
X2431745Y3570351D1*
X2426703Y3578580D1*
X2423010Y3587495D1*
X2420757Y3596879D1*
X2420000Y3606500D1*
X2420757Y3616121D1*
X2423010Y3625505D1*
X2426703Y3634420D1*
X2431745Y3642649D1*
X2438013Y3649987D1*
X2445712Y3656496D1*
X2439747Y3661345D1*
X2432988Y3668700D1*
X2427509Y3677052D1*
X2423454Y3686181D1*
X2420930Y3695846D1*
X2420004Y3705792D1*
X2420701Y3715757D1*
X2423001Y3725477D1*
X2426845Y3734697D1*
X2432131Y3743173D1*
X2438719Y3750681D1*
X2446435Y3757024D1*
X2455077Y3762034D1*
X2464416Y3765579D1*
X2474205Y3767566D1*
X2484187Y3767941D1*
X2494098Y3766696D1*
X2503677Y3763862D1*
X2512671Y3759516D1*
X2520842Y3753770D1*
X2527975Y3746778D1*
X2533883Y3738723D1*
X2538408Y3729818D1*
X2541432Y3720297D1*
X2542875Y3710413D1*
X2542949Y3704001D1*
X838504Y1226996D2*
X839568D1*
X837606Y1233461D1*
X836183Y1242450D1*
Y1251550D1*
X837606Y1260539D1*
X840419Y1269194D1*
X844550Y1277303D1*
X849899Y1284665D1*
X856335Y1291101D1*
X863697Y1296450D1*
X871806Y1300581D1*
X880461Y1303394D1*
X889450Y1304817D1*
X898550D1*
X907539Y1303394D1*
X916194Y1300581D1*
X924303Y1296450D1*
X931665Y1291101D1*
X938101Y1284665D1*
X943450Y1277303D1*
X947581Y1269194D1*
X950394Y1260539D1*
X951817Y1251550D1*
Y1242450D1*
X950394Y1233461D1*
X948504Y1226996D1*
X951996D1*
Y1111004D1*
X836004D1*
Y1226996D1*
X838504D1*
X1135000Y4114069D2*
X1142143Y4116301D1*
X1151675Y4117810D1*
X1161325D1*
X1170857Y4116301D1*
X1180035Y4113319D1*
X1188634Y4108937D1*
X1196441Y4103265D1*
X1203265Y4096441D1*
X1206496Y4092288D1*
X1213013Y4099987D1*
X1220712Y4106496D1*
X1213013Y4113013D1*
X1206745Y4120351D1*
X1203703Y4125008D1*
X1197146Y4125870D1*
X1190191Y4128438D1*
X1188634Y4129063D1*
X1180035Y4124681D1*
X1170857Y4121699D1*
X1161325Y4120190D1*
X1151675D1*
X1142143Y4121699D1*
X1135000Y4123931D1*
Y4114119D1*
X1202131Y3915274D2*
X1195003Y3908544D1*
X1186731Y3902943D1*
X1177662Y3898756D1*
X1168035Y3896091D1*
X1158104Y3895021D1*
X1148130Y3895572D1*
X1138377Y3897731D1*
X1135008Y3898891D1*
X1135000Y3889119D1*
X1142143Y3891301D1*
X1151675Y3892810D1*
X1161325D1*
X1170857Y3891301D1*
X1180035Y3888319D1*
X1188634Y3883937D1*
X1196441Y3878265D1*
X1202100Y3872702D1*
X1207131Y3880673D1*
X1213719Y3888181D1*
X1220700Y3893992D1*
X1213013Y3900513D1*
X1206745Y3907851D1*
X1202155Y3915273D1*
X1898518Y3886007D2*
X1896413Y3893393D1*
X1895084Y3903294D1*
X1895375Y3913278D1*
X1897278Y3923084D1*
X1900744Y3932453D1*
X1905681Y3941136D1*
X1911958Y3948906D1*
X1919411Y3955558D1*
X1927842Y3960915D1*
X1937029Y3964836D1*
X1946730Y3967219D1*
X1956688Y3968000D1*
X1966642Y3967158D1*
X1976327Y3964716D1*
X1985490Y3960738D1*
X1993888Y3955330D1*
X2001300Y3948633D1*
X2007530Y3940825D1*
X2008592Y3939174D1*
X2012399Y3944165D1*
X2018835Y3950601D1*
X2027144Y3956480D1*
X2018835Y3962399D1*
X2012399Y3968835D1*
X2007851Y3974999D1*
X1715143Y3975000D1*
X1717243Y3966121D1*
X1718000Y3956500D1*
X1717243Y3946879D1*
X1714990Y3937495D1*
X1711297Y3928580D1*
X1706255Y3920351D1*
X1699987Y3913013D1*
X1692649Y3906745D1*
X1684420Y3901703D1*
X1675505Y3898010D1*
X1666121Y3895757D1*
X1656500Y3895000D1*
X1649633Y3895431D1*
X1659048Y3885999D1*
X1898490Y3886000D1*
X2180310Y1364175D2*
X2178601Y1353935D1*
X2208953Y1323458D1*
X2213067Y1317301D1*
X2215630Y1310354D1*
X2216500Y1303000D1*
X2216403Y1223532D1*
X2214958Y1216270D1*
X2211858Y1209545D1*
X2207274Y1203730D1*
X2187458Y1184051D1*
X2181301Y1179937D1*
X2174354Y1177374D1*
X2167000Y1176504D1*
X1220029Y1176601D1*
X1212766Y1178046D1*
X1206041Y1181146D1*
X1200226Y1185730D1*
X1180547Y1205546D1*
X1176433Y1211703D1*
X1173870Y1218650D1*
X1173000Y1226004D1*
Y1409744D1*
X1166121Y1408257D1*
X1156500Y1407500D1*
X1146879Y1408257D1*
X1137495Y1410510D1*
X1128580Y1414203D1*
X1120351Y1419245D1*
X1113013Y1425513D1*
X1106745Y1432851D1*
X1101703Y1441080D1*
X1098010Y1449995D1*
X1095757Y1459379D1*
X1095000Y1469000D1*
X1095757Y1478621D1*
X1098010Y1488005D1*
X1101703Y1496920D1*
X1106745Y1505149D1*
X1113013Y1512487D1*
X1120351Y1518755D1*
X1128580Y1523797D1*
X1137495Y1527490D1*
X1146879Y1529743D1*
X1156500Y1530500D1*
X1166121Y1529743D1*
X1173017Y1528191D1*
X1173000Y1549490D1*
X829713Y1549500D1*
X824907Y1540412D1*
X817742Y1530550D1*
X809123Y1521931D1*
X799261Y1514766D1*
X788400Y1509232D1*
X776808Y1505465D1*
X764768Y1503558D1*
X733673Y1503319D1*
X693523Y1503558D1*
X681484Y1505465D1*
X669891Y1509232D1*
X663000Y1512542D1*
Y1486838D1*
X806453Y1343241D1*
X810567Y1337084D1*
X813130Y1330137D1*
X814000Y1322783D1*
X813903Y946064D1*
X812458Y938801D1*
X809358Y932077D1*
X804774Y926262D1*
X783195Y904682D1*
X793940Y900214D1*
X804333Y893845D1*
X813602Y885929D1*
X821519Y876660D1*
X827888Y866266D1*
X832552Y855005D1*
X835398Y843152D1*
X836354Y831000D1*
X835398Y818848D1*
X832552Y806995D1*
X827888Y795734D1*
X821519Y785340D1*
X813602Y776071D1*
X804333Y768155D1*
X793940Y761786D1*
X782678Y757121D1*
X770825Y754275D1*
X758673Y753319D1*
X699618D1*
X687466Y754275D1*
X675613Y757121D1*
X664352Y761786D1*
X653958Y768155D1*
X644689Y776071D1*
X636773Y785340D1*
X635568Y787143D1*
X635567Y723791D1*
X479424D1*
X484981Y718725D1*
X493199Y709104D1*
X499810Y698316D1*
X504652Y686626D1*
X507606Y674323D1*
X508598Y661709D1*
X508382Y656198D1*
X519000Y656631D1*
X529798Y656207D1*
X540530Y654937D1*
X551129Y652828D1*
X561530Y649895D1*
X571669Y646155D1*
X581483Y641630D1*
X590912Y636350D1*
X599898Y630346D1*
X608384Y623656D1*
X616320Y616320D1*
X623656Y608384D1*
X630346Y599898D1*
X636350Y590912D1*
X641630Y581483D1*
X646155Y571669D1*
X649895Y561530D1*
X652828Y551129D1*
X654937Y540530D1*
X656207Y529798D1*
X656631Y519000D1*
X656207Y508202D1*
X654937Y497470D1*
X652828Y486871D1*
X649895Y476470D1*
X646155Y466331D1*
X641630Y456517D1*
X636350Y447088D1*
X630346Y438102D1*
X620761Y426485D1*
X2416588Y426500D1*
X2407154Y438102D1*
X2401150Y447088D1*
X2395870Y456517D1*
X2391345Y466331D1*
X2387605Y476470D1*
X2384672Y486871D1*
X2382563Y497470D1*
X2381293Y508202D1*
X2380869Y519000D1*
X2381293Y529798D1*
X2382563Y540530D1*
X2384672Y551129D1*
X2387605Y561530D1*
X2391345Y571669D1*
X2395870Y581483D1*
X2401150Y590912D1*
X2407154Y599898D1*
X2413844Y608384D1*
X2421180Y616320D1*
X2429116Y623656D1*
X2437602Y630346D1*
X2446588Y636350D1*
X2456017Y641630D1*
X2465831Y646155D1*
X2475970Y649895D1*
X2486371Y652828D1*
X2496970Y654937D1*
X2507702Y656207D1*
X2518500Y656631D1*
X2529298Y656207D1*
X2540030Y654937D1*
X2550629Y652828D1*
X2561030Y649895D1*
X2571169Y646155D1*
X2580983Y641630D1*
X2590412Y636350D1*
X2599398Y630346D1*
X2611015Y620761D1*
X2611000Y1449986D1*
X2592958Y1432047D1*
X2586801Y1427933D1*
X2579854Y1425370D1*
X2572500Y1424500D1*
X2559365D1*
X2553265Y1416059D1*
X2546441Y1409235D1*
X2542288Y1406004D1*
X2549987Y1399487D1*
X2556255Y1392149D1*
X2561297Y1383920D1*
X2564990Y1375005D1*
X2567243Y1365621D1*
X2568000Y1356000D1*
X2567243Y1346379D1*
X2564990Y1336995D1*
X2561297Y1328080D1*
X2556255Y1319851D1*
X2549987Y1312513D1*
X2542288Y1306004D1*
X2549987Y1299487D1*
X2556255Y1292149D1*
X2561297Y1283920D1*
X2564990Y1275005D1*
X2567243Y1265621D1*
X2568000Y1256000D1*
X2567243Y1246379D1*
X2564990Y1236995D1*
X2561297Y1228080D1*
X2556255Y1219851D1*
X2549987Y1212513D1*
X2542288Y1206004D1*
X2549551Y1199919D1*
X2556093Y1192370D1*
X2561327Y1183862D1*
X2565114Y1174619D1*
X2567355Y1164885D1*
X2568000Y1156000D1*
X2567189Y1146044D1*
X2564777Y1136351D1*
X2560827Y1127176D1*
X2555444Y1118761D1*
X2548770Y1111329D1*
X2542296Y1106006D1*
X2549551Y1099919D1*
X2556093Y1092370D1*
X2561327Y1083862D1*
X2565114Y1074619D1*
X2567355Y1064885D1*
X2568000Y1056000D1*
X2567189Y1046044D1*
X2564777Y1036351D1*
X2560827Y1027176D1*
X2555444Y1018761D1*
X2548770Y1011329D1*
X2542296Y1006006D1*
X2549551Y999919D1*
X2556093Y992370D1*
X2561327Y983862D1*
X2565114Y974619D1*
X2567355Y964885D1*
X2568000Y956000D1*
X2567189Y946044D1*
X2564777Y936351D1*
X2560827Y927176D1*
X2555444Y918761D1*
X2554443Y917499D1*
X2568000Y917500D1*
Y794500D1*
X2445000D1*
Y808025D1*
X2438634Y803563D1*
X2430035Y799181D1*
X2420857Y796199D1*
X2411325Y794690D1*
X2401675D1*
X2392143Y796199D1*
X2382965Y799181D1*
X2374366Y803563D1*
X2366559Y809235D1*
X2359735Y816059D1*
X2354063Y823866D1*
X2349681Y832465D1*
X2346699Y841643D1*
X2345190Y851175D1*
Y860825D1*
X2346699Y870357D1*
X2349681Y879535D1*
X2354063Y888134D1*
X2359735Y895941D1*
X2366559Y902765D1*
X2370550Y906102D1*
X2362946Y912579D1*
X2356492Y920203D1*
X2351356Y928771D1*
X2347676Y938057D1*
X2345547Y947816D1*
X2345026Y957792D1*
X2346127Y967720D1*
X2348821Y977339D1*
X2353036Y986395D1*
X2358662Y994649D1*
X2365549Y1001884D1*
X2370550Y1006102D1*
X2362946Y1012579D1*
X2356492Y1020203D1*
X2351356Y1028771D1*
X2347676Y1038057D1*
X2345547Y1047816D1*
X2345026Y1057792D1*
X2346127Y1067720D1*
X2348821Y1077339D1*
X2353036Y1086395D1*
X2358662Y1094649D1*
X2365549Y1101884D1*
X2370550Y1106102D1*
X2362946Y1112579D1*
X2356492Y1120203D1*
X2351356Y1128771D1*
X2347676Y1138057D1*
X2345547Y1147816D1*
X2345026Y1157792D1*
X2346127Y1167720D1*
X2348821Y1177339D1*
X2353036Y1186395D1*
X2358662Y1194649D1*
X2365549Y1201884D1*
X2370700Y1205992D1*
X2363013Y1212513D1*
X2356745Y1219851D1*
X2351703Y1228080D1*
X2348010Y1236995D1*
X2345757Y1246379D1*
X2345000Y1256000D1*
X2345757Y1265621D1*
X2348010Y1275005D1*
X2351703Y1283920D1*
X2356745Y1292149D1*
X2363013Y1299487D1*
X2370712Y1305996D1*
X2363013Y1312513D1*
X2356745Y1319851D1*
X2351703Y1328080D1*
X2348010Y1336995D1*
X2345757Y1346379D1*
X2345000Y1356000D1*
X2345757Y1365621D1*
X2348010Y1375005D1*
X2351703Y1383920D1*
X2356745Y1392149D1*
X2363013Y1399487D1*
X2370712Y1405996D1*
X2363013Y1412513D1*
X2356745Y1419851D1*
X2351703Y1428080D1*
X2348010Y1436995D1*
X2345757Y1446379D1*
X2345000Y1456000D1*
X2345757Y1465621D1*
X2347309Y1472517D1*
X2231529Y1472597D1*
X2224266Y1474042D1*
X2217541Y1477142D1*
X2211726Y1481726D1*
X2192047Y1501542D1*
X2187933Y1507699D1*
X2185370Y1514646D1*
X2184500Y1522000D1*
Y1685525D1*
X2178322Y1685222D1*
X2180166Y1675404D1*
X2180449Y1666501D1*
X2179234Y1656586D1*
X2176430Y1646999D1*
X2172111Y1637992D1*
X2166390Y1629803D1*
X2159420Y1622648D1*
X2154796Y1619006D1*
X2162487Y1612487D1*
X2168755Y1605149D1*
X2173797Y1596920D1*
X2177490Y1588005D1*
X2179743Y1578621D1*
X2180500Y1569000D1*
X2179743Y1559379D1*
X2177490Y1549995D1*
X2173797Y1541080D1*
X2168755Y1532851D1*
X2162487Y1525513D1*
X2154788Y1519004D1*
X2162051Y1512919D1*
X2168593Y1505370D1*
X2173827Y1496862D1*
X2177614Y1487619D1*
X2179855Y1477885D1*
X2180500Y1469000D1*
X2179689Y1459044D1*
X2177277Y1449351D1*
X2173327Y1440176D1*
X2167944Y1431761D1*
X2161270Y1424329D1*
X2154796Y1419006D1*
X2162487Y1412487D1*
X2168755Y1405149D1*
X2173797Y1396920D1*
X2177490Y1388005D1*
X2179743Y1378621D1*
X2180500Y1369000D1*
X2180310Y1364175D1*
X2083212Y1519004D2*
X2075513Y1525513D1*
X2069245Y1532851D1*
X2065816Y1538199D1*
X2061604Y1532613D1*
X2055387Y1526396D1*
X2048274Y1521229D1*
X2044436Y1518921D1*
X2051932Y1514327D1*
X2058617Y1508617D1*
X2064327Y1501932D1*
X2065769Y1499775D1*
X2071162Y1507649D1*
X2078049Y1514884D1*
X2083200Y1518992D1*
X2065816Y1599801D2*
X2069245Y1605149D1*
X2075513Y1612487D1*
X2083212Y1618996D1*
X2077247Y1623845D1*
X2070488Y1631200D1*
X2065789Y1638188D1*
X2061604Y1632613D1*
X2055387Y1626396D1*
X2048274Y1621229D1*
X2044436Y1618921D1*
X2051932Y1614327D1*
X2058617Y1608617D1*
X2064327Y1601932D1*
X2065769Y1599775D1*
X1748508Y2951972D2*
X1756770Y2954272D1*
X1766689Y2955457D1*
X1776668Y2955020D1*
X1785494Y2953234D1*
X1785500Y3024694D1*
X1748480Y2987696D1*
X1748500Y2951984D1*
X1636004Y2945861D2*
X1645465Y2950819D1*
X1654643Y2953801D1*
X1664175Y2955310D1*
X1673825D1*
X1683357Y2953801D1*
X1685517Y2953191D1*
X1685597Y3003235D1*
X1687042Y3010498D1*
X1690142Y3017223D1*
X1694726Y3023038D1*
X1749520Y3077832D1*
X1749274Y3119726D1*
X1743459Y3115142D1*
X1736734Y3112042D1*
X1729471Y3110597D1*
X1615721Y3110500D1*
X1617243Y3103621D1*
X1618000Y3094000D1*
X1617243Y3084379D1*
X1616101Y3078935D1*
X1628453Y3066458D1*
X1632567Y3060301D1*
X1635130Y3053354D1*
X1636000Y3046000D1*
Y2945891D1*
X1717949Y1866501D2*
X1716734Y1856586D1*
X1713930Y1846999D1*
X1709611Y1837992D1*
X1703890Y1829803D1*
X1699472Y1825021D1*
X1775028Y1825028D1*
Y1748514D1*
X1966885Y1748500D1*
X1964520Y1755921D1*
X1963145Y1764604D1*
Y1773396D1*
X1964520Y1782079D1*
X1967237Y1790441D1*
X1971229Y1798274D1*
X1976396Y1805387D1*
X1982613Y1811604D1*
X1989726Y1816771D1*
X1997559Y1820763D1*
X2005921Y1823480D1*
X2014604Y1824855D1*
X2023396D1*
X2032079Y1823480D1*
X2040441Y1820763D1*
X2048274Y1816771D1*
X2055387Y1811604D1*
X2061604Y1805387D1*
X2065769Y1799775D1*
X2069245Y1805149D1*
X2075513Y1812487D1*
X2082851Y1818755D1*
X2091080Y1823797D1*
X2099995Y1827490D1*
X2109379Y1829743D1*
X2119000Y1830500D1*
X2128621Y1829743D1*
X2138005Y1827490D1*
X2146920Y1823797D1*
X2155149Y1818755D1*
X2162487Y1812487D1*
X2168755Y1805149D1*
X2173797Y1796920D1*
X2177490Y1788005D1*
X2179743Y1778621D1*
X2180500Y1769000D1*
X2179743Y1759379D1*
X2177490Y1749995D1*
X2176935Y1748491D1*
X2200471Y1748403D1*
X2207734Y1746958D1*
X2214459Y1743858D1*
X2220274Y1739274D1*
X2239953Y1719458D1*
X2244067Y1713301D1*
X2246630Y1706354D1*
X2247500Y1699000D1*
Y1535475D1*
X2348502Y1535500D1*
X2345757Y1546379D1*
X2345000Y1556000D1*
X2345757Y1565621D1*
X2348010Y1575005D1*
X2351703Y1583920D1*
X2356745Y1592149D1*
X2363013Y1599487D1*
X2370351Y1605755D1*
X2378580Y1610797D1*
X2387495Y1614490D1*
X2396879Y1616743D1*
X2406500Y1617500D1*
X2416121Y1616743D1*
X2425505Y1614490D1*
X2434420Y1610797D1*
X2442649Y1605755D1*
X2449987Y1599487D1*
X2456496Y1591788D1*
X2463013Y1599487D1*
X2470351Y1605755D1*
X2478580Y1610797D1*
X2487495Y1614490D1*
X2496879Y1616743D1*
X2506500Y1617500D1*
X2516121Y1616743D1*
X2521565Y1615601D1*
X2523000Y1629000D1*
Y2007467D1*
X2445000Y2007500D1*
Y2021045D1*
X2436731Y2015443D1*
X2427662Y2011256D1*
X2418035Y2008591D1*
X2408104Y2007521D1*
X2398130Y2008072D1*
X2388377Y2010231D1*
X2379102Y2013940D1*
X2370550Y2019102D1*
X2362946Y2025579D1*
X2356492Y2033203D1*
X2351356Y2041771D1*
X2347676Y2051057D1*
X2345547Y2060816D1*
X2345026Y2070792D1*
X2346127Y2080720D1*
X2347256Y2085499D1*
X2178279Y2085500D1*
X2179743Y2078621D1*
X2180500Y2069000D1*
X2179743Y2059379D1*
X2177490Y2049995D1*
X2173797Y2041080D1*
X2168755Y2032851D1*
X2162487Y2025513D1*
X2154788Y2019004D1*
X2162487Y2012487D1*
X2168755Y2005149D1*
X2173797Y1996920D1*
X2177490Y1988005D1*
X2179743Y1978621D1*
X2180500Y1969000D1*
X2179743Y1959379D1*
X2177490Y1949995D1*
X2176935Y1948491D1*
X2232771Y1948500D1*
X2239668Y1954619D1*
X2245889Y1958432D1*
X2252631Y1961224D1*
X2259726Y1962928D1*
X2267000Y1963500D1*
X2274274Y1962928D1*
X2281369Y1961224D1*
X2288111Y1958432D1*
X2294332Y1954619D1*
X2299880Y1949880D1*
X2304619Y1944332D1*
X2308432Y1938111D1*
X2311224Y1931369D1*
X2312928Y1924274D1*
X2313500Y1917000D1*
X2312928Y1909726D1*
X2311224Y1902631D1*
X2308432Y1895889D1*
X2304619Y1889668D1*
X2299880Y1884120D1*
X2294332Y1879381D1*
X2288111Y1875568D1*
X2281369Y1872776D1*
X2274274Y1871072D1*
X2267000Y1870500D1*
X2259726Y1871072D1*
X2252631Y1872776D1*
X2245889Y1875568D1*
X2239668Y1879381D1*
X2234120Y1884120D1*
X2232851Y1885492D1*
X1715822Y1885222D1*
X1717666Y1875404D1*
X1717949Y1866501D1*
X1662965Y1807843D2*
X1653106Y1807594D1*
X1643210Y1808953D1*
X1633664Y1811897D1*
X1624721Y1816347D1*
X1616617Y1822186D1*
X1609564Y1829260D1*
X1603750Y1837382D1*
X1603289Y1838188D1*
X1598845Y1832312D1*
X1593570Y1826989D1*
X1587631Y1822418D1*
X1581936Y1818921D1*
X1589432Y1814327D1*
X1596117Y1808617D1*
X1601827Y1801932D1*
X1606817Y1793578D1*
X1612203Y1797067D1*
X1619150Y1799630D1*
X1626504Y1800500D1*
X1662979D1*
X1717810Y1964175D2*
X1716301Y1954643D1*
X1714435Y1948491D1*
X1760994Y1948500D1*
X1758257Y1959379D1*
X1757500Y1969000D1*
X1758257Y1978621D1*
X1760510Y1988005D1*
X1764203Y1996920D1*
X1769245Y2005149D1*
X1775513Y2012487D1*
X1782851Y2018755D1*
X1791080Y2023797D1*
X1799995Y2027490D1*
X1809379Y2029743D1*
X1819000Y2030500D1*
X1828621Y2029743D1*
X1838005Y2027490D1*
X1846920Y2023797D1*
X1855149Y2018755D1*
X1862487Y2012487D1*
X1868996Y2004788D1*
X1875513Y2012487D1*
X1882851Y2018755D1*
X1891080Y2023797D1*
X1899995Y2027490D1*
X1909379Y2029743D1*
X1919000Y2030500D1*
X1928621Y2029743D1*
X1938005Y2027490D1*
X1946920Y2023797D1*
X1955149Y2018755D1*
X1962487Y2012487D1*
X1968996Y2004788D1*
X1974458Y2011406D1*
X1981911Y2018058D1*
X1988180Y2022219D1*
X1982613Y2026396D1*
X1976396Y2032613D1*
X1971229Y2039726D1*
X1967237Y2047559D1*
X1964520Y2055921D1*
X1963145Y2064604D1*
Y2073396D1*
X1964520Y2082079D1*
X1965486Y2085503D1*
X1772518Y2085500D1*
X1774219Y2078486D1*
X1775028Y2069000D1*
X1774526Y2061522D1*
X1773032Y2054179D1*
X1770570Y2047100D1*
X1767186Y2040413D1*
X1762939Y2034238D1*
X1757907Y2028685D1*
X1752178Y2023853D1*
X1745856Y2019828D1*
X1739053Y2016684D1*
X1731891Y2014476D1*
X1724499Y2013243D1*
X1717008Y2013008D1*
X1709553Y2013775D1*
X1702267Y2015529D1*
X1695281Y2018241D1*
X1688718Y2021861D1*
X1682698Y2026324D1*
X1677327Y2031551D1*
X1672702Y2037448D1*
X1668257Y2045277D1*
X1662082Y2041870D1*
X1654955Y2039860D1*
X1650028Y2039472D1*
X1193501Y2039569D1*
X1186238Y2041014D1*
X1179514Y2044114D1*
X1173699Y2048699D1*
X1154020Y2068515D1*
X1149906Y2074672D1*
X1147343Y2081619D1*
X1146472Y2088972D1*
X1146569Y2555444D1*
X1148014Y2562707D1*
X1151114Y2569431D1*
X1155699Y2575246D1*
X1201446Y2620994D1*
X1200472Y2631500D1*
X1201162Y2640265D1*
X1203304Y2649055D1*
X1191387Y2660593D1*
X1180547Y2671570D1*
X1176433Y2677727D1*
X1173870Y2684674D1*
X1173000Y2692028D1*
Y2834752D1*
X1166121Y2833257D1*
X1156500Y2832500D1*
X1146879Y2833257D1*
X1137495Y2835510D1*
X1128580Y2839203D1*
X1120351Y2844245D1*
X1119003Y2845308D1*
X1118906Y2640717D1*
X1117507Y2633685D1*
X1114506Y2627174D1*
X1110067Y2621543D1*
X1039529Y2551005D1*
X1042797Y2542477D1*
X1045931Y2529423D1*
X1046984Y2516039D1*
X1045931Y2502656D1*
X1042797Y2489601D1*
X1037659Y2477198D1*
X1030645Y2465751D1*
X1021926Y2455543D1*
X1011717Y2446824D1*
X1000270Y2439809D1*
X987867Y2434672D1*
X974813Y2431538D1*
X961429Y2430484D1*
X948045Y2431538D1*
X934991Y2434672D1*
X922588Y2439809D1*
X911141Y2446824D1*
X900933Y2455543D1*
X892214Y2465751D1*
X885199Y2477198D1*
X881560Y2485539D1*
X726322D1*
X721332Y2481381D1*
X715111Y2477568D1*
X708369Y2474776D1*
X701274Y2473072D1*
X694000Y2472500D1*
X687986Y2472923D1*
X688000Y2190143D1*
X697648Y2190357D1*
X704855Y2189215D1*
X711795Y2186960D1*
X718296Y2183648D1*
X724199Y2179359D1*
X728149Y2175508D1*
X881158Y2175500D1*
X885199Y2184802D1*
X892214Y2196249D1*
X900933Y2206457D1*
X911141Y2215176D1*
X922588Y2222191D1*
X934991Y2227328D1*
X948045Y2230462D1*
X961429Y2231516D1*
X974813Y2230462D1*
X987867Y2227328D1*
X1000270Y2222191D1*
X1011717Y2215176D1*
X1021926Y2206457D1*
X1030645Y2196249D1*
X1037659Y2184802D1*
X1042797Y2172399D1*
X1045931Y2159344D1*
X1046984Y2145961D1*
X1045931Y2132577D1*
X1042797Y2119523D1*
X1037659Y2107119D1*
X1030645Y2095673D1*
X1021926Y2085464D1*
X1011717Y2076745D1*
X1000270Y2069730D1*
X987867Y2064593D1*
X974813Y2061459D1*
X961429Y2060406D1*
X948045Y2061459D1*
X934991Y2064593D1*
X922588Y2069730D1*
X911141Y2076745D1*
X900933Y2085464D1*
X892214Y2095673D1*
X885199Y2107119D1*
X882727Y2112481D1*
X728177Y2112500D1*
X724199Y2108641D1*
X718296Y2104352D1*
X711795Y2101040D1*
X704855Y2098785D1*
X697648Y2097643D1*
X690352D1*
X687986Y2097923D1*
X687903Y1716529D1*
X686458Y1709266D1*
X683358Y1702541D1*
X678767Y1696720D1*
X662990Y1682997D1*
X663000Y1649533D1*
X669891Y1652768D1*
X681484Y1656535D1*
X693523Y1658442D1*
X724618Y1658681D1*
X764768Y1658442D1*
X776808Y1656535D1*
X788400Y1652768D1*
X799261Y1647234D1*
X809123Y1640069D1*
X817742Y1631450D1*
X824907Y1621588D1*
X829633Y1612480D1*
X1188971Y1612403D1*
X1196234Y1610958D1*
X1202959Y1607858D1*
X1208774Y1603274D1*
X1210742Y1601306D1*
X1216883Y1608617D1*
X1223568Y1614327D1*
X1231236Y1619000D1*
X1223568Y1623673D1*
X1216883Y1629383D1*
X1211173Y1636068D1*
X1206579Y1643564D1*
X1203215Y1651687D1*
X1201162Y1660235D1*
X1200472Y1669000D1*
X1201162Y1677765D1*
X1203215Y1686313D1*
X1206579Y1694436D1*
X1211173Y1701932D1*
X1216883Y1708617D1*
X1223568Y1714327D1*
X1231236Y1719000D1*
X1223568Y1723673D1*
X1216883Y1729383D1*
X1211173Y1736068D1*
X1209731Y1738225D1*
X1206255Y1732851D1*
X1199987Y1725513D1*
X1192649Y1719245D1*
X1184420Y1714203D1*
X1175505Y1710510D1*
X1166121Y1708257D1*
X1156500Y1707500D1*
X1146879Y1708257D1*
X1137495Y1710510D1*
X1128580Y1714203D1*
X1120351Y1719245D1*
X1113013Y1725513D1*
X1106745Y1732851D1*
X1101703Y1741080D1*
X1098010Y1749995D1*
X1095757Y1759379D1*
X1095000Y1769000D1*
X1095757Y1778621D1*
X1098010Y1788005D1*
X1101703Y1796920D1*
X1106745Y1805149D1*
X1113013Y1812487D1*
X1120712Y1818996D1*
X1113013Y1825513D1*
X1106745Y1832851D1*
X1101703Y1841080D1*
X1098010Y1849995D1*
X1095757Y1859379D1*
X1095000Y1869000D1*
X1095757Y1878621D1*
X1098010Y1888005D1*
X1101703Y1896920D1*
X1106745Y1905149D1*
X1113013Y1912487D1*
X1120712Y1918996D1*
X1114747Y1923845D1*
X1107988Y1931200D1*
X1102509Y1939552D1*
X1098454Y1948681D1*
X1095930Y1958346D1*
X1095004Y1968292D1*
X1095701Y1978257D1*
X1098001Y1987977D1*
X1101845Y1997197D1*
X1107131Y2005673D1*
X1113719Y2013181D1*
X1121435Y2019524D1*
X1130077Y2024534D1*
X1139416Y2028079D1*
X1149205Y2030066D1*
X1159187Y2030441D1*
X1169098Y2029196D1*
X1178677Y2026362D1*
X1187671Y2022016D1*
X1195842Y2016270D1*
X1200473Y2011977D1*
Y2025027D1*
X1312528D1*
Y1912972D1*
X1291229D1*
X1296117Y1908617D1*
X1301827Y1901932D1*
X1306421Y1894436D1*
X1309785Y1886313D1*
X1311838Y1877765D1*
X1312528Y1869000D1*
X1311838Y1860235D1*
X1309785Y1851687D1*
X1306421Y1843564D1*
X1301827Y1836068D1*
X1296117Y1829383D1*
X1289432Y1823673D1*
X1281764Y1819000D1*
X1289432Y1814327D1*
X1296117Y1808617D1*
X1301827Y1801932D1*
X1306421Y1794436D1*
X1309785Y1786313D1*
X1311838Y1777765D1*
X1312505Y1769567D1*
X1484042Y1940953D1*
X1490199Y1945067D1*
X1497146Y1947630D1*
X1502038Y1948403D1*
X1503215Y1951687D1*
X1501162Y1960235D1*
X1500472Y1969000D1*
X1501162Y1977765D1*
X1503215Y1986313D1*
X1506579Y1994436D1*
X1511173Y2001932D1*
X1516883Y2008617D1*
X1523568Y2014327D1*
X1531064Y2018921D1*
X1539187Y2022285D1*
X1547735Y2024338D1*
X1556500Y2025028D1*
X1565265Y2024338D1*
X1573813Y2022285D1*
X1581936Y2018921D1*
X1589432Y2014327D1*
X1596117Y2008617D1*
X1601827Y2001932D1*
X1603269Y1999775D1*
X1606745Y2005149D1*
X1613013Y2012487D1*
X1620351Y2018755D1*
X1628580Y2023797D1*
X1637495Y2027490D1*
X1646879Y2029743D1*
X1656500Y2030500D1*
X1666121Y2029743D1*
X1675505Y2027490D1*
X1684420Y2023797D1*
X1692649Y2018755D1*
X1699987Y2012487D1*
X1706255Y2005149D1*
X1711297Y1996920D1*
X1714990Y1988005D1*
X1717243Y1978621D1*
X1718000Y1969000D1*
X1717810Y1964175D1*
X1209297Y1837508D2*
X1203265Y1829059D1*
X1196441Y1822235D1*
X1192288Y1819004D1*
X1199987Y1812487D1*
X1206255Y1805149D1*
X1209684Y1799801D1*
X1213896Y1805387D1*
X1220113Y1811604D1*
X1227226Y1816771D1*
X1231064Y1819079D1*
X1223568Y1823673D1*
X1216883Y1829383D1*
X1211173Y1836068D1*
X1210208Y1837511D1*
X1753857Y1084138D2*
X1884357D1*
Y941138D1*
X1860285D1*
X1867226Y934060D1*
X1873821Y924983D1*
X1878914Y914987D1*
X1882381Y904316D1*
X1884137Y893234D1*
Y882015D1*
X1882381Y870933D1*
X1878914Y860263D1*
X1873821Y850266D1*
X1867226Y841189D1*
X1859292Y833256D1*
X1850216Y826661D1*
X1840219Y821567D1*
X1832356Y818892D1*
X1840219Y816168D1*
X1850216Y811074D1*
X1859292Y804479D1*
X1867226Y796546D1*
X1873821Y787469D1*
X1878914Y777472D1*
X1882381Y766802D1*
X1884137Y755720D1*
Y744500D1*
X1882381Y733419D1*
X1878914Y722748D1*
X1873821Y712752D1*
X1867226Y703675D1*
X1859292Y695741D1*
X1850216Y689146D1*
X1847479Y687614D1*
X1854894Y682889D1*
X1863426Y675603D1*
X1870712Y667071D1*
X1876574Y657505D1*
X1880868Y647139D1*
X1883487Y636230D1*
X1884367Y625045D1*
X1883487Y613860D1*
X1880868Y602950D1*
X1876574Y592584D1*
X1870712Y583018D1*
X1863426Y574486D1*
X1854894Y567200D1*
X1845328Y561338D1*
X1834962Y557044D1*
X1824053Y554425D1*
X1812867Y553545D1*
X1801682Y554425D1*
X1790773Y557044D1*
X1780407Y561338D1*
X1770841Y567200D1*
X1762309Y574486D1*
X1755023Y583018D1*
X1749160Y592584D1*
X1744867Y602950D1*
X1742248Y613860D1*
X1741367Y625045D1*
X1742248Y636230D1*
X1744867Y647139D1*
X1749160Y657505D1*
X1755023Y667071D1*
X1762309Y675603D1*
X1770841Y682889D1*
X1778245Y687541D1*
X1770830Y692266D1*
X1762299Y699552D1*
X1755012Y708084D1*
X1749150Y717650D1*
X1744856Y728016D1*
X1742237Y738925D1*
X1741357Y750110D1*
X1742237Y761295D1*
X1744856Y772205D1*
X1749150Y782571D1*
X1755012Y792137D1*
X1762299Y800668D1*
X1770830Y807955D1*
X1780397Y813817D1*
X1790762Y818111D1*
X1793358Y818843D1*
X1785495Y821567D1*
X1775498Y826661D1*
X1766421Y833256D1*
X1758488Y841189D1*
X1751893Y850266D1*
X1746800Y860263D1*
X1743333Y870933D1*
X1741577Y882015D1*
Y893234D1*
X1743333Y904316D1*
X1746800Y914987D1*
X1751893Y924983D1*
X1758488Y934060D1*
X1765503Y941145D1*
X1741357Y941138D1*
Y1084138D1*
X1753857D1*
X2284137Y1007028D2*
X2282381Y995946D1*
X2278914Y985276D1*
X2273821Y975279D1*
X2267226Y966202D1*
X2259292Y958269D1*
X2250216Y951674D1*
X2247518Y950163D1*
X2254884Y945469D1*
X2263415Y938183D1*
X2270702Y929651D1*
X2276564Y920085D1*
X2280857Y909719D1*
X2283477Y898810D1*
X2284357Y887625D1*
X2283477Y876440D1*
X2280857Y865530D1*
X2276564Y855164D1*
X2270702Y845598D1*
X2263415Y837067D1*
X2254884Y829780D1*
X2245317Y823918D1*
X2234952Y819624D1*
X2232356Y818892D1*
X2240219Y816168D1*
X2250216Y811074D1*
X2259292Y804479D1*
X2267226Y796546D1*
X2273821Y787469D1*
X2278914Y777472D1*
X2282381Y766802D1*
X2284137Y755720D1*
Y744500D1*
X2282381Y733419D1*
X2278914Y722748D1*
X2273821Y712752D1*
X2267226Y703675D1*
X2260146Y696530D1*
X2284368Y696545D1*
Y553545D1*
X2141368D1*
Y696545D1*
X2165537D1*
X2158488Y703675D1*
X2151893Y712752D1*
X2146800Y722748D1*
X2143333Y733419D1*
X2141577Y744500D1*
Y755720D1*
X2143333Y766802D1*
X2146800Y777472D1*
X2151893Y787469D1*
X2158488Y796546D1*
X2166421Y804479D1*
X2175498Y811074D1*
X2185495Y816168D1*
X2193358Y818843D1*
X2185495Y821567D1*
X2175498Y826661D1*
X2166421Y833256D1*
X2158488Y841189D1*
X2151893Y850266D1*
X2146800Y860263D1*
X2143333Y870933D1*
X2141577Y882015D1*
Y893234D1*
X2143333Y904316D1*
X2146800Y914987D1*
X2151893Y924983D1*
X2158488Y934060D1*
X2166421Y941994D1*
X2175498Y948588D1*
X2178196Y950099D1*
X2170830Y954793D1*
X2162299Y962080D1*
X2155012Y970611D1*
X2149150Y980177D1*
X2144856Y990543D1*
X2142237Y1001453D1*
X2141357Y1012638D1*
X2142237Y1023823D1*
X2144856Y1034733D1*
X2149150Y1045098D1*
X2155012Y1054664D1*
X2162299Y1063196D1*
X2170830Y1070483D1*
X2180397Y1076345D1*
X2190762Y1080638D1*
X2201672Y1083258D1*
X2212857Y1084138D1*
X2224042Y1083258D1*
X2234952Y1080638D1*
X2245317Y1076345D1*
X2254884Y1070483D1*
X2263415Y1063196D1*
X2270702Y1054664D1*
X2276564Y1045098D1*
X2280857Y1034733D1*
X2283477Y1023823D1*
X2284357Y1012638D1*
X2284137Y1007028D1*
X2456504Y2704788D2*
X2463013Y2712487D1*
X2470351Y2718755D1*
X2478580Y2723797D1*
X2487495Y2727490D1*
X2496879Y2729743D1*
X2506500Y2730500D1*
X2516121Y2729743D1*
X2523017Y2728191D1*
X2522859Y2786761D1*
X2517699Y2781602D1*
X2511796Y2777313D1*
X2505295Y2774000D1*
X2498355Y2771745D1*
X2491148Y2770604D1*
X2485633Y2770534D1*
X2437302Y2722215D1*
X2442649Y2718755D1*
X2449987Y2712487D1*
X2456496Y2704788D1*
X2346899Y2653935D2*
X2345190Y2664175D1*
Y2673825D1*
X2346699Y2683357D1*
X2347309Y2685517D1*
X2093838Y2685500D1*
X2089880Y2681641D1*
X2083977Y2677352D1*
X2077476Y2674040D1*
X2074867Y2673077D1*
X2074855Y2664604D1*
X2073480Y2655921D1*
X2071114Y2648510D1*
X2341404Y2648500D1*
X2370712Y2519004D2*
X2363013Y2525513D1*
X2356745Y2532851D1*
X2351703Y2541080D1*
X2348010Y2549995D1*
X2345757Y2559379D1*
X2345000Y2569000D1*
X2345757Y2578621D1*
X2347309Y2585517D1*
X2260018Y2585500D1*
X2265081Y2580467D1*
X2274274Y2579928D1*
X2281369Y2578224D1*
X2288111Y2575432D1*
X2294332Y2571619D1*
X2299880Y2566880D1*
X2304619Y2561332D1*
X2308432Y2555111D1*
X2311224Y2548369D1*
X2312928Y2541274D1*
X2313500Y2534000D1*
X2312928Y2526726D1*
X2311224Y2519631D1*
X2308432Y2512889D1*
X2304619Y2506668D1*
X2299880Y2501120D1*
X2294332Y2496381D1*
X2288111Y2492568D1*
X2281369Y2489776D1*
X2277282Y2488671D1*
X2279743Y2478621D1*
X2280500Y2469000D1*
X2279743Y2459379D1*
X2277490Y2449995D1*
X2276935Y2448491D1*
X2341490Y2448500D1*
X2346699Y2454643D1*
X2345190Y2464175D1*
Y2473825D1*
X2346699Y2483357D1*
X2349681Y2492535D1*
X2354063Y2501134D1*
X2359735Y2508941D1*
X2366559Y2515765D1*
X2370712Y2518996D1*
X2346899Y2353935D2*
X2345190Y2364175D1*
Y2373825D1*
X2346699Y2383357D1*
X2347309Y2385517D1*
X2178279Y2385500D1*
X2179743Y2378621D1*
X2180500Y2369000D1*
X2179743Y2359379D1*
X2177490Y2349995D1*
X2176935Y2348491D1*
X2341455Y2348500D1*
X2346899Y2253935D2*
X2345190Y2264175D1*
Y2273825D1*
X2346699Y2283357D1*
X2347309Y2285517D1*
X2072518Y2285500D1*
X2074338Y2277765D1*
X2075028Y2269000D1*
X2074338Y2260235D1*
X2072285Y2251687D1*
X2071114Y2248510D1*
X2341416Y2248500D1*
X2346899Y2153935D2*
X2345190Y2164175D1*
Y2173825D1*
X2346699Y2183357D1*
X2347309Y2185517D1*
X2072518Y2185500D1*
X2074338Y2177765D1*
X2075028Y2169000D1*
X2074338Y2160235D1*
X2072285Y2151687D1*
X2071114Y2148510D1*
X2341447Y2148500D1*
X479419Y1688208D2*
X600005D1*
X600388Y1702361D1*
X602398Y1709488D1*
X606016Y1715948D1*
X610924Y1721285D1*
X625010Y1733436D1*
X625000Y2174518D1*
X615371Y2169562D1*
X609196Y2167395D1*
X611960Y2161795D1*
X614215Y2154855D1*
X615357Y2147648D1*
Y2140352D1*
X614215Y2133145D1*
X611960Y2126205D1*
X608648Y2119704D1*
X604359Y2113801D1*
X599199Y2108641D1*
X593296Y2104352D1*
X586795Y2101040D1*
X579855Y2098785D1*
X572648Y2097643D1*
X565352D1*
X558145Y2098785D1*
X551205Y2101040D1*
X544704Y2104352D1*
X538801Y2108641D1*
X533641Y2113801D1*
X529352Y2119704D1*
X526040Y2126205D1*
X523785Y2133145D1*
X522643Y2140352D1*
Y2147648D1*
X523785Y2154855D1*
X526040Y2161795D1*
X529352Y2168296D1*
X533641Y2174199D1*
X537492Y2178149D1*
X537500Y2190045D1*
X530645Y2180318D1*
X521926Y2170110D1*
X511717Y2161391D1*
X500270Y2154376D1*
X487867Y2149239D1*
X474813Y2146105D1*
X461429Y2145051D1*
X448045Y2146105D1*
X434991Y2149239D1*
X426520Y2152563D1*
X426500Y1830885D1*
X434291Y1830677D1*
X446788Y1828697D1*
X458822Y1824787D1*
X470096Y1819043D1*
X480332Y1811606D1*
X489279Y1802659D1*
X496716Y1792422D1*
X502461Y1781149D1*
X506371Y1769115D1*
X508350Y1756618D1*
Y1743965D1*
X506371Y1731468D1*
X502461Y1719434D1*
X496716Y1708160D1*
X489279Y1697924D1*
X480332Y1688977D1*
X468394Y1678791D1*
Y1680520D1*
X458822Y1675795D1*
X446788Y1671885D1*
X434291Y1669906D1*
X426507Y1669715D1*
X426500Y1492311D1*
X434291Y1492094D1*
X446788Y1490115D1*
X458822Y1486205D1*
X468391Y1481415D1*
X468394Y1678791D1*
X599991Y1473791D2*
X479425D1*
X484981Y1468725D1*
X493199Y1459104D1*
X499810Y1448316D1*
X504652Y1436626D1*
X507606Y1424323D1*
X508598Y1411709D1*
X507606Y1399095D1*
X504652Y1386791D1*
X499810Y1375102D1*
X493199Y1364313D1*
X484981Y1354692D1*
X475360Y1346474D1*
X464572Y1339863D1*
X452882Y1335021D1*
X440578Y1332068D1*
X427965Y1331075D1*
X426507Y1331132D1*
X426500Y1080885D1*
X434291Y1080677D1*
X446788Y1078697D1*
X458822Y1074787D1*
X470096Y1069043D1*
X480332Y1061606D1*
X489279Y1052659D1*
X496716Y1042422D1*
X502461Y1031149D1*
X506371Y1019115D1*
X508350Y1006618D1*
Y993965D1*
X506371Y981468D1*
X502461Y969434D1*
X496716Y958160D1*
X489279Y947924D1*
X480332Y938977D1*
X479342Y938196D1*
X635567Y938209D1*
Y874957D1*
X640549Y881450D1*
X649168Y890069D1*
X659030Y897234D1*
X669891Y902768D1*
X681484Y906535D1*
X693523Y908442D1*
X699642Y908680D1*
X701079Y909482D1*
X705193Y915639D1*
X751031Y961615D1*
X751000Y1118799D1*
X741820Y1108680D1*
X733884Y1101344D1*
X725398Y1094654D1*
X716412Y1088650D1*
X706983Y1083370D1*
X697169Y1078845D1*
X687030Y1075105D1*
X676629Y1072172D1*
X666030Y1070063D1*
X655298Y1068793D1*
X644500Y1068369D1*
X633702Y1068793D1*
X622970Y1070063D1*
X612371Y1072172D1*
X601970Y1075105D1*
X591831Y1078845D1*
X582017Y1083370D1*
X572588Y1088650D1*
X563602Y1094654D1*
X555116Y1101344D1*
X547180Y1108680D1*
X539844Y1116616D1*
X533154Y1125102D1*
X527150Y1134088D1*
X521870Y1143517D1*
X517345Y1153331D1*
X513605Y1163470D1*
X510672Y1173871D1*
X508563Y1184470D1*
X507293Y1195202D1*
X506869Y1206000D1*
X507293Y1216798D1*
X508563Y1227530D1*
X510672Y1238129D1*
X513605Y1248530D1*
X517345Y1258669D1*
X521870Y1268483D1*
X527150Y1277912D1*
X533154Y1286898D1*
X539844Y1295384D1*
X547180Y1303320D1*
X555116Y1310656D1*
X563602Y1317346D1*
X572588Y1323350D1*
X582017Y1328630D1*
X591831Y1333155D1*
X601970Y1336895D1*
X612371Y1339828D1*
X622970Y1341937D1*
X633702Y1343207D1*
X644500Y1343631D1*
X655298Y1343207D1*
X666030Y1341937D1*
X676629Y1339828D1*
X687030Y1336895D1*
X697169Y1333155D1*
X706983Y1328630D1*
X716412Y1323350D1*
X725398Y1317346D1*
X733884Y1310656D1*
X741820Y1303320D1*
X751011Y1293031D1*
X751000Y1309717D1*
X607547Y1453326D1*
X603433Y1459483D1*
X600870Y1466430D1*
X600000Y1473832D1*
X468394Y731477D2*
Y930520D1*
X458822Y925795D1*
X446788Y921885D1*
X434291Y919906D1*
X426507Y919715D1*
X426500Y742311D1*
X434291Y742094D1*
X446788Y740115D1*
X458822Y736205D1*
X468391Y731415D1*
X1039018Y2979631D2*
X1029191Y2976476D1*
X1018110Y2974720D1*
X1006890D1*
X995809Y2976476D1*
X985138Y2979943D1*
X975141Y2985036D1*
X966064Y2991631D1*
X958131Y2999564D1*
X951536Y3008641D1*
X946443Y3018638D1*
X942976Y3029309D1*
X941220Y3040390D1*
X941000Y3083500D1*
X941220Y3121610D1*
X942976Y3132691D1*
X946443Y3143362D1*
X951536Y3153359D1*
X958131Y3162436D1*
X966064Y3170369D1*
X975141Y3176964D1*
X985138Y3182057D1*
X995809Y3185524D1*
X1006890Y3187280D1*
X1018110D1*
X1029191Y3185524D1*
X1039862Y3182057D1*
X1049859Y3176964D1*
X1058936Y3170369D1*
X1065663Y3163740D1*
X1069985Y3167484D1*
X1076445Y3171102D1*
X1083572Y3173112D1*
X1088500Y3173500D1*
X1098510D1*
X1095757Y3184379D1*
X1095000Y3194000D1*
X1095757Y3203621D1*
X1098010Y3213005D1*
X1101703Y3221920D1*
X1106745Y3230149D1*
X1113013Y3237487D1*
X1120351Y3243755D1*
X1128580Y3248797D1*
X1137495Y3252490D1*
X1146879Y3254743D1*
X1156500Y3255500D1*
X1166121Y3254743D1*
X1171565Y3253601D1*
X1173017Y3259809D1*
X1166121Y3258257D1*
X1156500Y3257500D1*
X1146879Y3258257D1*
X1137495Y3260510D1*
X1128580Y3264203D1*
X1120351Y3269245D1*
X1113013Y3275513D1*
X1106745Y3282851D1*
X1101703Y3291080D1*
X1098010Y3299995D1*
X1095757Y3309379D1*
X1095000Y3319000D1*
X1095232Y3324181D1*
X1089015Y3318516D1*
X1082555Y3314898D1*
X1075428Y3312888D1*
X1070500Y3312500D1*
X834318D1*
X828265Y3304059D1*
X821441Y3297235D1*
X813634Y3291563D1*
X805035Y3287181D1*
X795857Y3284199D1*
X786325Y3282690D1*
X776675D1*
X767143Y3284199D1*
X757965Y3287181D1*
X749366Y3291563D1*
X741559Y3297235D1*
X734735Y3304059D1*
X729063Y3311866D1*
X724681Y3320465D1*
X721699Y3329643D1*
X720190Y3339175D1*
Y3348825D1*
X721699Y3358357D1*
X724681Y3367535D1*
X729063Y3376134D1*
X734735Y3383941D1*
X741559Y3390765D1*
X745712Y3393996D1*
X738013Y3400513D1*
X731745Y3407851D1*
X726703Y3416080D1*
X723010Y3424995D1*
X720757Y3434379D1*
X720000Y3444000D1*
X720757Y3453621D1*
X723010Y3463005D1*
X726703Y3471920D1*
X731745Y3480149D1*
X738013Y3487487D1*
X745351Y3493755D1*
X753580Y3498797D1*
X762495Y3502490D1*
X771879Y3504743D1*
X781500Y3505500D1*
X791121Y3504743D1*
X800505Y3502490D1*
X809420Y3498797D1*
X817649Y3493755D1*
X819530Y3492271D1*
X819000Y3501000D1*
X819880Y3512185D1*
X822499Y3523095D1*
X826793Y3533460D1*
X832655Y3543027D1*
X835411Y3546523D1*
X707425Y3674527D1*
X660100Y3674500D1*
X655300Y3666912D1*
X648523Y3658977D1*
X645332Y3656028D1*
X652067Y3649188D1*
X658201Y3640746D1*
X662938Y3631448D1*
X666163Y3621524D1*
X667795Y3611218D1*
Y3600782D1*
X666163Y3590476D1*
X662938Y3580552D1*
X658201Y3571254D1*
X652067Y3562812D1*
X644688Y3555433D1*
X636246Y3549299D1*
X626948Y3544562D1*
X617024Y3541337D1*
X606718Y3539705D1*
X596282D1*
X585976Y3541337D1*
X576052Y3544562D1*
X566754Y3549299D1*
X558312Y3555433D1*
X550933Y3562812D1*
X544799Y3571254D1*
X540062Y3580552D1*
X536837Y3590476D1*
X535205Y3600782D1*
Y3611218D1*
X535332Y3612291D1*
X527953Y3607809D1*
X518817Y3603762D1*
X509206Y3601029D1*
X499308Y3599662D1*
X489316Y3599688D1*
X479426Y3601107D1*
X469830Y3603891D1*
X460715Y3607985D1*
X452261Y3613310D1*
X444631Y3619762D1*
X437975Y3627214D1*
X432423Y3635522D1*
X428083Y3644522D1*
X426499Y3648922D1*
X426703Y3471920D1*
X431745Y3480149D1*
X438013Y3487487D1*
X445351Y3493755D1*
X453580Y3498797D1*
X462495Y3502490D1*
X471879Y3504743D1*
X481500Y3505500D1*
X491121Y3504743D1*
X500505Y3502490D1*
X509420Y3498797D1*
X517649Y3493755D1*
X524987Y3487487D1*
X531255Y3480149D1*
X536297Y3471920D1*
X539990Y3463005D1*
X542243Y3453621D1*
X543000Y3444000D1*
X542243Y3434379D1*
X539990Y3424995D1*
X536297Y3416080D1*
X531255Y3407851D1*
X524987Y3400513D1*
X517288Y3394004D1*
X524987Y3387487D1*
X531255Y3380149D1*
X536297Y3371920D1*
X539990Y3363005D1*
X542243Y3353621D1*
X543000Y3344000D1*
X542243Y3334379D1*
X539990Y3324995D1*
X536297Y3316080D1*
X531255Y3307851D1*
X524987Y3300513D1*
X517649Y3294245D1*
X509420Y3289203D1*
X500505Y3285510D1*
X491121Y3283257D1*
X481500Y3282500D1*
X471879Y3283257D1*
X462495Y3285510D1*
X453580Y3289203D1*
X445351Y3294245D1*
X438013Y3300513D1*
X431745Y3307851D1*
X426506Y3316508D1*
X426628Y3138488D1*
X430426Y3147730D1*
X435475Y3156352D1*
X441677Y3164187D1*
X448910Y3171080D1*
X457033Y3176898D1*
X465889Y3181526D1*
X475303Y3184875D1*
X485092Y3186878D1*
X495064Y3187498D1*
X505026Y3186721D1*
X514782Y3184563D1*
X524142Y3181066D1*
X532923Y3176299D1*
X534999Y3174924D1*
X535000Y3247500D1*
X668000D1*
Y3114500D1*
X658948D1*
X664000Y3112500D1*
X722971Y3112403D1*
X730234Y3110958D1*
X736959Y3107858D1*
X742774Y3103274D1*
X898524Y2947524D1*
X966110Y2947280D1*
X977191Y2945524D1*
X987862Y2942057D1*
X997859Y2936964D1*
X1006936Y2930369D1*
X1014869Y2922436D1*
X1021464Y2913359D1*
X1026557Y2903362D1*
X1030024Y2892691D1*
X1031780Y2881610D1*
Y2870390D1*
X1030024Y2859309D1*
X1026557Y2848638D1*
X1021464Y2838641D1*
X1014869Y2829564D1*
X1006936Y2821631D1*
X997859Y2815036D1*
X987862Y2809943D1*
X977191Y2806476D1*
X966110Y2804720D1*
X923000Y2804500D1*
X884890Y2804720D1*
X873809Y2806476D1*
X863138Y2809943D1*
X853141Y2815036D1*
X844064Y2821631D1*
X836131Y2829564D1*
X829536Y2838641D1*
X824443Y2848638D1*
X820976Y2859309D1*
X819220Y2870390D1*
Y2881610D1*
X820976Y2892691D1*
X824443Y2903362D1*
X829536Y2913359D1*
X835411Y2921523D1*
X707425Y3049527D1*
X660100Y3049500D1*
X655300Y3041912D1*
X648523Y3033977D1*
X645332Y3031028D1*
X652067Y3024188D1*
X658201Y3015746D1*
X662938Y3006448D1*
X666163Y2996524D1*
X667795Y2986218D1*
Y2975782D1*
X666163Y2965476D1*
X662938Y2955552D1*
X658201Y2946254D1*
X652067Y2937812D1*
X644688Y2930433D1*
X636246Y2924299D1*
X626948Y2919562D1*
X617024Y2916337D1*
X606718Y2914705D1*
X596282D1*
X585976Y2916337D1*
X576052Y2919562D1*
X566754Y2924299D1*
X558312Y2930433D1*
X550933Y2937812D1*
X544799Y2946254D1*
X540062Y2955552D1*
X536837Y2965476D1*
X535205Y2975782D1*
Y2986218D1*
X535332Y2987291D1*
X527953Y2982809D1*
X518817Y2978762D1*
X509206Y2976029D1*
X499308Y2974662D1*
X489316Y2974688D1*
X479426Y2976107D1*
X469830Y2978891D1*
X460715Y2982985D1*
X452261Y2988310D1*
X444631Y2994762D1*
X437975Y3002214D1*
X432423Y3010522D1*
X428083Y3019522D1*
X426499Y3023922D1*
X426500Y2509498D1*
X434991Y2512761D1*
X448045Y2515895D1*
X461429Y2516949D1*
X474813Y2515895D1*
X487867Y2512761D1*
X500270Y2507624D1*
X511717Y2500609D1*
X521926Y2491890D1*
X524865Y2488711D1*
X524850Y2497500D1*
X527731D1*
X524776Y2504631D1*
X523072Y2511726D1*
X522500Y2519000D1*
X523072Y2526274D1*
X524776Y2533369D1*
X527568Y2540111D1*
X531381Y2546332D1*
X536120Y2551880D1*
X541668Y2556619D1*
X547889Y2560432D1*
X554631Y2563224D1*
X561726Y2564928D1*
X569000Y2565500D1*
X576274Y2564928D1*
X583369Y2563224D1*
X590111Y2560432D1*
X596332Y2556619D1*
X601880Y2551880D1*
X606619Y2546332D1*
X610432Y2540111D1*
X613224Y2533369D1*
X614928Y2526274D1*
X615500Y2519000D1*
X615361Y2515451D1*
X618526Y2510496D1*
X621008Y2503770D1*
X621757Y2499033D1*
X624997Y2497500D1*
X621475Y2501421D1*
X621756Y2499043D1*
X625000Y2497467D1*
X625097Y2646471D1*
X626542Y2653734D1*
X629642Y2660459D1*
X634226Y2666274D1*
X702453Y2734364D1*
X708610Y2738478D1*
X715557Y2741040D1*
X722911Y2741911D1*
X1038975D1*
X1039000Y2979631D1*
X2432131Y3466464D2*
X2541465D1*
Y3451181D1*
X2550169Y3457628D1*
X2558553Y3461900D1*
X2567502Y3464808D1*
X2576795Y3466280D1*
X2586205D1*
X2595498Y3464808D1*
X2604447Y3461900D1*
X2610986Y3458662D1*
X2611000Y3861607D1*
X2605149Y3856745D1*
X2596920Y3851703D1*
X2588005Y3848010D1*
X2578621Y3845757D1*
X2569000Y3845000D1*
X2559379Y3845757D1*
X2549995Y3848010D1*
X2542810Y3850905D1*
X2539274Y3846722D1*
X2519458Y3827043D1*
X2513301Y3822929D1*
X2506354Y3820366D1*
X2499000Y3819496D1*
X2413014D1*
X2414329Y3810896D1*
X2414281Y3801506D1*
X2413154Y3794097D1*
X2411082Y3786894D1*
X2408097Y3780019D1*
X2404252Y3773586D1*
X2399608Y3767703D1*
X2394245Y3762468D1*
X2388252Y3757968D1*
X2385884Y3756505D1*
X2394165Y3750601D1*
X2400601Y3744165D1*
X2405950Y3736803D1*
X2410081Y3728694D1*
X2412894Y3720039D1*
X2414317Y3711050D1*
Y3701950D1*
X2412894Y3692961D1*
X2410081Y3684306D1*
X2405950Y3676197D1*
X2400601Y3668835D1*
X2394165Y3662399D1*
X2385856Y3656520D1*
X2394165Y3650601D1*
X2400601Y3644165D1*
X2405950Y3636803D1*
X2410081Y3628694D1*
X2412894Y3620039D1*
X2414317Y3611050D1*
Y3601950D1*
X2412894Y3592961D1*
X2410081Y3584306D1*
X2405950Y3576197D1*
X2400601Y3568835D1*
X2394165Y3562399D1*
X2385856Y3556520D1*
X2394165Y3550601D1*
X2400601Y3544165D1*
X2405950Y3536803D1*
X2410081Y3528694D1*
X2412894Y3520039D1*
X2414317Y3511050D1*
Y3501950D1*
X2413175Y3494374D1*
X2424949Y3482462D1*
X2429063Y3476305D1*
X2431626Y3469357D1*
X2432109Y3466922D1*
X2531474Y3173441D2*
X2527097Y3167556D1*
X2520444Y3160903D1*
X2512831Y3155372D1*
X2504447Y3151100D1*
X2495498Y3148192D1*
X2486205Y3146720D1*
X2476795D1*
X2467502Y3148192D1*
X2458553Y3151100D1*
X2450169Y3155372D1*
X2442556Y3160903D1*
X2435903Y3167556D1*
X2430372Y3175169D1*
X2426100Y3183553D1*
X2423192Y3192502D1*
X2421720Y3201795D1*
Y3211205D1*
X2423153Y3220300D1*
X2412894Y3220039D1*
X2414317Y3211050D1*
Y3201950D1*
X2412894Y3192961D1*
X2410081Y3184306D1*
X2405950Y3176197D1*
X2400601Y3168835D1*
X2394165Y3162399D1*
X2385856Y3156520D1*
X2394165Y3150601D1*
X2400601Y3144165D1*
X2405950Y3136803D1*
X2410081Y3128694D1*
X2412894Y3120039D1*
X2414317Y3111050D1*
Y3101950D1*
X2412894Y3092961D1*
X2410081Y3084306D1*
X2405950Y3076197D1*
X2400601Y3068835D1*
X2394165Y3062399D1*
X2386803Y3057050D1*
X2379389Y3053239D1*
X2574971Y3053135D1*
X2582234Y3051691D1*
X2588959Y3048591D1*
X2594774Y3044006D1*
X2610967Y3027813D1*
X2611000Y3154283D1*
X2602722Y3150416D1*
X2595560Y3148207D1*
X2588178Y3146908D1*
X2580692Y3146541D1*
X2573219Y3147110D1*
X2565875Y3148607D1*
X2558775Y3151009D1*
X2552030Y3154277D1*
X2545745Y3158361D1*
X2540019Y3163198D1*
X2534941Y3168711D1*
X2531503Y3173415D1*
X1581320Y4000226D2*
X1588634Y3996437D1*
X1596441Y3990765D1*
X1602100Y3985202D1*
X1606745Y3992649D1*
X1613013Y3999987D1*
X1620351Y4006255D1*
X1628580Y4011297D1*
X1637495Y4014990D1*
X1647160Y4017276D1*
X1617243Y4046879D1*
X1614990Y4037495D1*
X1611297Y4028580D1*
X1606255Y4020351D1*
X1599987Y4013013D1*
X1592649Y4006745D1*
X1584420Y4001703D1*
X1581320Y4000274D1*
X1504639Y3711004D2*
X1499681Y3720465D1*
X1496699Y3729643D1*
X1495190Y3739175D1*
Y3748825D1*
X1496699Y3758357D1*
X1499681Y3767535D1*
X1504063Y3776134D1*
X1509735Y3783941D1*
X1516559Y3790765D1*
X1520712Y3793996D1*
X1513013Y3800513D1*
X1506745Y3807851D1*
X1501703Y3816080D1*
X1498010Y3824995D1*
X1495757Y3834379D1*
X1495000Y3844000D1*
X1495757Y3853621D1*
X1496899Y3859065D1*
X1466547Y3889542D1*
X1462433Y3895699D1*
X1459870Y3902646D1*
X1459000Y3910000D1*
X1459097Y3992971D1*
X1460542Y4000234D1*
X1463642Y4006959D1*
X1468226Y4012774D1*
X1496849Y4041397D1*
X1495190Y4051675D1*
Y4061325D1*
X1496699Y4070857D1*
X1497309Y4073017D1*
X1476717Y4073000D1*
X1469836Y4066881D1*
X1463614Y4063068D1*
X1456873Y4060276D1*
X1449778Y4058572D1*
X1442504Y4058000D1*
X1435230Y4058572D1*
X1428135Y4060276D1*
X1421393Y4063068D1*
X1415658Y4066556D1*
X1415575Y3807607D1*
X1414177Y3800575D1*
X1411175Y3794064D1*
X1406736Y3788433D1*
X1393789Y3775486D1*
X1399606Y3774630D1*
X1406553Y3772067D1*
X1412710Y3767953D1*
X1469803Y3710997D1*
X1504555Y3711000D1*
X1309297Y3712508D2*
X1306412Y3708086D1*
X1327692Y3686808D1*
X1331676Y3680847D1*
X1334157Y3674120D1*
X1335000Y3667000D1*
X1334906Y3057607D1*
X1333507Y3050575D1*
X1330506Y3044064D1*
X1326067Y3038433D1*
X1310702Y3023069D1*
X1311794Y3020841D1*
X1319500Y3021500D1*
X1326774Y3020928D1*
X1333869Y3019224D1*
X1340611Y3016432D1*
X1346832Y3012619D1*
X1352380Y3007880D1*
X1358078Y3000897D1*
X1358171Y3178469D1*
X1359615Y3185731D1*
X1362715Y3192456D1*
X1367300Y3198271D1*
X1387118Y3217953D1*
X1393275Y3222067D1*
X1400223Y3224630D1*
X1407576Y3225500D1*
X1503719D1*
X1509735Y3233941D1*
X1516559Y3240765D1*
X1524366Y3246437D1*
X1532965Y3250819D1*
X1542143Y3253801D1*
X1551675Y3255310D1*
X1561325D1*
X1571565Y3253601D1*
X1570857Y3259199D1*
X1561325Y3257690D1*
X1551675D1*
X1542143Y3259199D1*
X1532965Y3262181D1*
X1524366Y3266563D1*
X1516559Y3272235D1*
X1509735Y3279059D1*
X1504063Y3286866D1*
X1499681Y3295465D1*
X1496699Y3304643D1*
X1495190Y3314175D1*
Y3323825D1*
X1496699Y3333357D1*
X1499681Y3342535D1*
X1504063Y3351134D1*
X1509735Y3358941D1*
X1516559Y3365765D1*
X1520712Y3368996D1*
X1513013Y3375513D1*
X1506745Y3382851D1*
X1501703Y3391080D1*
X1498010Y3399995D1*
X1495757Y3409379D1*
X1495000Y3419000D1*
X1495757Y3428621D1*
X1498010Y3438005D1*
X1501703Y3446920D1*
X1506745Y3455149D1*
X1513013Y3462487D1*
X1520712Y3468996D1*
X1513013Y3475513D1*
X1506745Y3482851D1*
X1501703Y3491080D1*
X1498010Y3499995D1*
X1495757Y3509379D1*
X1495000Y3519000D1*
X1495757Y3528621D1*
X1497309Y3535517D1*
X1443705Y3535500D1*
X1436836Y3529381D1*
X1430614Y3525568D1*
X1423873Y3522776D1*
X1416778Y3521072D1*
X1409504Y3520500D1*
X1402230Y3521072D1*
X1395135Y3522776D1*
X1388393Y3525568D1*
X1382172Y3529381D1*
X1376623Y3534120D1*
X1371885Y3539668D1*
X1368072Y3545889D1*
X1365280Y3552631D1*
X1363576Y3559726D1*
X1363004Y3567000D1*
X1363576Y3574274D1*
X1365280Y3581369D1*
X1368072Y3588111D1*
X1371885Y3594332D1*
X1376623Y3599880D1*
X1382172Y3604619D1*
X1388393Y3608432D1*
X1395135Y3611224D1*
X1402230Y3612928D1*
X1409504Y3613500D1*
X1416778Y3612928D1*
X1423873Y3611224D1*
X1430614Y3608432D1*
X1436836Y3604619D1*
X1442384Y3599880D1*
X1443653Y3598508D1*
X1498518Y3598500D1*
X1496699Y3604643D1*
X1495190Y3614175D1*
Y3623825D1*
X1496699Y3633357D1*
X1499681Y3642535D1*
X1502302Y3647990D1*
X1454280Y3648097D1*
X1447018Y3649542D1*
X1440293Y3652642D1*
X1434478Y3657226D1*
X1379201Y3712503D1*
X1309293Y3712500D1*
X1308067Y3706567D1*
X1135000Y4239069D2*
X1142143Y4241301D1*
X1151675Y4242810D1*
X1161325D1*
X1170857Y4241301D1*
X1180035Y4238319D1*
X1188634Y4233937D1*
X1196441Y4228265D1*
X1203265Y4221441D1*
X1208937Y4213634D1*
X1209518Y4212597D1*
X1214243Y4211455D1*
X1206745Y4220351D1*
X1201703Y4228580D1*
X1198010Y4237495D1*
X1195757Y4246879D1*
X1195000Y4256500D1*
X1195757Y4266121D1*
X1198010Y4275505D1*
X1201703Y4284420D1*
X1206745Y4292649D1*
X1208602Y4295004D1*
X1195000Y4295000D1*
Y4325029D1*
X1145221Y4325000D1*
X1147724Y4318869D1*
X1149428Y4311774D1*
X1150000Y4304500D1*
X1149428Y4297226D1*
X1147724Y4290131D1*
X1144932Y4283389D1*
X1141119Y4277168D1*
X1136380Y4271620D1*
X1135008Y4270351D1*
X1135000Y4239119D1*
X2548491Y3964435D2*
X2554643Y3966301D1*
X2564175Y3967810D1*
X2573825D1*
X2583357Y3966301D1*
X2592535Y3963319D1*
X2601134Y3958937D1*
X2608941Y3953265D1*
X2611000Y3951500D1*
Y4161607D1*
X2605149Y4156745D1*
X2596920Y4151703D1*
X2588005Y4148010D1*
X2578621Y4145757D1*
X2569000Y4145000D1*
X2559379Y4145757D1*
X2553935Y4146899D1*
X2548500Y4129500D1*
Y3964510D1*
X1962995Y1394299D2*
X1966563Y1401134D1*
X1972235Y1408941D1*
X1979059Y1415765D1*
X1986866Y1421437D1*
X1988199Y1422184D1*
X1982613Y1426396D1*
X1976396Y1432613D1*
X1971229Y1439726D1*
X1967237Y1447559D1*
X1964520Y1455921D1*
X1963145Y1464604D1*
X1963000Y1444000D1*
Y1394439D1*
X1780449Y1366501D2*
X1779234Y1356586D1*
X1776430Y1346999D1*
X1772111Y1337992D1*
X1766390Y1329803D1*
X1759420Y1322648D1*
X1754796Y1319006D1*
X1762051Y1312919D1*
X1768593Y1305370D1*
X1773827Y1296862D1*
X1777614Y1287619D1*
X1779855Y1277885D1*
X1780500Y1269000D1*
X1779689Y1259044D1*
X1777277Y1249351D1*
X1773327Y1240176D1*
X1772952Y1239502D1*
X1965029Y1239504D1*
X1962181Y1245465D1*
X1959199Y1254643D1*
X1957690Y1264175D1*
Y1273825D1*
X1959199Y1283357D1*
X1960372Y1287514D1*
X1941529Y1287597D1*
X1934266Y1289042D1*
X1927541Y1292142D1*
X1921726Y1296726D1*
X1907547Y1311042D1*
X1903433Y1317199D1*
X1900870Y1324146D1*
X1900000Y1331500D1*
Y1637506D1*
X1765338Y1637500D1*
X1758617Y1629383D1*
X1751932Y1623673D1*
X1744264Y1619000D1*
X1751932Y1614327D1*
X1758617Y1608617D1*
X1764327Y1601932D1*
X1768921Y1594436D1*
X1772285Y1586313D1*
X1774338Y1577765D1*
X1775028Y1569000D1*
X1774338Y1560235D1*
X1772285Y1551687D1*
X1768921Y1543564D1*
X1764327Y1536068D1*
X1758617Y1529383D1*
X1751932Y1523673D1*
X1744264Y1519000D1*
X1750520Y1515321D1*
X1756420Y1510699D1*
X1761650Y1505332D1*
X1766118Y1499315D1*
X1769742Y1492755D1*
X1772459Y1485770D1*
X1774219Y1478486D1*
X1775028Y1469000D1*
X1774526Y1461522D1*
X1773032Y1454179D1*
X1770570Y1447100D1*
X1767186Y1440413D1*
X1762939Y1434238D1*
X1757907Y1428685D1*
X1752178Y1423853D1*
X1749827Y1422224D1*
X1756388Y1417830D1*
X1763800Y1411133D1*
X1770030Y1403325D1*
X1774914Y1394611D1*
X1778322Y1385222D1*
X1780166Y1375404D1*
X1780449Y1366501D1*
X1683187Y1319007D2*
X1677247Y1323845D1*
X1670488Y1331200D1*
X1665009Y1339552D1*
X1660954Y1348681D1*
X1658430Y1358346D1*
X1657504Y1368292D1*
X1658201Y1378257D1*
X1660501Y1387977D1*
X1664345Y1397197D1*
X1669631Y1405673D1*
X1676219Y1413181D1*
X1683935Y1419524D1*
X1688180Y1422219D1*
X1680830Y1427986D1*
X1675698Y1433447D1*
X1671340Y1439544D1*
X1667835Y1446169D1*
X1665246Y1453201D1*
X1663618Y1460517D1*
X1662982Y1467984D1*
X1663347Y1475470D1*
X1664709Y1482839D1*
X1667041Y1489962D1*
X1670304Y1496709D1*
X1674438Y1502960D1*
X1679369Y1508604D1*
X1685009Y1513539D1*
X1691257Y1517677D1*
X1693564Y1519079D1*
X1686068Y1523673D1*
X1679383Y1529383D1*
X1673673Y1536068D1*
X1669079Y1543564D1*
X1665715Y1551687D1*
X1663662Y1560235D1*
X1662972Y1569000D1*
X1663662Y1577765D1*
X1664001Y1579467D1*
X1647051Y1596538D1*
X1642937Y1602695D1*
X1640374Y1609643D1*
X1639504Y1616996D1*
Y1623978D1*
X1637606Y1617473D1*
X1633988Y1611012D1*
X1630778Y1607254D1*
X1610954Y1587569D1*
X1609959Y1585770D1*
X1611719Y1578486D1*
X1612528Y1569000D1*
X1612026Y1561522D1*
X1610532Y1554179D1*
X1608070Y1547100D1*
X1604686Y1540413D1*
X1600439Y1534238D1*
X1595407Y1528685D1*
X1589678Y1523853D1*
X1581769Y1519007D1*
X1588020Y1515321D1*
X1593920Y1510699D1*
X1599150Y1505332D1*
X1603618Y1499315D1*
X1607242Y1492755D1*
X1609959Y1485770D1*
X1611719Y1478486D1*
X1612528Y1469000D1*
X1612026Y1461522D1*
X1610532Y1454179D1*
X1608070Y1447100D1*
X1604686Y1440413D1*
X1600439Y1434238D1*
X1595407Y1428685D1*
X1589678Y1423853D1*
X1581769Y1419007D1*
X1589432Y1414327D1*
X1596117Y1408617D1*
X1601827Y1401932D1*
X1606421Y1394436D1*
X1609785Y1386313D1*
X1611838Y1377765D1*
X1612528Y1369000D1*
X1611838Y1360235D1*
X1609785Y1351687D1*
X1606421Y1343564D1*
X1601827Y1336068D1*
X1596117Y1329383D1*
X1589432Y1323673D1*
X1581764Y1319000D1*
X1589432Y1314327D1*
X1596117Y1308617D1*
X1601827Y1301932D1*
X1606421Y1294436D1*
X1609785Y1286313D1*
X1611838Y1277765D1*
X1612528Y1269000D1*
X1611838Y1260235D1*
X1609785Y1251687D1*
X1606421Y1243564D1*
X1604128Y1239511D1*
X1665009Y1239552D1*
X1660954Y1248681D1*
X1658430Y1258346D1*
X1657504Y1268292D1*
X1658201Y1278257D1*
X1660501Y1287977D1*
X1664345Y1297197D1*
X1669631Y1305673D1*
X1676219Y1313181D1*
X1683200Y1318992D1*
X1520712Y3044004D2*
X1513013Y3050513D1*
X1506745Y3057851D1*
X1501703Y3066080D1*
X1498010Y3074995D1*
X1495757Y3084379D1*
X1495000Y3094000D1*
X1495757Y3103621D1*
X1497309Y3110517D1*
X1439061Y3110500D1*
X1439075Y2982838D1*
X1446942Y2986224D1*
X1454037Y2987928D1*
X1461311Y2988500D1*
X1468585Y2987928D1*
X1475680Y2986224D1*
X1482422Y2983432D1*
X1488643Y2979619D1*
X1494191Y2974880D1*
X1498930Y2969332D1*
X1502743Y2963111D1*
X1505535Y2956369D1*
X1507239Y2949274D1*
X1507811Y2942000D1*
X1507239Y2934726D1*
X1505918Y2928990D1*
X1513013Y2937487D1*
X1520712Y2943996D1*
X1514747Y2948845D1*
X1507988Y2956200D1*
X1502509Y2964552D1*
X1498454Y2973681D1*
X1495930Y2983346D1*
X1495004Y2993292D1*
X1495701Y3003257D1*
X1498001Y3012977D1*
X1501845Y3022197D1*
X1507131Y3030673D1*
X1513719Y3038181D1*
X1520700Y3043992D1*
X1198894Y3072501D2*
X1196413Y3080893D1*
X1195084Y3090794D1*
X1195375Y3100778D1*
X1197256Y3110499D1*
X1102010Y3110500D1*
X1102000Y3072193D1*
X1119000Y3072500D1*
X1198834D1*
X1317810Y4476675D2*
X1316301Y4467143D1*
X1313319Y4457965D1*
X1308937Y4449366D1*
X1303265Y4441559D1*
X1296441Y4434735D1*
X1287992Y4428703D1*
X1288000Y4417975D1*
X1318000Y4418000D1*
Y4362580D1*
X1461042Y4505453D1*
X1467199Y4509567D1*
X1474146Y4512130D1*
X1481500Y4513000D1*
X1503717D1*
X1505645Y4516002D1*
X1335568Y4516000D1*
X1316151Y4496603D1*
X1317810Y4486325D1*
Y4476675D1*
X1717810Y4251675D2*
X1716301Y4242143D1*
X1713319Y4232965D1*
X1708937Y4224366D1*
X1703265Y4216559D1*
X1696441Y4209735D1*
X1687992Y4203703D1*
X1698010Y4200505D1*
X1701703Y4209420D1*
X1706745Y4217649D1*
X1713013Y4224987D1*
X1720351Y4231255D1*
X1728580Y4236297D1*
X1737495Y4239990D1*
X1746879Y4242243D1*
X1754936Y4242939D1*
X1723871Y4274003D1*
X1716301Y4270857D1*
X1717810Y4261325D1*
Y4251675D1*
X1625008Y4203703D2*
X1616559Y4209735D1*
X1609735Y4216559D1*
X1606504Y4220712D1*
X1599987Y4213013D1*
X1592288Y4206504D1*
X1599987Y4199987D1*
X1606255Y4192649D1*
X1611297Y4184420D1*
X1614990Y4175505D1*
X1617243Y4166121D1*
X1618000Y4156500D1*
X1617243Y4146879D1*
X1614990Y4137495D1*
X1613913Y4134575D1*
X1620959Y4131358D1*
X1626774Y4126774D1*
X1703872Y4049676D1*
X1699681Y4057965D1*
X1696699Y4067143D1*
X1695190Y4076675D1*
Y4086325D1*
X1696899Y4096565D1*
X1632547Y4161042D1*
X1628433Y4167199D1*
X1625870Y4174146D1*
X1625000Y4181500D1*
Y4203717D1*
X1196482Y2980735D2*
X1195190Y2989175D1*
Y2998825D1*
X1196699Y3008357D1*
X1197585Y3011498D1*
X1119166Y3011500D1*
X1119000Y2984498D1*
X1123620Y2989880D1*
X1129168Y2994619D1*
X1135389Y2998432D1*
X1142131Y3001224D1*
X1149226Y3002928D1*
X1156500Y3003500D1*
X1163774Y3002928D1*
X1170869Y3001224D1*
X1177611Y2998432D1*
X1183832Y2994619D1*
X1189380Y2989880D1*
X1194119Y2984332D1*
X1196433Y2980786D1*
X1817810Y4076675D2*
X1816301Y4067143D1*
X1813319Y4057965D1*
X1808937Y4049366D1*
X1803265Y4041559D1*
X1799973Y4038000D1*
X2007822D1*
X2012399Y4044165D1*
X2018835Y4050601D1*
X2027144Y4056480D1*
X2018835Y4062399D1*
X2012399Y4068835D1*
X2007050Y4076197D1*
X2002919Y4084306D1*
X2000106Y4092961D1*
X1998683Y4101950D1*
Y4111050D1*
X1999999Y4119498D1*
X1898903Y4119593D1*
X1891640Y4121038D1*
X1884915Y4124138D1*
X1879100Y4128722D1*
X1857797Y4150025D1*
X1809298Y4150000D1*
X1803265Y4141559D1*
X1796441Y4134735D1*
X1792288Y4131504D1*
X1799987Y4124987D1*
X1806255Y4117649D1*
X1811297Y4109420D1*
X1814990Y4100505D1*
X1817243Y4091121D1*
X1818000Y4081500D1*
X1817810Y4076675D1*
X2065816Y2499801D2*
X2069245Y2505149D1*
X2075513Y2512487D1*
X2082851Y2518755D1*
X2091080Y2523797D1*
X2099995Y2527490D1*
X2109379Y2529743D1*
X2119000Y2530500D1*
X2128621Y2529743D1*
X2138005Y2527490D1*
X2146920Y2523797D1*
X2155149Y2518755D1*
X2162487Y2512487D1*
X2168996Y2504788D1*
X2175513Y2512487D1*
X2182851Y2518755D1*
X2191080Y2523797D1*
X2199995Y2527490D1*
X2209379Y2529743D1*
X2219000Y2530500D1*
X2220640Y2530436D1*
X2220573Y2535867D1*
X2207000Y2537500D1*
X2065350D1*
X2058617Y2529383D1*
X2051932Y2523673D1*
X2044264Y2519000D1*
X2051932Y2514327D1*
X2058617Y2508617D1*
X2064327Y2501932D1*
X2065769Y2499775D1*
X2065816Y2799801D2*
X2069245Y2805149D1*
X2075513Y2812487D1*
X2082851Y2818755D1*
X2091080Y2823797D1*
X2099995Y2827490D1*
X2109379Y2829743D1*
X2113257Y2830202D1*
X1934520Y3009070D1*
X1930406Y3015227D1*
X1927843Y3022174D1*
X1926972Y3029528D1*
Y3051549D1*
X1920853Y3058448D1*
X1917041Y3064669D1*
X1914248Y3071410D1*
X1912545Y3078505D1*
X1911972Y3085780D1*
X1912545Y3093054D1*
X1914248Y3100149D1*
X1917041Y3106890D1*
X1920853Y3113112D1*
X1926503Y3119502D1*
X1901537Y3119496D1*
X1901393Y2717518D1*
X1899948Y2710255D1*
X1896848Y2703531D1*
X1892263Y2697716D1*
X1774010Y2579462D1*
X1774855Y2573396D1*
Y2564604D1*
X1773480Y2555921D1*
X1771114Y2548510D1*
X1877465Y2548500D1*
X1970026Y2640959D1*
X1965715Y2651687D1*
X1963662Y2660235D1*
X1962972Y2669000D1*
X1963662Y2677765D1*
X1965715Y2686313D1*
X1969079Y2694436D1*
X1973673Y2701932D1*
X1979383Y2708617D1*
X1986068Y2714327D1*
X1993736Y2719000D1*
X1986068Y2723673D1*
X1979383Y2729383D1*
X1973673Y2736068D1*
X1969079Y2743564D1*
X1965715Y2751687D1*
X1963662Y2760235D1*
X1962972Y2769000D1*
X1963662Y2777765D1*
X1965715Y2786313D1*
X1969079Y2794436D1*
X1973673Y2801932D1*
X1979383Y2808617D1*
X1986068Y2814327D1*
X1993564Y2818921D1*
X2001687Y2822285D1*
X2010235Y2824338D1*
X2019000Y2825028D1*
X2027765Y2824338D1*
X2036313Y2822285D1*
X2044436Y2818921D1*
X2051932Y2814327D1*
X2058617Y2808617D1*
X2064327Y2801932D1*
X2065769Y2799775D1*
X1804001Y4220508D2*
X1809297Y4212992D1*
X1808000Y4220496D1*
X1804045D1*
X1819000Y4213000D1*
X1873342Y4212903D1*
X1880604Y4211458D1*
X1887329Y4208358D1*
X1893144Y4203774D1*
X1914447Y4182471D1*
X2003669Y4182496D1*
X2000106Y4192961D1*
X1998683Y4201950D1*
Y4211050D1*
X2000237Y4220501D1*
X1808000Y4220496D1*
X2415650Y3937004D2*
X2419245Y3942649D1*
X2425513Y3949987D1*
X2432851Y3956255D1*
X2441080Y3961297D1*
X2449995Y3964990D1*
X2459379Y3967243D1*
X2469000Y3968000D1*
X2478621Y3967243D1*
X2485517Y3965691D1*
X2485500Y4147238D1*
X2478621Y4145757D1*
X2469000Y4145000D1*
X2459379Y4145757D1*
X2449995Y4148010D1*
X2441080Y4151703D1*
X2432851Y4156745D1*
X2425513Y4163013D1*
X2419245Y4170351D1*
X2414203Y4178580D1*
X2410908Y4186416D1*
X2408175Y4180170D1*
X2403420Y4172411D1*
X2397509Y4165491D1*
X2390589Y4159580D1*
X2385856Y4156520D1*
X2394165Y4150601D1*
X2400601Y4144165D1*
X2405950Y4136803D1*
X2410081Y4128694D1*
X2412894Y4120039D1*
X2414317Y4111050D1*
Y4101950D1*
X2412894Y4092961D1*
X2410081Y4084306D1*
X2405950Y4076197D1*
X2400601Y4068835D1*
X2394165Y4062399D1*
X2385856Y4056520D1*
X2394165Y4050601D1*
X2400601Y4044165D1*
X2405950Y4036803D1*
X2410081Y4028694D1*
X2412894Y4020039D1*
X2414317Y4011050D1*
Y4001950D1*
X2412894Y3992961D1*
X2410081Y3984306D1*
X2405950Y3976197D1*
X2400601Y3968835D1*
X2394165Y3962399D1*
X2385856Y3956520D1*
X2394165Y3950601D1*
X2400601Y3944165D1*
X2405821Y3936995D1*
X2415631Y3937000D1*
X1125008Y3778703D2*
X1116559Y3784735D1*
X1111720Y3789412D1*
X1101985Y3779701D1*
X1102000Y3675039D1*
X1125025Y3698073D1*
X1125000Y3778701D1*
X1309297Y2862508D2*
X1303265Y2854059D1*
X1296441Y2847235D1*
X1288634Y2841563D1*
X1280035Y2837181D1*
X1270857Y2834199D1*
X1261325Y2832690D1*
X1251675D1*
X1242143Y2834199D1*
X1235991Y2836065D1*
X1236000Y2787525D1*
X1268002Y2787528D1*
X1342951Y2862499D1*
X1309318Y2862500D1*
X1316101Y4271565D2*
X1317810Y4261325D1*
Y4251675D1*
X1316301Y4242143D1*
X1313319Y4232965D1*
X1308937Y4224366D1*
X1303265Y4216559D1*
X1296441Y4209735D1*
X1292288Y4206504D1*
X1299987Y4199987D1*
X1306255Y4192649D1*
X1311297Y4184420D1*
X1314990Y4175505D1*
X1317243Y4166121D1*
X1318000Y4156500D1*
X1317243Y4146879D1*
X1316101Y4141435D1*
X1328453Y4128958D1*
X1332567Y4122801D1*
X1335130Y4115854D1*
X1336000Y4108500D1*
X1335903Y3989529D1*
X1334458Y3982266D1*
X1331358Y3975541D1*
X1326774Y3969726D1*
X1316101Y3959065D1*
X1317810Y3948825D1*
Y3939175D1*
X1316301Y3929643D1*
X1313319Y3920465D1*
X1308937Y3911866D1*
X1303265Y3904059D1*
X1296441Y3897235D1*
X1292288Y3894004D1*
X1299551Y3887919D1*
X1306093Y3880370D1*
X1311327Y3871862D1*
X1315114Y3862619D1*
X1317355Y3852885D1*
X1318000Y3844000D1*
X1317189Y3834044D1*
X1314777Y3824351D1*
X1314112Y3822504D1*
X1354580Y3822500D1*
X1354669Y4286500D1*
X1355512Y4293620D1*
X1357993Y4300347D1*
X1361977Y4306308D1*
X1383361Y4327692D1*
X1389323Y4331676D1*
X1396049Y4334157D1*
X1403169Y4335000D1*
X1498921D1*
X1496699Y4342143D1*
X1495190Y4351675D1*
Y4361325D1*
X1496699Y4370857D1*
X1499681Y4380035D1*
X1504063Y4388634D1*
X1509735Y4396441D1*
X1516559Y4403265D1*
X1524366Y4408937D1*
X1532965Y4413319D1*
X1542143Y4416301D1*
X1551675Y4417810D1*
X1561325D1*
X1570857Y4416301D1*
X1580035Y4413319D1*
X1588634Y4408937D1*
X1596441Y4403265D1*
X1598382Y4401513D1*
X1601703Y4409420D1*
X1606745Y4417649D1*
X1613013Y4424987D1*
X1620687Y4431507D1*
X1614747Y4436345D1*
X1607988Y4443700D1*
X1606498Y4445695D1*
X1599987Y4438013D1*
X1592649Y4431745D1*
X1584420Y4426703D1*
X1575505Y4423010D1*
X1566121Y4420757D1*
X1556500Y4420000D1*
X1546879Y4420757D1*
X1537495Y4423010D1*
X1528580Y4426703D1*
X1520351Y4431745D1*
X1513013Y4438013D1*
X1506745Y4445351D1*
X1503703Y4450008D1*
X1494555Y4450007D1*
X1316121Y4271573D1*
X1498565Y4135991D2*
X1496699Y4142143D1*
X1495190Y4151675D1*
Y4161325D1*
X1496699Y4170857D1*
X1499681Y4180035D1*
X1504063Y4188634D1*
X1509735Y4196441D1*
X1516559Y4203265D1*
X1520712Y4206496D1*
X1513013Y4213013D1*
X1506745Y4220351D1*
X1503703Y4225008D1*
X1470416Y4225000D1*
X1463501Y4218881D1*
X1457280Y4215068D1*
X1450539Y4212276D1*
X1443443Y4210572D1*
X1436169Y4210000D1*
X1428895Y4210572D1*
X1421800Y4212276D1*
X1415667Y4214788D1*
X1415669Y4142506D1*
X1421393Y4145932D1*
X1428135Y4148724D1*
X1435230Y4150428D1*
X1442504Y4151000D1*
X1449778Y4150428D1*
X1456873Y4148724D1*
X1463614Y4145932D1*
X1469836Y4142119D1*
X1475384Y4137380D1*
X1476653Y4136008D1*
X1498510Y4136000D1*
X1078950Y823404D2*
X1077997Y815359D1*
X1076417Y807413D1*
X1074218Y799615D1*
X1071413Y792014D1*
X1068022Y784656D1*
X1064063Y777587D1*
X1059562Y770851D1*
X1054546Y764488D1*
X1049046Y758539D1*
X1043097Y753039D1*
X1036734Y748024D1*
X1029998Y743523D1*
X1022929Y739564D1*
X1015572Y736172D1*
X1007970Y733368D1*
X1000173Y731169D1*
X992227Y729588D1*
X984181Y728636D1*
X976085Y728318D1*
X967990Y728636D1*
X959944Y729588D1*
X951998Y731169D1*
X944200Y733368D1*
X936599Y736172D1*
X929241Y739564D1*
X922173Y743523D1*
X915436Y748024D1*
X909074Y753039D1*
X903124Y758539D1*
X897625Y764488D1*
X892609Y770851D1*
X888108Y777587D1*
X884149Y784656D1*
X880757Y792014D1*
X877953Y799615D1*
X875754Y807413D1*
X874173Y815359D1*
X873221Y823404D1*
X872903Y831500D1*
X873221Y839596D1*
X874173Y847641D1*
X875754Y855587D1*
X877953Y863385D1*
X880757Y870986D1*
X884149Y878344D1*
X888108Y885413D1*
X892609Y892149D1*
X897625Y898512D1*
X903124Y904461D1*
X909074Y909961D1*
X915436Y914976D1*
X922173Y919477D1*
X929241Y923436D1*
X936599Y926828D1*
X944200Y929632D1*
X951998Y931831D1*
X959944Y933412D1*
X967990Y934364D1*
X976085Y934682D1*
X984181Y934364D1*
X992227Y933412D1*
X1000173Y931831D1*
X1007970Y929632D1*
X1015572Y926828D1*
X1022929Y923436D1*
X1029998Y919477D1*
X1036734Y914976D1*
X1043097Y909961D1*
X1049046Y904461D1*
X1054546Y898512D1*
X1059562Y892149D1*
X1064063Y885413D1*
X1068022Y878344D1*
X1071413Y870986D1*
X1074218Y863385D1*
X1076417Y855587D1*
X1077997Y847641D1*
X1078950Y839596D1*
X1079268Y831500D1*
X1078950Y823404D1*
X2114317Y4201950D2*
X2112894Y4192961D1*
X2110081Y4184306D1*
X2109240Y4182480D1*
X2229971Y4182399D1*
X2232437Y4182106D1*
X2233000Y4187000D1*
Y4220350D1*
X2112736Y4220496D1*
X2114317Y4211050D1*
Y4201950D1*
Y4101950D2*
X2113175Y4094374D1*
X2214015Y3993533D1*
X2214000Y4119469D1*
X2112998Y4119496D1*
X2114317Y4111050D1*
Y4101950D1*
X2114400Y4004065D2*
X2113782Y3997427D1*
X2111658Y3988578D1*
X2108175Y3980170D1*
X2103420Y3972411D1*
X2097509Y3965491D1*
X2090589Y3959580D1*
X2085856Y3956520D1*
X2094165Y3950601D1*
X2100601Y3944165D1*
X2105149Y3938001D1*
X2178981Y3937902D1*
X2178710Y3939743D1*
X2114455Y4003997D1*
X2027144Y3356520D2*
X2018835Y3362399D1*
X2012399Y3368835D1*
X2007851Y3374999D1*
X1776471Y3375000D1*
X1776726Y3328774D1*
X1782541Y3333358D1*
X1789266Y3336458D1*
X1796529Y3337903D1*
X2007838Y3338000D1*
X2012399Y3344165D1*
X2018835Y3350601D1*
X2027144Y3356480D1*
Y3256520D2*
X2018835Y3262399D1*
X2012399Y3268835D1*
X2007851Y3274999D1*
X1812506Y3275000D1*
X1812726Y3228774D1*
X1818541Y3233358D1*
X1825266Y3236458D1*
X1832529Y3237903D1*
X2007803Y3238000D1*
X2012399Y3244165D1*
X2018835Y3250601D1*
X2027144Y3256480D1*
X2114119Y3100271D2*
X2112894Y3092961D1*
X2110081Y3084306D1*
X2105950Y3076197D1*
X2100601Y3068835D1*
X2094165Y3062399D1*
X2086803Y3057050D1*
X2078694Y3052919D1*
X2070039Y3050106D1*
X2061050Y3048683D1*
X2051950D1*
X2042961Y3050106D1*
X2034306Y3052919D1*
X2026197Y3057050D1*
X2018835Y3062399D1*
X2012399Y3068835D1*
X2007050Y3076197D1*
X2004669Y3080510D1*
X2002697Y3071410D1*
X1999904Y3064669D1*
X1996092Y3058448D1*
X1991353Y3052899D1*
X1989981Y3051631D1*
X1989973Y3042567D1*
X2055290Y2977258D1*
X2054496Y2985732D1*
X2055069Y2993006D1*
X2056772Y3000102D1*
X2059564Y3006843D1*
X2063377Y3013064D1*
X2068116Y3018613D1*
X2073664Y3023352D1*
X2079886Y3027164D1*
X2086627Y3029956D1*
X2093722Y3031660D1*
X2100996Y3032232D1*
X2108270Y3031660D1*
X2115365Y3029956D1*
X2122107Y3027164D1*
X2128328Y3023352D1*
X2133877Y3018613D1*
X2135145Y3017241D1*
X2196357Y3017232D1*
X2196000Y3021732D1*
Y3060062D1*
X2187226Y3060572D1*
X2180131Y3062276D1*
X2173389Y3065068D1*
X2167168Y3068881D1*
X2161620Y3073620D1*
X2160351Y3074992D1*
X2147501Y3075388D1*
X2140375Y3077398D1*
X2133914Y3081016D1*
X2130155Y3084226D1*
X2114169Y3100212D1*
X2316705Y3148632D2*
X2322411Y3153420D1*
X2327144Y3156480D1*
X2318835Y3162399D1*
X2312399Y3168835D1*
X2307050Y3176197D1*
X2302919Y3184306D1*
X2300106Y3192961D1*
X2298683Y3201950D1*
Y3211050D1*
X2300106Y3220039D1*
X2302919Y3228694D1*
X2305095Y3233311D1*
X2288051Y3250507D1*
X2283937Y3256664D1*
X2281374Y3263611D1*
X2280504Y3270965D1*
X2280601Y3835468D1*
X2282046Y3842730D1*
X2285146Y3849455D1*
X2289730Y3855270D1*
X2307737Y3873276D1*
X2307050Y3876197D1*
X2302919Y3884306D1*
X2300106Y3892961D1*
X2298683Y3901950D1*
Y3911050D1*
X2300061Y3919812D1*
X2277032Y3942834D1*
X2277000Y3148475D1*
X2282635Y3150724D1*
X2289730Y3152428D1*
X2297004Y3153000D1*
X2304278Y3152428D1*
X2311373Y3150724D1*
X2316625Y3148618D1*
X1963000Y1469704D2*
X1963662Y1477765D1*
X1965715Y1486313D1*
X1969079Y1494436D1*
X1973673Y1501932D1*
X1979383Y1508617D1*
X1986068Y1514327D1*
X1993736Y1519000D1*
X1986068Y1523673D1*
X1979383Y1529383D1*
X1973673Y1536068D1*
X1969079Y1543564D1*
X1965715Y1551687D1*
X1963662Y1560235D1*
X1963000Y1568296D1*
Y1470807D1*
Y1569704D2*
X1963662Y1577765D1*
X1965715Y1586313D1*
X1969079Y1594436D1*
X1973673Y1601932D1*
X1979383Y1608617D1*
X1986068Y1614327D1*
X1993736Y1619000D1*
X1986068Y1623673D1*
X1979383Y1629383D1*
X1973673Y1636068D1*
X1969079Y1643564D1*
X1965715Y1651687D1*
X1963662Y1660235D1*
X1962972Y1669000D1*
X1963662Y1677765D1*
X1965486Y1685503D1*
X1947072Y1685500D1*
X1956984Y1675015D1*
X1960602Y1668555D1*
X1962612Y1661428D1*
X1963000Y1656500D1*
Y1570807D1*
X1312528Y2742947D2*
Y2687104D1*
X1324512Y2674543D1*
X1328130Y2668082D1*
X1330140Y2660955D1*
X1330528Y2656028D1*
X1330430Y2489556D1*
X1328986Y2482294D1*
X1325886Y2475569D1*
X1321301Y2469754D1*
X1307111Y2455563D1*
X1309785Y2448813D1*
X1311838Y2440265D1*
X1312528Y2431500D1*
X1311838Y2422735D1*
X1311499Y2421033D1*
X1340980Y2391430D1*
X1345094Y2385273D1*
X1347657Y2378326D1*
X1348528Y2370972D1*
X1348430Y2289556D1*
X1346986Y2282294D1*
X1343886Y2275569D1*
X1339301Y2269754D1*
X1319485Y2250075D1*
X1313328Y2245961D1*
X1310980Y2244579D1*
X1312355Y2235896D1*
Y2227104D1*
X1311499Y2221033D1*
X1327008Y2205540D1*
X1506892Y2205528D1*
X1503215Y2214187D1*
X1501162Y2222735D1*
X1500472Y2231500D1*
X1501162Y2240265D1*
X1501501Y2241967D1*
X1455358Y2288231D1*
X1451244Y2294388D1*
X1448681Y2301335D1*
X1447811Y2308689D1*
X1447908Y2795999D1*
X1449353Y2803262D1*
X1452458Y2809994D1*
X1448198Y2816092D1*
X1437358Y2827070D1*
X1433244Y2833227D1*
X1430681Y2840174D1*
X1429811Y2847528D1*
Y2860272D1*
X1312562Y2743014D1*
X1312472Y2129001D2*
X1311417Y2120472D1*
X1501553Y2120473D1*
X1500645Y2127104D1*
Y2135896D1*
X1501615Y2142540D1*
X1311491Y2142626D1*
X1312491Y2133531D1*
X1312472Y2129001D1*
X1581764Y2481500D2*
X1589432Y2476827D1*
X1596117Y2471117D1*
X1601827Y2464432D1*
X1606421Y2456936D1*
X1610089Y2447738D1*
X1617028Y2448500D1*
X1666881D1*
X1664520Y2455921D1*
X1663145Y2464604D1*
Y2473396D1*
X1664520Y2482079D1*
X1665209Y2485500D1*
X1657855Y2486370D1*
X1650908Y2488933D1*
X1644751Y2493047D1*
X1637652Y2500009D1*
X1602808Y2500000D1*
X1599104Y2495113D1*
X1592887Y2488896D1*
X1585774Y2483729D1*
X1581764Y2481500D1*
Y2681500D2*
X1589432Y2676827D1*
X1593732Y2673322D1*
X1599658Y2675724D1*
X1606753Y2677428D1*
X1614028Y2678000D1*
X1621302Y2677428D1*
X1628397Y2675724D1*
X1635138Y2672932D1*
X1641360Y2669119D1*
X1646908Y2664380D1*
X1651647Y2658832D1*
X1655459Y2652611D1*
X1658252Y2645869D1*
X1659955Y2638774D1*
X1660528Y2631500D1*
X1659955Y2624226D1*
X1658252Y2617131D1*
X1655459Y2610389D1*
X1651647Y2604168D1*
X1648641Y2600494D1*
X1672686Y2600500D1*
X1676396Y2605387D1*
X1682613Y2611604D1*
X1689726Y2616771D1*
X1693564Y2619079D1*
X1686068Y2623673D1*
X1679383Y2629383D1*
X1673673Y2636068D1*
X1669079Y2643564D1*
X1665715Y2651687D1*
X1663662Y2660235D1*
X1662972Y2669000D1*
X1663662Y2677765D1*
X1665715Y2686313D1*
X1669079Y2694436D1*
X1673673Y2701932D1*
X1679383Y2708617D1*
X1684354Y2712976D1*
X1662973Y2712972D1*
Y2780013D1*
X1584498Y2780028D1*
X1592887Y2774104D1*
X1599104Y2767887D1*
X1604271Y2760774D1*
X1608263Y2752941D1*
X1610980Y2744579D1*
X1612355Y2735896D1*
Y2727104D1*
X1610980Y2718421D1*
X1608263Y2710059D1*
X1604271Y2702226D1*
X1599104Y2695113D1*
X1592887Y2688896D1*
X1585774Y2683729D1*
X1581764Y2681500D1*
X1312355Y1664604D2*
X1310980Y1655921D1*
X1308263Y1647559D1*
X1306127Y1643039D1*
X1506889Y1643028D1*
X1503215Y1651687D1*
X1501162Y1660235D1*
X1500472Y1669000D1*
X1501162Y1677765D1*
X1503215Y1686313D1*
X1506579Y1694436D1*
X1511173Y1701932D1*
X1516883Y1708617D1*
X1523568Y1714327D1*
X1531236Y1719000D1*
X1523568Y1723673D1*
X1516883Y1729383D1*
X1511173Y1736068D1*
X1506579Y1743564D1*
X1503215Y1751687D1*
X1501162Y1760235D1*
X1500472Y1769000D1*
X1501162Y1777765D1*
X1503215Y1786313D1*
X1506579Y1794436D1*
X1511173Y1801932D1*
X1516883Y1808617D1*
X1523568Y1814327D1*
X1531236Y1819000D1*
X1524146Y1823258D1*
X1518330Y1827986D1*
X1513198Y1833447D1*
X1508840Y1839544D1*
X1505335Y1846169D1*
X1502746Y1853201D1*
X1501118Y1860517D1*
X1500484Y1868443D1*
X1311569Y1679521D1*
X1312528Y1669000D1*
X1312355Y1664604D1*
Y1564604D2*
X1310980Y1555921D1*
X1308263Y1547559D1*
X1304271Y1539726D1*
X1299104Y1532613D1*
X1292887Y1526396D1*
X1285774Y1521229D1*
X1281936Y1518921D1*
X1289432Y1514327D1*
X1296117Y1508617D1*
X1301827Y1501932D1*
X1306421Y1494436D1*
X1309785Y1486313D1*
X1311838Y1477765D1*
X1312528Y1469000D1*
X1311838Y1460235D1*
X1309785Y1451687D1*
X1306421Y1443564D1*
X1301827Y1436068D1*
X1296117Y1429383D1*
X1289432Y1423673D1*
X1281764Y1419000D1*
X1289432Y1414327D1*
X1296117Y1408617D1*
X1301827Y1401932D1*
X1306421Y1394436D1*
X1309785Y1386313D1*
X1311838Y1377765D1*
X1312528Y1369000D1*
X1311838Y1360235D1*
X1309785Y1351687D1*
X1306421Y1343564D1*
X1301827Y1336068D1*
X1296117Y1329383D1*
X1289432Y1323673D1*
X1281764Y1319000D1*
X1288020Y1315321D1*
X1293920Y1310699D1*
X1299150Y1305332D1*
X1303618Y1299315D1*
X1307242Y1292755D1*
X1309959Y1285770D1*
X1311719Y1278486D1*
X1312528Y1269000D1*
X1312026Y1261522D1*
X1310532Y1254179D1*
X1308070Y1247100D1*
X1304123Y1239510D1*
X1508729Y1239726D1*
X1504737Y1247559D1*
X1502020Y1255921D1*
X1500645Y1264604D1*
Y1273396D1*
X1502020Y1282079D1*
X1504737Y1290441D1*
X1508729Y1298274D1*
X1513896Y1305387D1*
X1520113Y1311604D1*
X1527226Y1316771D1*
X1531064Y1319079D1*
X1523568Y1323673D1*
X1516883Y1329383D1*
X1511173Y1336068D1*
X1506579Y1343564D1*
X1503215Y1351687D1*
X1501162Y1360235D1*
X1500472Y1369000D1*
X1501162Y1377765D1*
X1503215Y1386313D1*
X1506579Y1394436D1*
X1511173Y1401932D1*
X1516883Y1408617D1*
X1523568Y1414327D1*
X1531236Y1419000D1*
X1524146Y1423258D1*
X1518330Y1427986D1*
X1513198Y1433447D1*
X1508840Y1439544D1*
X1505335Y1446169D1*
X1502746Y1453201D1*
X1501118Y1460517D1*
X1500482Y1467984D1*
X1500847Y1475470D1*
X1502209Y1482839D1*
X1504541Y1489962D1*
X1507804Y1496709D1*
X1511938Y1502960D1*
X1516869Y1508604D1*
X1522509Y1513539D1*
X1528757Y1517677D1*
X1531228Y1518998D1*
X1524146Y1523258D1*
X1518330Y1527986D1*
X1513198Y1533447D1*
X1508840Y1539544D1*
X1505335Y1546169D1*
X1502746Y1553201D1*
X1501118Y1560517D1*
X1500482Y1567984D1*
X1500847Y1575470D1*
X1501576Y1580029D1*
X1312037Y1580028D1*
X1312355Y1573396D1*
Y1564604D1*
X1775028Y2780057D2*
Y2712972D1*
X1753690D1*
X1758617Y2708617D1*
X1764327Y2701932D1*
X1768921Y2694436D1*
X1772285Y2686313D1*
X1774338Y2677765D1*
X1775005Y2669567D1*
X1838458Y2733006D1*
X1838489Y2806464D1*
X1819458Y2787575D1*
X1813301Y2783461D1*
X1806354Y2780898D1*
X1799000Y2780028D1*
X1775025D1*
X1774855Y2464604D2*
X1773480Y2455921D1*
X1771114Y2448510D1*
X1966881Y2448500D1*
X1964520Y2455921D1*
X1963145Y2464604D1*
Y2473396D1*
X1964520Y2482079D1*
X1967237Y2490441D1*
X1971229Y2498274D1*
X1976396Y2505387D1*
X1982613Y2511604D1*
X1989726Y2516771D1*
X1993564Y2519079D1*
X1986068Y2523673D1*
X1979383Y2529383D1*
X1973673Y2536068D1*
X1969079Y2543564D1*
X1966791Y2548768D1*
X1910934Y2493047D1*
X1904777Y2488933D1*
X1897830Y2486370D1*
X1890476Y2485500D1*
X1772556D1*
X1774338Y2477765D1*
X1775028Y2469000D1*
X1774855Y2464604D1*
Y2364604D2*
X1773480Y2355921D1*
X1771114Y2348510D1*
X1966846Y2348500D1*
X1964520Y2355921D1*
X1963145Y2364604D1*
Y2373396D1*
X1964520Y2382079D1*
X1965486Y2385503D1*
X1772518Y2385500D1*
X1774338Y2377765D1*
X1775028Y2369000D1*
X1774855Y2364604D1*
X1675598Y2333625D2*
X1671229Y2339726D1*
X1667237Y2347559D1*
X1664520Y2355921D1*
X1663145Y2364604D1*
Y2373396D1*
X1664520Y2382079D1*
X1665486Y2385503D1*
X1630525Y2385500D1*
X1630528Y2315748D1*
X1636647Y2308832D1*
X1640459Y2302611D1*
X1641755Y2299800D1*
X1675582Y2333614D1*
X1774855Y2264604D2*
X1773480Y2255921D1*
X1771114Y2248510D1*
X1966905Y2248500D1*
X1964520Y2255921D1*
X1963145Y2264604D1*
Y2273396D1*
X1964520Y2282079D1*
X1965486Y2285503D1*
X1772518Y2285500D1*
X1774338Y2277765D1*
X1775028Y2269000D1*
X1774855Y2264604D1*
Y2164604D2*
X1773480Y2155921D1*
X1771114Y2148510D1*
X1966838Y2148500D1*
X1964520Y2155921D1*
X1963145Y2164604D1*
Y2173396D1*
X1964520Y2182079D1*
X1965486Y2185503D1*
X1772518Y2185500D1*
X1774338Y2177765D1*
X1775028Y2169000D1*
X1774855Y2164604D1*
X524865Y2374077D2*
X516993Y2366337D1*
X506132Y2358446D1*
X494170Y2352351D1*
X481402Y2348202D1*
X468142Y2346102D1*
X454717D1*
X441457Y2348202D1*
X428689Y2352351D1*
X426520Y2353351D1*
X426500Y2308717D1*
X434991Y2311974D1*
X448045Y2315108D1*
X461429Y2316161D1*
X474813Y2315108D1*
X487867Y2311974D1*
X500270Y2306836D1*
X511717Y2299822D1*
X521926Y2291103D1*
X530645Y2280894D1*
X536800Y2270982D1*
X542900Y2278023D1*
X546814Y2281630D1*
X540402Y2288262D1*
X534575Y2296377D1*
X530028Y2305273D1*
X526866Y2314750D1*
X525160Y2324594D1*
X524947Y2334582D1*
X526233Y2344490D1*
X528989Y2354093D1*
X533152Y2363175D1*
X533919Y2364502D1*
X524850Y2364500D1*
Y2373924D1*
X881560Y2546540D2*
X885199Y2554881D1*
X892214Y2566327D1*
X900933Y2576536D1*
X911141Y2585255D1*
X922588Y2592270D1*
X934991Y2597407D1*
X948045Y2600541D1*
X961429Y2601594D1*
X974813Y2600541D1*
X987867Y2597407D1*
X996338Y2594082D1*
X1057978Y2655722D1*
X1058000Y2679390D1*
X1052500Y2678911D1*
X735947D1*
X687974Y2630926D1*
X688000Y2565143D1*
X697648Y2565357D1*
X704855Y2564215D1*
X711795Y2561960D1*
X718296Y2558648D1*
X724199Y2554359D1*
X729359Y2549199D1*
X731500Y2546539D1*
X881451D1*
X1046948Y2328500D2*
X1046073Y2318544D1*
X1044043Y2308758D1*
X1040885Y2299276D1*
X1036643Y2290226D1*
X1031375Y2281733D1*
X1025153Y2273913D1*
X1018061Y2266871D1*
X1010196Y2260704D1*
X1001665Y2255497D1*
X992585Y2251320D1*
X983081Y2248230D1*
X973281Y2246270D1*
X963319Y2245466D1*
X953331Y2245829D1*
X943454Y2247355D1*
X933822Y2250022D1*
X924567Y2253794D1*
X915815Y2258619D1*
X907685Y2264432D1*
X900289Y2271154D1*
X893727Y2278693D1*
X888089Y2286945D1*
X883451Y2295798D1*
X879878Y2305132D1*
X877418Y2314819D1*
X876104Y2324726D1*
X875955Y2334719D1*
X876972Y2344662D1*
X879141Y2354418D1*
X882434Y2363854D1*
X886804Y2372842D1*
X892193Y2381260D1*
X898526Y2388991D1*
X905718Y2395931D1*
X913671Y2401985D1*
X922275Y2407070D1*
X931413Y2411117D1*
X940961Y2414071D1*
X950788Y2415891D1*
X960760Y2416553D1*
X970742Y2416047D1*
X980596Y2414380D1*
X990189Y2411576D1*
X999389Y2407673D1*
X1008072Y2402723D1*
X1016118Y2396794D1*
X1023417Y2389967D1*
X1029871Y2382336D1*
X1035391Y2374004D1*
X1039901Y2365086D1*
X1043341Y2355702D1*
X1045662Y2345981D1*
X1046835Y2336056D1*
X1046948Y2328500D1*
X2280310Y2764175D2*
X2278801Y2754643D1*
X2276935Y2748491D1*
X2374476Y2748500D1*
X2441052Y2815060D1*
X2441572Y2824235D1*
X2443276Y2831330D1*
X2446068Y2838071D1*
X2449881Y2844293D1*
X2454620Y2849841D1*
X2460168Y2854580D1*
X2466389Y2858392D1*
X2473131Y2861185D1*
X2480226Y2862888D1*
X2487500Y2863461D1*
X2494774Y2862888D1*
X2501869Y2861185D1*
X2508611Y2858392D1*
X2514832Y2854580D1*
X2520380Y2849841D1*
X2522991Y2846992D1*
X2523000Y2954244D1*
X2135182Y2954232D1*
X2128328Y2948113D1*
X2122107Y2944300D1*
X2115365Y2941508D1*
X2108270Y2939805D1*
X2100996Y2939232D1*
X2092505Y2940047D1*
X2203892Y2828655D1*
X2214175Y2830310D1*
X2223825D1*
X2233357Y2828801D1*
X2242535Y2825819D1*
X2251134Y2821437D1*
X2258941Y2815765D1*
X2265765Y2808941D1*
X2271437Y2801134D1*
X2275819Y2792535D1*
X2278801Y2783357D1*
X2280310Y2773825D1*
Y2764175D1*
X2157437Y3182538D2*
X2162992Y3188649D1*
X2163000Y3874959D1*
X2132018Y3875000D1*
X2149886Y3856958D1*
X2154000Y3850801D1*
X2156563Y3843854D1*
X2157433Y3836500D1*
Y3182545D1*
X1569000Y692951D2*
D15*
Y570049D1*
X1507549Y631500D2*
X1569000D1*
X1106500Y1166000D2*
Y1108053D1*
X1048553Y1166000D2*
X1164447D1*
X1656500Y3792951D2*
Y3731500D1*
X1717951D1*
X2481500Y3767951D2*
Y3706500D1*
X2420049D2*
X2542951D1*
X894000Y1169000D2*
Y1111053D1*
X836053Y1169000D2*
X951947D1*
X1156500Y3956500D2*
Y3895049D1*
X1956500Y3967951D2*
Y3906500D1*
X1895049D2*
X1956500D1*
X1569000Y1092951D2*
Y970049D1*
X1507549Y1031500D2*
X1569000D1*
X1956500Y4467951D2*
Y4406500D1*
X1895049D2*
X1956500D1*
X2119000Y1469000D2*
X2180451D1*
X1769000Y2955451D2*
Y2894000D1*
X1656500Y1869000D2*
Y1807549D1*
Y1869000D2*
X1717951D1*
X1156500Y2030451D2*
Y1969000D1*
X1095049D2*
X1156500D1*
X2119000Y1669000D2*
X2180451D1*
X2406500Y2069000D2*
Y2007549D1*
X2345049Y2069000D2*
X2406500D1*
X2506500D2*
Y2007549D1*
X494500Y4437951D2*
Y4225049D1*
X601500Y4497951D2*
Y4431500D1*
X535049D2*
X667951D1*
X551980Y1688160D2*
Y1473840D1*
X468443Y1581000D2*
X551980D1*
X494500Y3812451D2*
Y3599549D1*
X601500Y3872451D2*
Y3806000D1*
X535049D2*
X667951D1*
X551980Y938160D2*
Y723840D1*
X468443Y831000D2*
X551980D1*
X494500Y3187451D2*
Y2974549D1*
X601500Y3247451D2*
Y3181000D1*
X535049D2*
X667951D1*
X2506500Y956000D2*
X2567951D1*
X2506500Y1056000D2*
X2567951D1*
X2506500Y1156000D2*
X2567951D1*
X2345049D2*
X2406500D1*
X2345049Y1056000D2*
X2406500D1*
X2345049Y956000D2*
X2406500D1*
X2581500Y3206500D2*
Y3146584D1*
X1156500Y4542951D2*
Y4420049D1*
X1095049Y4481500D2*
X1156500D1*
X1256500Y3844000D2*
X1317951D1*
X1657549Y1369000D2*
X1780451D1*
X1657549Y1269000D2*
X1780451D1*
X1195049Y3094000D2*
X1256500D1*
X1495049Y2994000D2*
X1556500D1*
X1605147Y831500D2*
X1732853D1*
X1998553Y3706500D2*
X2056500D1*
X2356500Y3806500D2*
X2414447D1*
X1663021Y1469000D2*
X1774979D1*
X1256500Y2131500D2*
X1312479D1*
X1256500Y2024979D2*
Y1969000D1*
X1312479D1*
X1256500Y1269000D2*
X1312479D1*
X1500521Y1469000D2*
X1612479D1*
X1500521Y1569000D2*
X1612479D1*
X1500521Y1869000D2*
X1556500D1*
X1719000Y2069000D2*
Y2013021D1*
Y2069000D2*
X1774979D1*
X961429Y2416506D2*
Y2245494D1*
X875923Y2331000D2*
X1046935D1*
X524899D2*
X591350D1*
D19*
X1569000Y631500D3*
X1669000D3*
D20*
X1106500Y1244000D3*
D21*
Y1166000D3*
D19*
X1656500Y4481500D3*
Y4381500D3*
Y3731500D3*
Y3631500D3*
X2481500Y3706500D3*
Y3606500D3*
D20*
X894000Y1169000D3*
D21*
Y1247000D3*
D19*
X1156500Y4056500D3*
Y3956500D3*
Y3319000D3*
Y3419000D3*
X1956500Y3906500D3*
Y3806500D3*
X1569000Y1031500D3*
X1669000D3*
X1956500Y4406500D3*
Y4306500D3*
X2119000Y1269000D3*
Y1369000D3*
Y1569000D3*
Y1469000D3*
X1769000Y2894000D3*
X1669000D3*
X1656500Y1869000D3*
Y1969000D3*
X1156500D3*
Y1869000D3*
X1819000Y1969000D3*
X1919000D3*
X2019000D3*
X2119000D3*
Y1669000D3*
Y1769000D3*
D22*
X1812857Y1012638D3*
D23*
X2212857D3*
D22*
X2212867Y625045D3*
D23*
X1812867D3*
D24*
X1812857Y887625D3*
X2212857D3*
X1812857Y750110D3*
X2212857D3*
D19*
X2506500Y2169000D3*
Y2269000D3*
Y2369000D3*
Y2469000D3*
Y2569000D3*
Y2669000D3*
X2406500D3*
Y2569000D3*
Y2469000D3*
Y2369000D3*
Y2269000D3*
Y2169000D3*
Y2069000D3*
D25*
X2506500D3*
D26*
X494500Y4331500D3*
D27*
X925500Y4126500D3*
D26*
X1012500Y4331500D3*
D28*
X601500Y4231500D3*
Y4331500D3*
D29*
Y4431500D3*
D30*
X551980Y1581000D3*
D31*
X729146D3*
D26*
X494500Y3706000D3*
D27*
X925500Y3501000D3*
D26*
X1012500Y3706000D3*
D28*
X601500Y3606000D3*
Y3706000D3*
D29*
Y3806000D3*
D30*
X551980Y831000D3*
D31*
X729146D3*
D26*
X494500Y3081000D3*
D27*
X925500Y2876000D3*
D26*
X1012500Y3081000D3*
D28*
X601500Y2981000D3*
Y3081000D3*
D29*
Y3181000D3*
D19*
X2506500Y956000D3*
Y1056000D3*
Y1156000D3*
Y1256000D3*
Y1356000D3*
Y1456000D3*
Y1556000D3*
X2406500D3*
Y1456000D3*
Y1356000D3*
Y1256000D3*
Y1156000D3*
Y1056000D3*
Y956000D3*
Y856000D3*
D25*
X2506500D3*
D32*
X2481500Y3406500D3*
D33*
X2581500D3*
X2481500Y3306500D3*
X2581500D3*
X2481500Y3206500D3*
X2581500D3*
D19*
X1256500Y3944000D3*
X1556500D3*
X481500Y4019000D3*
X781500D3*
X1556500Y3744000D3*
X1256500D3*
X1156500Y4181500D3*
Y4481500D3*
X481500Y3444000D3*
X781500D3*
X1556500Y3844000D3*
X1256500D3*
X2569000Y3906500D3*
Y4206500D3*
X2019000Y1369000D3*
X1719000D3*
X2019000Y1269000D3*
X1719000D3*
X1156500Y1469000D3*
Y1769000D3*
X1556500Y3094000D3*
X1256500D3*
Y4481500D3*
X1556500D3*
X2219000Y2469000D3*
Y2769000D3*
X1656500Y4256500D3*
Y3956500D3*
X1156500Y3194000D3*
Y2894000D3*
X481500Y3344000D3*
X781500D3*
X1656500Y3219000D3*
Y3519000D3*
X1256500Y2994000D3*
X1556500D3*
X1256500Y3194000D3*
X1556500D3*
X1756500Y3781500D3*
Y4081500D3*
X2119000Y2469000D3*
Y2769000D3*
Y2069000D3*
Y2369000D3*
X1756500Y4181500D3*
Y4481500D3*
X2469000Y3906500D3*
Y4206500D3*
X1156500Y3831500D3*
Y3531500D3*
X1256500Y2894000D3*
X1556500D3*
D34*
X461429Y2431394D3*
Y2230606D3*
X961429Y2516039D3*
Y2331000D3*
Y2145961D3*
D28*
X589923Y2231000D3*
X591350Y2331000D3*
D29*
Y2431000D3*
D25*
X1256500Y4356500D3*
D35*
Y4256500D3*
Y4156500D3*
Y4056500D3*
X1556500D3*
Y4156500D3*
Y4256500D3*
Y4356500D3*
D25*
X1256500Y3619000D3*
D35*
Y3519000D3*
Y3419000D3*
Y3319000D3*
X1556500D3*
Y3419000D3*
Y3519000D3*
Y3619000D3*
D36*
X1669000Y931500D3*
Y831500D3*
D37*
Y731500D3*
D20*
X2056500Y4406500D3*
D21*
Y4306500D3*
Y4206500D3*
Y4106500D3*
Y4006500D3*
Y3906500D3*
Y3806500D3*
Y3706500D3*
Y3606500D3*
Y3506500D3*
Y3406500D3*
Y3306500D3*
Y3206500D3*
Y3106500D3*
X2356500D3*
Y3206500D3*
Y3306500D3*
Y3406500D3*
Y3506500D3*
Y3606500D3*
Y3706500D3*
Y3806500D3*
Y3906500D3*
Y4006500D3*
Y4106500D3*
Y4206500D3*
Y4306500D3*
Y4406500D3*
D38*
X1719000Y1769000D3*
D39*
Y1669000D3*
Y1569000D3*
Y1469000D3*
X2019000D3*
Y1569000D3*
Y1669000D3*
Y1769000D3*
D38*
X1256500Y2731500D3*
D39*
Y2631500D3*
Y2531500D3*
Y2431500D3*
Y2331500D3*
Y2231500D3*
Y2131500D3*
X1556500D3*
Y2231500D3*
Y2331500D3*
Y2431500D3*
Y2531500D3*
Y2631500D3*
Y2731500D3*
D38*
X1256500Y1969000D3*
D39*
Y1869000D3*
Y1769000D3*
Y1669000D3*
Y1569000D3*
Y1469000D3*
Y1369000D3*
Y1269000D3*
X1556500D3*
Y1369000D3*
Y1469000D3*
Y1569000D3*
Y1669000D3*
Y1769000D3*
Y1869000D3*
Y1969000D3*
D38*
X1719000Y2769000D3*
D39*
Y2669000D3*
Y2569000D3*
Y2469000D3*
Y2369000D3*
Y2269000D3*
Y2169000D3*
Y2069000D3*
X2019000D3*
Y2169000D3*
Y2269000D3*
Y2369000D3*
Y2469000D3*
Y2569000D3*
Y2669000D3*
Y2769000D3*
M02*
